<?xml version="1.0" encoding="UTF-8" standalone="no"?>
<svg xmlns:rdf="http://www.w3.org/1999/02/22-rdf-syntax-ns#" xmlns="http://www.w3.org/2000/svg" xml:space="preserve" height="147.68" viewBox="0 0 193.01111 147.67531" width="193.01" version="1.1" xmlns:cc="http://creativecommons.org/ns#" xmlns:dc="http://purl.org/dc/elements/1.1/"><g transform="matrix(1.25 0 0 -1.25 -286.6 569.88)"><g><path d="m93.975 2.7129l-0.034 4.6719h0.719c1.609 0 2.45 0.3562 2.994 1.2714 0.269 0.4556 0.248 0.8311 0.213 1.4528-0.013 0.224-0.026 0.461-0.025 0.69-0.09 2.476-0.16 4.617-0.227 6.633-0.147 4.472-0.274 8.336-0.537 13.841-0.032 0.72-0.278 1.287-0.715 1.715 0.162 0.319 1.076 1.484 1.932 2.549h-0.555c-2.03 0-2.747-1.729-3.687-4.58l-0.102-0.307c-0.546-1.651-0.99-3-1.418-4.304-0.585-1.783-1.144-3.481-1.898-5.742-0.606-1.822-1.491-4.715-2.348-7.514-1.354-4.4215-2.633-8.5973-3.197-9.9201l-0.186-0.4355h-10.4l-0.885 2.2187c-2.272 5.7069-3.772 9.4759-6.42 15.594-0.84 1.95-1.464 3.522-2.068 5.043-0.6 1.51-1.221 3.073-2.051 5.002l-0.072 0.168c-0.688 1.597-1.257 2.819-1.99 3.633-0.021 0.616-0.14 5.556-0.104 5.912l14.418 0.027-0.045-0.758c-0.046-0.786-0.029-1.349-0.01-2 0.012-0.385 0.024-0.79 0.024-1.273v-0.613l-0.606-0.094c-0.385-0.059-0.74-0.075-1.08-0.09-0.6-0.028-1.073-0.049-1.605-0.336-0.642-0.343-0.928-0.845-0.928-1.629 0-0.859 0.249-1.434 0.564-2.16 0.161-0.371 0.343-0.791 0.504-1.285l0.272-0.848c0.264-0.832 0.466-1.465 0.818-2.277h10.246c0.702 2.531 1.065 3.882 1.754 6.976 0.064 0.286-0.002 0.435-0.068 0.535-0.427 0.647-2.114 0.962-3.231 1.17l-0.253 0.049 0.066 0.711-0.135 0.002-0.514 0.012v0.004c0.003 0.12 0.005 1.439 0.006 2.334 0.002 1.057 0.004 1.539 0.717 1.539h16.631l-0.006-0.721c-0.006-0.848-0.004-1.432-0.002-2.098l0.002-1.746c0.757 0.939 1.428 1.75 1.428 1.75-0.001 0.339-0.002 0.656-0.002 0.998h9.561v-4.748l-1.14 0.002c-1.07 0.015-1.61 0.015-2.3-0.584-0.61-0.532-0.63-1.159-0.62-2.314v-0.367c0.09-2.423 0.16-4.524 0.22-6.5 0.15-4.471 0.28-8.332 0.55-13.834 0.07-1.7942 1.87-2.5552 3.51-2.516l0.73 0.0215 0.02-4.9297-16.433-0.0019h-0.002zm18.325 0.0312l-0.01 4.8282h0.72c1.82 0 3.3 1.5383 3.3 3.4097l-0.11 4.098c-0.09 3.089-0.16 5.685-0.29 9.432l-0.01 0.117c-0.1 2.998-0.17 4.807-0.39 7.875-0.04 0.586-0.18 2.371-3.58 2.851l-0.62 0.086v4.821h15.27l0.17-0.098c0.42-0.245 0.42-0.245 0.38-3.873l-0.01-0.654-0.8-0.065c-0.73-0.054-1.63-0.121-2.31-0.672-1.08-0.868-1.07-1.196-1.06-2.171l0.8-20.583h0.2l13.57 28.12h8.84l0.03-0.688c0.17-4.604 0.28-8.128 0.38-11.447 0.15-4.785 0.29-9.304 0.6-16.063 0.07-1.673 1.29-3.4723 3.78-3.4723h0.01l0.57 0.002 0.13-0.5606c0.01-0.0396 0.23-4.6272-0.22-5.0664l-0.21-0.2031h-15.3l0.05 0.7578c0.05 0.8081 0.03 1.3829 0.02 2.0488-0.01 0.3683-0.02 0.7571-0.02 1.2168v0.6152l0.61 0.0918c0.17 0.0268 0.34 0.0497 0.51 0.0723 0.92 0.122 1.59 0.2103 2.2 0.8223 0.57 0.5668 0.59 1.1826 0.59 2.2894-0.05 1.762-0.08 3.266-0.11 4.685-0.06 2.796-0.1 5.209-0.29 8.641 0 0.074-0.01 0.145-0.02 0.211l-10.2-21.475-17.17 0.0001zm-107.5 0.0137l-0.0196 5.6641h0.7168c1.9751 0 4.0176 1.1773 4.0176 3.1461v6.102c0 6.3-0.2704 10.494-0.6133 15.805-0.1223 1.895-0.2525 3.913-0.3808 6.199-0.1297 2.454-2.4068 3.644-4.4942 3.939l-0.7539 0.035 0.1446 0.739c0.0183 0.29 0.0159 3.294-0.0098 3.785l-0.2441 0.848h19.666l0.43-0.04 0.187-0.367c0.183-0.359 0.307-4.162-0.027-4.674l-0.238-0.355-0.305 0.018c-0.425-0.104-0.81-0.16-1.152-0.209-0.661-0.095-1.182-0.168-1.768-0.545-1.302-0.836-1.54-2.088-1.541-4.227l0.969-24.25c0.063-0.002 0.125-0.004 0.187-0.008 0.105-0.005 0.205-0.01 0.305-0.013l8.473 34.67h10.17l11.197-34.149c0.12 0.011 0.241 0.02 0.369 0.025-0.099 2.674-0.181 5.041-0.26 7.278-0.198 5.696-0.369 10.616-0.707 17.629-0.121 2.47-2.738 3.802-5.138 3.802h-0.715v0.715c0 0.565-0.016 1.037-0.03 1.487-0.024 0.784-0.047 1.524 0.014 2.541l0.041 0.672h21.606l-0.045-0.756c-0.057-0.982-0.035-1.683-0.01-2.493h-0.002c0.014-0.476 0.029-0.978 0.029-1.576v-0.627l-0.621-0.08c-0.383-0.05-0.743-0.078-1.086-0.103-0.984-0.072-1.694-0.123-2.404-0.729-1.121-0.958-1.12-2.122-1.119-3.883v-0.093c0.115-3.193 0.206-5.957 0.293-8.557 0.192-5.823 0.358-10.853 0.703-18.025 0.126-2.8221 3.53-3.6022 4.988-3.807l0.617-0.0879v-5.4453h-22.281l-9.488 29.176-7.115-29.176-22.555-0.0002zm185.82 0l-36.99 0.0098-0.02 5.584 1.11 0.1367c1.57 0.186 2.48 0.3405 3.07 1.3437 0.52 0.876 0.52 1.584 0.52 2.729-0.11 3.042-0.2 5.69-0.29 8.181-0.19 5.781-0.36 10.775-0.7 17.877l-0.02 0.526c-0.05 1.343-0.08 2.313-0.97 3.084-1 0.865-1.88 1.108-3.46 1.328l-0.5 0.07-0.1 0.498c-0.01 0.023-0.05 4.132-0.01 4.311l0.13 0.554h37.23l0.64-17.422-5.98 0.002-0.05 0.662c-0.15 2.076-1.11 7.8-3.74 9.395-1.54 0.964-3.88 1.166-5.56 1.166h-4.32c-1.06 0-2.02-0.455-2.91-1.393-0.33-0.338-0.31-0.685-0.18-1.523 0.06-0.365 0.13-0.78 0.13-1.203l0.35-11.408 1.87-0.004h0.01c0.76 0 1.35 0.225 1.82 0.689 0.94 0.945 1.4 2.891 1.4 5.953v0.717h5.73l0.93-21.012h-5.3v0.715c0 2.525-0.47 6.76-3.61 6.768l-2.56 0.008c0.03-0.952 0.06-1.805 0.08-2.618 0.06-2.02 0.11-3.765 0.26-6.226 0.12-1.893 1.72-3.3205 3.74-3.3205h4.01 0.04c3 0 4.66 0.008 6.55 1.4105 1.54 1.144 1.86 4.411 1.64 7.086l-0.01 0.849h5.61l0.41-15.523zm-111.24 7.8462l2.648 10.65h-7.062l4.414-10.65z" transform="matrix(.8 0 0 -.8 229.28 455.9)" fill="#fff"/><path d="m92.383 1.1953l0.021 7.6309h2.137c1.423 0 1.606 0.3073 1.764 0.5722 0.036 0.0615 0.046 0.124 0.017 0.6446-0.015 0.249-0.028 0.511-0.027 0.717-0.089 2.469-0.158 4.606-0.225 6.617-0.144 4.386-0.272 8.195-0.525 13.531-0.046-0.135-0.087-0.254-0.135-0.4l-0.101-0.307c-0.546-1.649-0.99-2.997-1.418-4.301-0.587-1.784-1.144-3.483-1.899-5.746-0.6-1.806-1.485-4.691-2.34-7.482-1.365-4.459-2.654-8.6703-3.248-10.063l-0.556-1.3043h-12.313l-1.244 3.1211c-2.267 5.6942-3.764 9.4552-6.404 15.556-0.848 1.969-1.476 3.55-2.084 5.08-0.597 1.502-1.214 3.054-2.035 4.963l-0.073 0.168c-0.213 0.494-0.402 0.909-0.582 1.293 0.015-0.435 0.031-0.873 0.045-1.298 0.193-5.823 0.359-10.852 0.703-18.026 0.079-1.751 2.655-2.3022 3.76-2.4569l1.846-0.2598v-8.1172h-24.746l-8.254 25.379-6.192-25.379-25.099 0.0001-0.0315 8.5215h2.1524c1.2448 0 2.5898 0.6584 2.5898 1.7184v6.102c0 6.256-0.2715 10.432-0.6133 15.719-0.1223 1.897-0.2518 3.917-0.3808 6.211-0.1078 2.049-2.7395 2.523-3.2656 2.597l-2.2442 0.317 0.4102 2.06c0.0112 0.592 0.0084 2.692-0.0078 3.367l-0.7325 2.508h21.541l1.365-0.084 0.562-1.103c0.363-0.711 0.571-5.068-0.105-6.104l-0.689-1.049-0.928 0.053c-0.406-0.088-0.768-0.14-1.072-0.183-0.622-0.089-0.885-0.134-1.198-0.334-0.61-0.393-0.882-0.926-0.884-2.967l0.632-15.848 6.75 27.619h12.328l2.28-6.955v0.826c0 0.548-0.014 1.008-0.028 1.444-0.025 0.817-0.049 1.588 0.016 2.67l0.121 2.015h24.467l-0.133-2.269c-0.053-0.92-0.032-1.589-0.01-2.366 0.015-0.489 0.03-1.005 0.03-1.619v-1.881l-1.866-0.244c-0.411-0.054-0.799-0.084-1.168-0.111-0.744-0.054-1.08-0.092-1.335-0.223l15.119 0.028-0.133-2.274c-0.043-0.724-0.027-1.256-0.008-1.873 0.011-0.398 0.023-0.817 0.023-1.316v-1.84l-1.818-0.279c-0.471-0.073-0.892-0.091-1.23-0.106-0.556-0.025-0.762-0.041-0.998-0.168-0.143-0.076-0.172-0.094-0.172-0.371 0-0.54 0.136-0.877 0.445-1.59 0.173-0.399 0.371-0.851 0.553-1.408l0.275-0.861c0.149-0.47 0.278-0.871 0.426-1.28h8.187c0.486 1.77 0.821 3.071 1.336 5.358-0.555 0.21-1.531 0.392-2.056 0.49l-0.256 0.049 0.197 2.117 0.135-0.002-0.066-0.711 0.253-0.049c1.117-0.208 2.804-0.523 3.231-1.17 0.066-0.1 0.134-0.249 0.07-0.535-0.689-3.094-1.054-4.445-1.756-6.976h-10.246c-0.352 0.812-0.554 1.445-0.818 2.277l-0.272 0.848c-0.161 0.494-0.343 0.914-0.504 1.285-0.315 0.726-0.564 1.301-0.564 2.16 0 0.784 0.286 1.286 0.928 1.629 0.532 0.286 1.007 0.308 1.607 0.336 0.34 0.015 0.693 0.031 1.078 0.09l0.606 0.094v0.613c0 0.483-0.011 0.888-0.024 1.273-0.019 0.651-0.036 1.214 0.01 2l0.045 0.758-14.418-0.027c-0.036-0.356-0.046-0.819-0.047-1.43v-0.104-0.041c0.03-0.843 0.059-1.652 0.086-2.441 0.023-0.648 0.044-1.28 0.065-1.896 0.733-0.814 1.302-2.036 1.99-3.633l0.072-0.168c0.83-1.929 1.451-3.492 2.051-5.002 0.604-1.521 1.228-3.093 2.068-5.043 2.648-6.118 4.15-9.887 6.422-15.594l0.883-2.2186h10.4l0.186 0.4355c0.564 1.3228 1.843 5.4986 3.197 9.9201 0.857 2.799 1.744 5.692 2.35 7.514 0.754 2.261 1.311 3.959 1.896 5.742 0.428 1.304 0.872 2.653 1.418 4.304l0.102 0.307c0.94 2.851 1.657 4.58 3.687 4.58h0.715l-0.002 1.945c-0.001 0.666-0.004 1.25 0.002 2.098l0.006 0.721h-16.633c-0.714 0-0.713-0.482-0.715-1.539-0.001-0.895-0.003-2.214-0.006-2.334l-1.429 0.019c0.002 0.154 0.004 1.441 0.006 2.317 0.001 0.811 0.004 2.966 2.144 2.966h18.072l-0.013-1.802h10.163v1.656h18.62l0.07-7.375-2.15-0.168c-0.59-0.043-1.19-0.087-1.52-0.359-0.4-0.319-0.51-0.477-0.52-0.477-0.01-0.087-0.01-0.357-0.01-0.557l0.48-14.937 11.77 23.877h11.11l0.08-2.063c0.13-3.46 0.23-6.312 0.32-8.923 0.22-5.967 0.39-10.679 0.74-18.577 0.03-0.525 0.26-2.2398 2.28-2.2398l3.23 0.123c1.49 0.1768 1.79 0.2728 2.01 0.6508 0.31 0.516 0.32 0.873 0.32 1.949-0.11 3.044-0.2 5.693-0.28 8.185-0.2 5.776-0.37 10.765-0.71 17.858l-0.02 0.539c-0.05 1.353-0.1 1.732-0.47 2.056-0.73 0.63-1.32 0.8-2.73 0.995l-1.51 0.209-0.29 1.494c-0.04 0.181-0.1 4.459 0 4.912l0.39 1.662h39.74l0.74-20.279-8.79 0.004-0.15 1.984c-0.2 2.795-1.27 7.199-2.98 8.236l-0.09 0.051c-0.98 0.612-2.68 0.949-4.8 0.949h-4.32c-0.39 0-0.99-0.086-1.74-0.808 0.01-0.133 0.04-0.311 0.07-0.455 0.06-0.397 0.13-0.892 0.13-1.383l0.31-10.026 0.49-0.002c0.45-0.023 0.68 0.138 0.82 0.274 0.36 0.368 0.99 1.498 0.99 4.941v2.145h8.52l1.05-23.869h-8.22v2.142c0 1.251-0.15 5.335-2.18 5.34l-1.08 0.004c0.01-0.393 0.02-0.772 0.03-1.143 0.06-2.008 0.11-3.743 0.26-6.183 0.07-1.127 1.06-1.977 2.31-1.977h4.01c3.13 0 4.29 0.055 5.74 1.129 0.84 0.625 1.29 3.073 1.06 5.82l-0.01 2.397h8.43l0.49-18.381-57.31-0.0956 0.13 2.2696c0.05 0.749 0.04 1.2709 0.02 1.9316-0.01 0.3787-0.02 0.779-0.02 1.2519v1.8418l1.82 0.2774c0.19 0.0282 0.37 0.0525 0.55 0.0762 0.89 0.1188 1.12 0.1721 1.37 0.4179 0.14 0.137 0.18 0.3136 0.18 1.2342-0.05 1.754-0.09 3.252-0.12 4.666-0.02 1.096-0.04 2.134-0.07 3.197l-8.29-17.152-19.32 0.0001v0.0039l-18.647-0.0527zm1.592 1.5176l16.425 0.0039-0.01 4.9277-0.73-0.0195c-1.64-0.0392-3.44 0.7198-3.52 2.514-0.26 5.502-0.39 9.363-0.54 13.834-0.06 1.976-0.13 4.077-0.22 6.5v0.367c-0.01 1.155 0.01 1.784 0.62 2.316 0.69 0.599 1.23 0.598 2.3 0.584l1.14-0.004v4.75-0.002h-9.559c0-0.342 0-0.659 0.002-0.998v-3.377h-2.143c-0.148 0-0.28-0.029-0.408-0.072-0.354-0.119-0.652-0.424-0.969-1.049 0.437-0.428 0.682-0.995 0.715-1.715 0.263-5.505 0.39-9.369 0.537-13.841 0.067-2.016 0.137-4.159 0.227-6.635-0.001-0.229 0.011-0.464 0.025-0.688 0.035-0.6217 0.056-0.9972-0.213-1.4528-0.544-0.9152-1.385-1.2714-2.994-1.2714h-0.719l0.034-4.6719zm18.325 0.0312h17.17l10.2 21.475c0.01-0.066 0.02-0.135 0.02-0.209 0.19-3.432 0.23-5.847 0.29-8.643 0.03-1.419 0.06-2.923 0.11-4.685 0-1.1068-0.02-1.7226-0.59-2.2894-0.61-0.612-1.28-0.7003-2.2-0.8223-0.17-0.0226-0.34-0.0455-0.51-0.0723l-0.61-0.0918v-0.6152c0-0.4597 0.01-0.8485 0.02-1.2168 0.01-0.6659 0.03-1.2407-0.02-2.0488l-0.05-0.7578h15.3l0.21 0.2051c0.45 0.4391 0.23 5.0247 0.22 5.0644l-0.13 0.5606-0.57-0.002h-0.01c-2.49 0-3.71 1.7993-3.78 3.4723-0.31 6.759-0.45 11.278-0.6 16.063-0.1 3.319-0.21 6.843-0.38 11.447l-0.03 0.688h-8.84l-13.57-28.12h-0.2l-0.8 20.583c-0.01 0.975-0.02 1.303 1.06 2.171 0.68 0.551 1.58 0.62 2.31 0.674l0.81 0.063v0.654c0.04 3.628 0.04 3.628-0.38 3.873l-0.17 0.098h-15.27v-4.821l0.62-0.086c3.4-0.48 3.54-2.263 3.58-2.849 0.22-3.068 0.29-4.879 0.39-7.877l0.01-0.117c0.13-3.747 0.2-6.343 0.29-9.432l0.11-4.098c0-1.8714-1.48-3.4097-3.3-3.4097h-0.72l0.01-4.8282zm-107.5 0.0137h22.553l7.117 29.176 9.486-29.176 22.281-0.0002v5.4453l-0.615 0.086c-1.458 0.2048-4.864 0.9867-4.99 3.8089h0.002c-0.345 7.172-0.511 12.202-0.703 18.025-0.087 2.6-0.178 5.364-0.293 8.557v0.093c-0.001 1.761-0.002 2.925 1.119 3.883 0.71 0.606 1.42 0.657 2.404 0.729 0.343 0.025 0.703 0.053 1.086 0.103l0.621 0.08v0.627c0 0.598-0.015 1.1-0.029 1.576-0.024 0.81-0.045 1.511 0.012 2.493l0.043 0.756h-21.606l-0.039-0.672c-0.061-1.017-0.038-1.757-0.014-2.541 0.014-0.45 0.028-0.922 0.028-1.487v-0.715h0.715c2.4 0 5.017-1.332 5.138-3.802 0.338-7.013 0.509-11.933 0.707-17.629 0.079-2.237 0.161-4.604 0.26-7.278-0.128-0.005-0.249-0.014-0.369-0.025l-11.195 34.149h-10.17l-8.473-34.67c-0.1 0.002-0.2 0.008-0.305 0.013-0.062 0.003-0.124 0.006-0.187 0.008l-0.969 24.248c0.001 2.139 0.239 3.393 1.541 4.229 0.586 0.377 1.107 0.45 1.768 0.545 0.342 0.049 0.726 0.105 1.15 0.209l0.305-0.018 0.238 0.355c0.334 0.512 0.212 4.313 0.029 4.672l-0.187 0.369-0.432 0.04h-19.666l0.2463-0.848c0.0261-0.491 0.0266-3.495 0.0078-3.785l-0.1445-0.739 0.7558-0.035c2.0874-0.295 4.3625-1.485 4.4922-3.939 0.1283-2.286 0.2585-4.304 0.3809-6.199 0.3428-5.311 0.6133-9.505 0.6133-15.805v-6.102c0-1.9688-2.0425-3.1461-4.0176-3.1461h-0.7168l0.0215-5.6641zm185.82 0l-0.41 15.523h-5.61l0.01-0.851c0.22-2.675-0.1-5.94-1.64-7.084-1.89-1.403-3.55-1.4105-6.55-1.4105h-0.04-4.01c-2.02 0-3.62 1.4255-3.74 3.3185-0.15 2.461-0.2 4.208-0.26 6.228-0.02 0.813-0.05 1.664-0.08 2.616l2.56-0.006c3.14-0.008 3.61-4.245 3.61-6.77v-0.715h5.3l-0.93 21.012h-5.73v-0.715c0-3.062-0.46-5.008-1.4-5.953-0.47-0.464-1.06-0.689-1.82-0.689h-0.01l-1.88 0.004-0.34 11.408c0 0.423-0.07 0.838-0.13 1.203-0.13 0.838-0.15 1.185 0.18 1.523 0.89 0.938 1.84 1.393 2.9 1.393h4.33c1.68 0 4.02-0.202 5.56-1.166 2.63-1.595 3.59-7.321 3.74-9.397l0.05-0.662h5.98l-0.64 17.422h-37.23l-0.13-0.554c-0.04-0.179 0-4.288 0.01-4.311l0.1-0.498 0.5-0.07c1.58-0.22 2.46-0.463 3.46-1.328 0.89-0.771 0.92-1.743 0.97-3.086l0.02-0.524c0.34-7.102 0.51-12.096 0.7-17.877 0.09-2.491 0.18-5.14 0.29-8.183 0-1.145 0-1.851-0.52-2.727-0.59-1.0032-1.5-1.1577-3.07-1.3437l-1.11-0.1387 0.02-5.584 36.99-0.0078zm-80.44 6.3262h3.72c0.67 0.2973 1.14 0.984 1.14 1.75l-0.11 4.1c-0.08 3.085-0.15 5.677-0.29 9.418v0.16c-0.11 2.965-0.18 4.755-0.4 7.783-0.03 0.395-0.08 1.219-2.35 1.539l-1.14 0.16v-1.674h-2.14l-0.44 0.004c-1.08 0.011-1.11-0.024-1.35-0.23-0.11-0.095-0.14-0.276-0.13-1.227v-0.33c0.09-2.433 0.16-4.543 0.22-6.527 0.15-4.458 0.28-8.308 0.54-13.797 0.03-0.6747 1.44-1.129 2.73-1.129zm-30.801 1.52l-4.414 10.65h7.062l-2.648-10.65zm-0.34 4.554l1.16 4.666h-3.095l1.935-4.666zm-30.894 8.483c-0.178 5.076-0.348 9.717-0.655 16.091-0.078 1.588-1.969 2.444-3.711 2.444h-1.713l6.079-18.535z" transform="matrix(.8 0 0 -.8 229.28 455.9)"/><path d="m95.393 4.1426l-0.014 1.8359c1.258 0.0904 2.634 0.487 3.504 1.9492 0.491 0.8315 0.45 1.5599 0.41 2.2633-0.011 0.199-0.023 0.408-0.023 0.633-0.09 2.501-0.159 4.642-0.225 6.656-0.148 4.478-0.276 8.345-0.539 13.86-0.052 1.116-0.466 2.026-1.176 2.699 0.128 0.043 0.262 0.07 0.41 0.07h2.143l-0.002 2.948h8.129v-1.885-0.002c-1.02 0.013-1.95-0.067-2.95-0.938-1.13-0.99-1.12-2.219-1.11-3.406v-0.381c0.09-2.446 0.16-4.546 0.22-6.521 0.15-4.476 0.28-8.342 0.55-13.852 0.1-2.365 2.11-3.664 4.24-3.8552l0.01-2.0723-13.577-0.0019zm-19.92 0.0215l-0.526 1.3183c-2.276 5.7176-3.781 9.4946-6.437 15.631-0.831 1.93-1.451 3.492-2.051 5.004-0.604 1.519-1.228 3.092-2.066 5.041l-0.073 0.166c-0.842 1.954-1.706 3.952-3.369 4.965-0.027 0.789-0.056 1.598-0.086 2.441v0.041h0.002v0.104l12.965 0.025c-0.009-0.494 0.004-0.922 0.018-1.367 0.005-0.188 0.011-0.383 0.015-0.588-0.106-0.006-0.21-0.008-0.312-0.013-0.688-0.032-1.401-0.064-2.219-0.504-1.1-0.588-1.682-1.587-1.682-2.889 0-1.156 0.331-1.921 0.682-2.728 0.152-0.352 0.316-0.724 0.459-1.163l0.268-0.834c0.31-0.979 0.555-1.751 1.068-2.859l0.191-0.416h12.252l0.147 0.523c0.806 2.907 1.174 4.234 1.918 7.571 0.133 0.598 0.038 1.165-0.274 1.637-0.707 1.071-2.386 1.45-3.836 1.726 0.012 0.431 0.013 1.002 0.014 1.762v0.113h14.48c0-0.503 0.001-0.928 0.002-1.392v-0.565c-2.645-0.41-3.536-3.107-4.33-5.51l-0.099-0.302c-0.548-1.653-0.991-3.006-1.42-4.311-0.585-1.78-1.141-3.476-1.895-5.736-0.611-1.838-1.46-4.611-2.359-7.547-1.163-3.7963-2.362-7.7082-2.975-9.3439h-8.472zm38.247 0.0097v2.0235c2.27 0.355 4.02 2.3744 4.02 4.8047l-0.11 4.115c-0.09 3.093-0.16 5.694-0.29 9.445l-0.01 0.118c-0.1 3.014-0.17 4.833-0.39 7.927-0.12 1.515-0.95 3.405-4.19 4.059v2.166h12.93c0.01-0.558 0.01-1.331 0.02-1.877-0.78-0.08-1.75-0.27-2.59-0.941-1.54-1.244-1.61-2.069-1.59-3.311l0.01-0.396 0.84-21.588 2.48-0.002 13.56 28.119h6.58c0.15-4.267 0.26-7.601 0.35-10.75 0.15-4.79 0.29-9.313 0.6-16.082 0.1-2.2335 1.68-4.489 4.52-4.8009 0-0.765 0-2.1751-0.01-3.0058h-12.81c0.01 0.5115 0 0.9534-0.02 1.4121 0 0.1801 0 0.3641-0.01 0.5605 0.98 0.1315 1.98 0.297 2.9 1.2129 1.01 1.0115 1.01 2.1837 1.01 3.3182-0.05 1.779-0.08 3.28-0.11 4.695-0.06 2.809-0.11 5.232-0.29 8.676-0.03 0.858-0.43 1.536-1.22 2.061l-0.69 0.457-10.65-22.416-14.84-0.0002zm-107.5 0.0137l-0.0118 2.8457c2.4327 0.2744 4.7301 1.9269 4.7301 4.5348v6.102c0 6.346-0.272 10.561-0.617 15.896-0.122 1.892-0.252 3.907-0.3806 6.186-0.1346 2.562-2.1161 4.542-5.1055 5.168 0.01 0.736 0.0204 1.87 0.0078 2.67h17.326c0.035-0.725 0.035-2.011 0-2.678-0.225-0.042-0.44-0.073-0.652-0.103-0.733-0.105-1.492-0.213-2.34-0.758-2.027-1.302-2.196-3.411-2.196-5.459l1.026-25.701 0.732 0.048c0.294 0.021 0.527 0.008 0.754-0.003 0.294-0.016 0.599-0.033 1.008 0.005l0.508 0.047 8.457 34.602h8.011l11.211-34.197 0.532 0.013c0.22 0.005 0.412 0.023 0.589 0.039 0.327 0.03 0.541 0.05 0.856-0.021l0.906-0.205-0.035 0.927c-0.112 3.006-0.204 5.622-0.289 8.079-0.199 5.7-0.369 10.623-0.707 17.646-0.153 3.097-3.013 4.878-5.859 5.133-0.005 0.3-0.014 0.578-0.022 0.848-0.018 0.586-0.034 1.111-0.017 1.738h18.744c-0.017-0.685 0.001-1.261 0.019-1.861 0.009-0.283 0.016-0.573 0.022-0.889-0.128-0.01-0.252-0.021-0.375-0.029-1.112-0.081-2.162-0.158-3.229-1.069-1.622-1.388-1.621-3.126-1.621-4.969v-0.119c0.116-3.216 0.207-5.981 0.293-8.58 0.193-5.828 0.36-10.862 0.705-18.043 0.116-2.5882 2.146-4.4107 5.602-5.0564v-2.7871h-19.813l-9.961 30.634h-1.33l-7.472-30.634-20.006-0.0005zm182.93 0l-34.1 0.0078-0.01 2.8926c1.51 0.1794 3.04 0.4118 3.98 2.0176 0.72 1.2115 0.72 2.2125 0.72 3.4805-0.11 3.067-0.21 5.715-0.29 8.205-0.2 5.786-0.37 10.783-0.7 17.895l-0.02 0.509c-0.06 1.508-0.11 2.934-1.46 4.112-1.2 1.033-2.32 1.366-3.59 1.574 0 0.718-0.01 1.921-0.01 2.68h34.57l0.53-14.563h-3.18c-0.23 2.005-1.15 7.91-4.3 9.813-1.51 0.947-3.64 1.412-6.36 1.412h-4.32c-1.45 0-2.78-0.616-3.95-1.832-0.84-0.882-0.68-1.868-0.55-2.737 0.06-0.329 0.11-0.669 0.11-1.002l0.39-12.81 3.25-0.01h0.02c1.14 0 2.09 0.373 2.83 1.107 1.46 1.464 1.77 4.124 1.82 6.25h2.93l0.8-18.15h-2.38c-0.16 4.759-1.97 7.474-5.03 7.482l-4.04 0.01 0.03-0.742c0.04-1.257 0.08-2.334 0.11-3.35 0.05-2.033 0.1-3.787 0.26-6.271 0.16-2.657 2.38-4.6621 5.16-4.6621h3.96 0.05c3.13 0 5.17 0.0081 7.44 1.6914 2.2 1.6327 2.36 5.4927 2.26 7.6547h2.74l0.33-12.664zm-110.68 5.3848h1.939l3.254 12.926h-10.633l5.44-12.926z" transform="matrix(.8 0 0 -.8 229.28 455.9)" fill="#77b5e6"/><path d="m97.096 29.252c-1.699 0.107-3.03 0.449-4.317 0.779-1.507 0.387-2.931 0.752-4.867 0.752h-1.377c-4.524 0-7.186 1.599-10.871 3.813-0.265 0.159-0.534 0.321-0.81 0.486-0.607 0.358-1.1 0.665-1.579 0.961-0.694 0.43-1.35 0.836-2.248 1.336-0.262 0.147-0.478 0.313-0.685 0.473-0.411 0.316-0.766 0.587-1.342 0.587-2.156 0-3.344 0.002-5.424-0.304-1.668-0.247-2.882-1.029-4.056-1.783-1.393-0.895-2.707-1.741-4.684-1.741-1.39 0-2.327 0.367-3.414 0.791-0.513 0.2-1.043 0.406-1.664 0.59-3.54 1.046-6.011 2.315-8.164 5.703-0.452 0.71-1.022 1.138-1.574 1.553-0.583 0.437-1.185 0.89-1.643 1.666-0.219 0.378-0.268 0.747-0.316 1.104-0.048 0.355-0.095 0.69-0.297 1.039l-0.182 0.308c-0.879 1.492-1.514 2.572-1.514 4.406 0 0.965 0.334 1.628 0.688 2.331 0.281 0.558 0.572 1.136 0.691 1.894 0.172 1.047 0.201 1.912 0.229 2.746 0.028 0.84 0.057 1.708 0.23 2.766 0.061 0.372 0.025 0.705-0.01 1.025-0.051 0.479-0.099 0.931 0.172 1.451 0.251 0.489 0.71 0.586 1.157 0.678 0.353 0.074 0.719 0.148 1.004 0.416 0.606 0.574 0.876 1.276 1.136 1.953 0.336 0.876 0.654 1.704 1.641 2.198 2.467 1.233 4.253 1.976 6.32 2.837 0.844 0.352 1.716 0.714 2.719 1.145 0.595 0.253 1.168 0.4 1.723 0.541 1.123 0.285 2.094 0.531 2.836 1.574 0.753 1.056 0.818 2.017 0.894 3.129 0.047 0.686 0.094 1.394 0.313 2.188l-1.223 8.654c0.019 0.212 0.075 0.351 0.146 0.529l0.057 0.141 0.09-0.078c0.173-0.151 0.333-0.295 0.484-0.434 0.575-0.528 1.036-0.951 1.815-1.197l-0.754 7.699c0.017 0.223 0.063 0.36 0.123 0.535l0.076 0.229 0.098-0.098c0.389-0.389 0.734-0.695 1.066-0.99 0.316-0.28 0.643-0.569 1.01-0.932 0.07 0.088 0.136 0.152 0.232 0.223 0.267 2.693 0.938 4.399 1.783 6.556 0.265 0.67 0.537 1.37 0.823 2.15 0.379 1.05 0.681 1.95 0.972 2.83 0.603 1.8 1.124 3.36 2.094 5.45l0.061 0.13 0.084-0.11c0.333-0.46 0.547-0.88 0.754-1.29 0.261-0.52 0.508-1.01 0.978-1.51 0.376 1.18 0.512 2.17 0.643 3.14 0.137 1.01 0.277 2.06 0.691 3.31 0.751 2.26 1.88 3.57 3.188 5.07 0.605 0.7 1.232 1.42 1.878 2.3l0.086 0.12 0.061-0.13c0.223-0.49 0.344-0.91 0.463-1.32 0.1-0.34 0.203-0.7 0.369-1.09l2.746 7.78 0.092-0.16c0.154-0.26 0.261-0.49 0.365-0.72 0.17-0.37 0.317-0.7 0.627-1.03 3.859 4.85 5.706 7.93 8.197 13.69 0.313 0.72 0.611 1.35 0.899 1.95 0.714 1.5 1.331 2.79 1.701 4.77l0.016 0.08 0.084-0.01c0.552-0.12 0.981-0.34 1.394-0.55 0.527-0.27 1.025-0.53 1.729-0.53 0.363 0 0.583 0.25 0.816 0.51 0.248 0.28 0.503 0.57 0.943 0.57 0.748 0 1.221-0.34 1.723-0.7 0.247-0.18 0.503-0.36 0.807-0.52l2.752 1.22 3.06-1.22c0.2 0.13 0.35 0.31 0.5 0.47 0.28 0.3 0.54 0.59 1.04 0.59 0.6 0 1.02-0.28 1.42-0.55s0.78-0.52 1.33-0.52c0.66 0 1.06 0.29 1.54 0.63 0.19 0.14 0.4 0.29 0.64 0.43l0.08 0.05 0.04-0.09c0.91-1.96 1.55-3.56 2.18-5.11 0.64-1.61 1.31-3.27 2.26-5.3 2.96-6.3 5.28-10.06 6.2-10.06 0.32 0 0.53 0.18 0.75 0.37 0.24 0.19 0.48 0.4 0.86 0.4 0.13 0 0.24-0.04 0.32-0.12 0.17-0.18 0.15-0.51 0.13-0.85-0.01-0.22-0.02-0.45 0.02-0.63 0.11-0.58 0.17-1.09 0.24-1.59 0.18-1.3 0.31-2.34 1.05-3.63 0.13 0.2 0.24 0.38 0.34 0.55 0.19 0.33 0.38 0.63 0.66 1.03l0.08 0.1 0.33-0.55c0.88-1.46 1.45-2.41 2.34-4 0.15-0.27 0.26-0.53 0.37-0.78 0.26-0.58 0.48-1.08 1.07-1.45l0.05 0.06c0.32 0.39 0.55 0.67 0.99 0.97l0.11 0.07 1.68-7.95c0.39 0.3 0.6 0.66 0.83 1.04 0.2 0.33 0.4 0.68 0.74 1.01l0.11 0.11 2.29-10.26 1.82 1.82 0.11-0.24c0.12-0.27 0.22-0.49 0.25-0.82 0.22-2.007 0.28-3.43 0.34-5.079 0.03-0.811 0.06-1.648 0.12-2.629 0.39 0.116 0.7 0.264 1 0.407 0.41 0.194 0.8 0.377 1.35 0.484l0.12 0.021-0.92-7.527c0.53-0.004 0.93 0.174 1.36 0.365 0.38 0.172 0.77 0.351 1.29 0.405l0.11 0.009-1.54-11.396c1.95-1.942 3.8-2.908 5.76-3.93 1.26-0.654 2.55-1.33 3.99-2.308 0.89-0.6 1.36-1.191 1.9-1.875 0.26-0.331 0.53-0.673 0.88-1.047l0.1-0.115c1.92-2.092 3.08-3.354 4.05-6.04 0.25-0.714 0.5-1.346 0.74-1.957 0.76-1.933 1.35-3.461 1.56-5.875 0.11-1.414 0.12-2.42 0.13-3.584 0-0.615 0-1.254 0.02-2.013 0-1.48-0.51-2.474-1.06-3.528-0.33-0.629-0.66-1.279-0.93-2.087-0.13-0.394-0.21-0.766-0.29-1.127-0.18-0.874-0.34-1.63-1.12-2.282-1.07-0.897-2.02-1.25-3.13-1.658-0.52-0.189-1.05-0.384-1.63-0.65-0.57-0.257-1-0.607-1.41-0.946-0.66-0.535-1.28-1.04-2.3-1.052-4.07-0.09-6.37 0.094-10.19 0.402l-0.71 0.059c-1.46 0.109-2.55 0.679-3.61 1.23-1 0.527-2.05 1.071-3.42 1.219-1.18 0.118-1.85 0.152-2.98 0.152-1.1 0-1.76-0.541-2.52-1.168-0.41-0.33-0.82-0.673-1.34-0.965-0.24-0.132-0.48-0.258-0.71-0.382-1.43-0.748-2.77-1.454-2.77-3.065v-0.111l-0.11 0.029c-1.01 0.271-1.76 0.07-2.63-0.162-0.4-0.109-0.82-0.222-1.31-0.301-3.28-0.541-5.22-0.765-8.74-0.765h-1.84c-0.15 0-0.25-0.066-0.37-0.141-0.11-0.071-0.23-0.146-0.39-0.166-2.14-0.29-3.66-0.322-5.42-0.359-0.92-0.021-1.874-0.041-3.005-0.1h-0.005-0.004z" transform="matrix(.8 0 0 -.8 229.28 455.9)" fill="#4c443f"/><path d="m97.656 30.266c-1.887 0-3.202 0.255-4.724 0.55-0.629 0.122-1.278 0.248-2.028 0.37-1.352 0.221-2.462 0.323-3.535 0.421-1.439 0.133-2.799 0.258-4.586 0.653-0.512 0.109-0.996 0.138-1.465 0.166-0.975 0.059-1.896 0.113-2.711 0.928-0.345 0.345-0.512 0.733-0.671 1.109-0.191 0.448-0.372 0.873-0.846 1.176-1.062 0.669-1.909 1.106-2.805 1.568-0.595 0.307-1.212 0.624-1.939 1.033-0.388 0.217-0.719 0.441-1.039 0.658-0.773 0.524-1.439 0.976-2.512 1.016-0.785-0.039-1.45-0.058-2.092-0.076-1.236-0.036-2.304-0.067-3.801-0.231-1.978-0.214-3.156-0.955-4.648-1.892-0.359-0.225-0.729-0.457-1.137-0.699-0.221-0.129-0.38-0.318-0.535-0.5-0.242-0.287-0.493-0.584-0.961-0.584-1.023 0-1.746 0.284-2.51 0.586-0.433 0.17-0.88 0.347-1.418 0.49-0.663 0.175-1.255 0.269-1.828 0.361-1.079 0.173-2.098 0.337-3.246 1.026-1.183 0.704-1.846 1.515-2.549 2.373-0.385 0.47-0.784 0.956-1.297 1.468-2.303 2.303-3.175 4.117-4.156 7.078-0.122 0.372-0.258 0.69-0.39 0.997-0.286 0.66-0.532 1.23-0.532 2.091 0 0.464 0.32 0.695 0.629 0.916 0.241 0.173 0.489 0.352 0.602 0.649 0.73 1.831 0.665 3.355 0.595 4.969-0.051 1.202-0.104 2.446 0.167 3.896l0.013 0.068h0.07c1.295 0 1.817 1.166 2.372 2.401 0.551 1.229 1.124 2.5 2.529 2.5 1.87 0 3.056 0.727 4.43 1.568 0.647 0.397 1.318 0.809 2.119 1.182 0.55 0.254 1.03 0.472 1.484 0.678 1.015 0.46 1.891 0.856 3.107 1.464 0.234 0.115 0.464 0.212 0.686 0.305 0.735 0.307 1.369 0.572 1.725 1.34 1.034 2.184 1.216 3.703 1.216 6.088 0 1.045-0.155 1.868-0.304 2.664-0.151 0.804-0.307 1.636-0.307 2.697v0.084h0.084c1.012 0 2.059 0.684 2.059 1.828 0 0.941-0.116 1.684-0.229 2.401-0.113 0.723-0.23 1.469-0.23 2.423v0.086h0.086c2.02 0 2.327 1.902 2.683 4.106 0.15 0.927 0.305 1.885 0.606 2.728 0.416 1.167 0.826 2.117 1.222 3.027 0.629 1.45 1.224 2.81 1.684 4.77l0.021 0.1 0.092-0.04c0.219-0.08 0.393-0.18 0.563-0.28 0.291-0.17 0.543-0.32 0.937-0.32 1.526 0 1.836 1.69 2.135 3.32 0.027 0.15 0.053 0.29 0.08 0.44 0.508 2.61 0.936 4.37 2.615 6.77 0.11 0.16 0.192 0.35 0.27 0.54 0.176 0.43 0.357 0.87 0.873 0.87 0.316 0 0.533-0.16 0.742-0.32 0.195-0.15 0.379-0.29 0.637-0.29 2.144 0 2.578 2.29 2.998 4.5 0.089 0.47 0.18 0.95 0.287 1.41l0.016 0.06h0.068c1.575 0 2.214 1.14 2.955 2.46 0.59 1.04 1.202 2.13 2.365 2.74l0.123 0.06v-0.75l-0.006-0.04c-2.018-4.33-2.805-7.61-3.714-11.41-0.392-1.63-0.796-3.32-1.334-5.26-0.451-1.65-0.884-2.95-1.303-4.22-0.419-1.26-0.852-2.56-1.301-4.2-0.085-0.33-0.133-0.62-0.18-0.9-0.099-0.61-0.184-1.14-0.597-1.74-0.658-0.955-1.561-1.407-2.434-1.845-0.984-0.494-1.914-0.96-2.453-2.102v-0.516c0.621-0.061 1.142-0.135 1.647-0.207 0.924-0.131 1.723-0.246 2.863-0.246h0.086v-12.029c0-1.689 0.81-2.697 1.75-3.863 0.325-0.404 0.661-0.821 0.99-1.295 1.942-2.799 3.47-4.064 6.26-6.104l0.052-0.039-0.023-0.062c-0.341-0.878-0.945-2.045-2.225-2.045-0.698 0-1.216 0.239-1.718 0.468-0.508 0.233-0.99 0.452-1.651 0.452-1.047 0-1.771-0.23-2.609-0.496-0.461-0.146-0.937-0.299-1.506-0.422-0.482-0.102-0.955-0.091-1.412-0.08-0.838 0.018-1.56 0.036-2.059-0.653-0.2-0.277-0.176-0.555-0.146-0.877 0.018-0.194 0.036-0.395 0.008-0.615-0.098-0.739-0.213-1.299-0.334-1.893-0.092-0.449-0.188-0.915-0.28-1.478-0.055-0.362-0.037-0.693-0.021-1.014 0.028-0.55 0.054-1.069-0.297-1.621-0.192-0.301-0.472-0.341-0.771-0.383-0.161-0.022-0.33-0.045-0.495-0.111-0.295-0.117-0.539-0.27-0.775-0.418-0.415-0.26-0.805-0.506-1.398-0.506-0.535 0-0.665 0.489-0.789 0.963-0.056 0.213-0.112 0.433-0.206 0.613-0.161 0.31-0.348 0.571-0.527 0.821-0.364 0.508-0.707 0.987-0.707 1.746 0 0.188-0.003 0.374-0.004 0.556-0.015 1.638-0.029 3.051 1.256 4.178 0.49 0.433 1.087 0.699 1.664 0.955 0.982 0.437 1.83 0.813 1.83 1.891 0 0.322-0.071 0.557-0.146 0.805-0.057 0.185-0.115 0.374-0.147 0.609-3.948-1.448-6.121-4.827-6.121-9.529 0-0.644 0.324-1.025 0.699-1.465 0.238-0.278 0.483-0.566 0.67-0.947 0.213-0.432 0.379-0.827 0.539-1.207 0.388-0.921 0.723-1.718 1.541-2.553 2.769 1.643 4.937 2.359 7.446 3.187 1.332 0.44 2.709 0.895 4.3 1.532 0.539 0.215 1.034 0.366 1.512 0.513 1.018 0.313 1.909 0.594 2.793 1.373 0.008 0.003 0.014 0.006 0.022 0.008-0.002 0.003-0.003 0.005-0.004 0.006 0.057 0.051 0.114 0.098 0.172 0.154-0.137 0.097-0.266 0.179-0.393 0.262-0.298 0.194-0.579 0.378-0.877 0.676l-0.125 0.125 0.934 0.107 0.023-0.015c0.505-0.299 1.189-0.672 1.688-0.946 0.792-0.434 0.792-0.434 0.802-0.488l0.012-0.055-0.043-0.031c-1.262-0.922-2.216-1.815-3.137-2.68-1.389-1.304-2.702-2.536-4.84-3.605-0.868-0.434-1.595-0.469-2.365-0.504-0.414-0.019-0.844-0.039-1.334-0.117-0.889-0.146-1.675-0.261-2.435-0.371-2.159-0.314-3.893-0.566-6.241-1.303l1.754-0.016c-0.043-0.05-0.085-0.102-0.121-0.166l-5.39-5.468 0.019-0.051c0.008-0.02 0.014-0.037 0.022-0.057l-0.08-0.082c0.187-0.472 0.362-0.88 0.531-1.26 0.083-0.285 0.16-0.565 0.234-0.84 0.31-1.142 0.592-2.155 1.305-3.218 0.113-0.363 0.28-0.682 0.639-0.95 1.121-0.84 2.087-0.902 3.546-0.902 0.313 0 0.518 0.137 0.678 0.346 0.232 0.2 0.368 0.52 0.506 0.853 0.117 0.28 0.236 0.568 0.422 0.805l0.082 0.107-0.129 0.03c-0.524 0.12-0.999 0.144-1.457 0.168-0.788 0.04-1.468 0.075-2.189 0.584-0.45 0.319-0.542 0.755-0.649 1.259-0.058 0.274-0.118 0.557-0.24 0.848-0.124 0.29-0.281 0.522-0.434 0.746-0.257 0.379-0.478 0.707-0.478 1.213 0 0.299 0.084 0.528 0.221 0.723 0.277 0.318 0.698 0.529 1.138 0.744 0.351 0.171 0.713 0.348 1.022 0.59 0.099 0.079 0.19 0.163 0.277 0.25 0.326 0.278 0.578 0.595 0.818 0.904 0.169 0.217 0.329 0.422 0.504 0.598 0.279 0.226 0.61 0.386 1.053 0.412 2.082 0.115 3.752 0.016 5.367-0.078 1.612-0.094 3.279-0.191 5.352-0.076 0.48 0.022 0.815 0.225 1.109 0.513 0.301 0.229 0.542 0.536 0.789 0.854 0.165 0.211 0.336 0.426 0.529 0.629 0.146 0.128 0.29 0.26 0.434 0.394 0.679 0.562 1.391 1.098 2.082 1.617 1.176 0.883 2.39 1.795 3.451 2.848 6.466-3.361 11.703-3.567 14.957-3.146 3.18 0.41 5.14 1.482 5.53 1.709l1.86-2.708c-2.05-0.917-12.039-4.674-12.689-4.773l-0.119 0.094v-0.223l0.041-0.027c0.002-0.001 0.003-0.001 0.004-0.002 0.983-0.762 4.363-1.668 7.643-2.543 2.46-0.658 4.79-1.284 5.84-1.779-1.37-0.037-7.39 0.04-12.012 0.199l-0.033-0.164 10.215-3.91c-1.5-0.564-8.708-2.765-10.379-3.069l-0.414-0.076 16.053-3.57c-2.14-0.756-14.986-5.313-16.323-6.129l-0.305-0.186 3.928 0.307c-0.3-0.16-0.54-0.346-0.68-0.572l-0.02-0.041h-2.804zm51.274 5.054l-7.62 0.346c-0.3 0-0.68-0.049-1.05-0.096s-0.76-0.097-1.07-0.097c-1.18 0-1.82 0.5-2.49 1.029-0.57 0.442-1.16 0.898-2.11 1.08-0.38 0.07-0.74 0.189-1.08 0.305-0.53 0.176-1.03 0.343-1.59 0.343-0.36 0-0.64-0.073-0.94-0.15-0.29-0.077-0.59-0.156-0.97-0.156-0.56 0-1 0.038-1.43 0.076-0.42 0.037-0.86 0.076-1.41 0.076h-0.31l0.27 0.158c1.32 0.793 2.49 1.274 3.63 1.739 1.54 0.633 3 1.23 4.63 2.543 0.77 0.625 0.9 1.386 1.04 2.267 0.08 0.437 0.15 0.888 0.31 1.367 0.16 0.502 0.37 0.91 0.58 1.303 0.34 0.668 0.64 1.246 0.64 2.117 0 1.065-0.39 1.795-0.8 2.569-0.26 0.486-0.52 0.99-0.73 1.617l-0.04 0.137 0.14-0.028c0.41-0.08 0.76-0.161 1.11-0.24 0.87-0.199 1.62-0.371 2.7-0.371 0.04 0 0.07 0.023 0.11 0.06 0.02 0.02 0.05 0.041 0.08 0.059l-2.58 5.473c0.73-0.124 1.31-0.343 1.92-0.573 0.45-0.166 0.9-0.337 1.43-0.474l0.73-0.252c0.07 0.026 0.12 0.053 0.19 0.094l-3.18 6.246-0.06 0.125h5.54l-0.09 0.058h0.13l-4.72 3.285 0.04 0.102c0.27-0.022 0.64-0.056 1.08-0.098l4.97-0.629c0.09 0.013 0.15 0.048 0.23 0.088 0 0.002 0.01 0.002 0.01 0.004-0.87 0.873-1.56 1.595-2.22 2.293-0.68 0.719-1.38 1.462-2.29 2.369-0.2 0.196-0.41 0.367-0.62 0.532-0.56 0.446-1.09 0.868-1.09 1.673 0 0.276 0.04 0.495 0.08 0.706 0.04 0.212 0.07 0.413 0.07 0.673v0.192l0.14-0.129c2.52-2.278 4.57-3.512 6.95-4.94 1.27-0.759 2.58-1.542 4.07-2.556 3.56-2.415 4.75-5.161 6.16-9.076 0.24-0.675 0.48-1.263 0.71-1.83 0.6-1.463 1.12-2.726 1.28-4.624 0.16-1.8 0.16-2.902 0.16-4.572v-0.566c0-1.182-0.42-1.942-0.9-2.822-0.22-0.392-0.44-0.797-0.64-1.27-1.89-4.399-5-6.2-9.09-7.551l-0.01-0.004zm-12.75 20.994c-1.47 0-2.55 0.117-3.71 0.241-0.14 0.015-0.29 0.031-0.44 0.047-0.38 0.1-0.75 0.209-1.14 0.322-0.91 0.266-1.86 0.541-2.97 0.756-0.77 0.149-1.44 0.197-2.09 0.244-1.06 0.076-2.06 0.146-3.29 0.68-1.35 0.598-2.14 1.393-2.99 2.236-0.52 0.523-1.06 1.064-1.77 1.601-0.37 0.276-0.72 0.501-1.06 0.717-0.86 0.548-1.61 1.023-2.18 2.069l-0.05 0.087 0.1 0.034c0.99 0.329 1.58 0.562 2.43 1.064l0.02 0.012h0.5c-0.45-0.299-0.9-0.631-1.42-0.971 0.17-0.105 0.33-0.198 0.49-0.287-0.01-0.01-0.02-0.019-0.03-0.029 0.21-0.116 0.49-0.253 0.82-0.408 0.11-0.062 0.23-0.124 0.35-0.194 0.01 0.009 0.01 0.015 0.02 0.024 1.25-0.571 3.12-1.347 5.31-2.256 3.93-1.637 8.78-3.653 12.95-5.666 0.09-0.075 0.19-0.154 0.29-0.235-0.01-0.008-0.02-0.018-0.03-0.027-0.05-0.038-0.08-0.061-0.11-0.061zm-39.344 5.207l-9.186 3.163v0.13l4.288 3.961-7.502 0.02c0.746 1.513 1.587 2.91 3.291 2.91 1.091 0 1.666-0.459 2.757-0.459 2.01 0 3.752 1.512 3.752 3.522v1.683c0 0.132-0.034 0.249-0.088 0.356 2.202 2.382 4.389 3.85 4.389 4.818v3.676h-1.99c-6.759 0-10.242 3.81-15.008 8.576 0.288-1.588-0.075-2.68 0.613-4.135 0.862-1.818 2.91-1.896 3.446-3.83l-4.059 2.451c1.263-1.914 2.241-2.948 3.982-4.441-0.114 0-0.172-0.152-0.306-0.152-1.704 0-2.662 0.784-3.983 1.837 1.302-2.45 2.95-3.312 5.362-4.748-0.115 0-0.173-0.152-0.307-0.152-1.934 0-3.082 0.383-4.748 1.379 1.666-1.665 3.063-2.222 5.207-3.217-0.842-0.325-1.227-1.086-2.146-1.086-1.474 0-2.313 0.717-2.313 0.717 0.381-0.381 0.841-0.875 1.352-1.414-1.435 0.731-3.504 2.82-4.41 4.266-0.536 0.861-1.379 1.263-1.379 2.296v13.325c-1.666 0.134-2.623 0-4.288 0 0.785 1.971 3.005 1.682 4.288 3.367 1.014 1.32 0.746 2.53 1.224 4.13 1.034 3.43 1.647 5.42 2.604 8.89 0.938 3.4 1.589 5.34 2.603 8.73 0.479 1.64 0.306 2.85 1.225 4.28 1.149 1.78 3.062 2.4 3.062 4.52 0 0.38-0.056 0.63-0.152 1-0.823-1.04-1.013-1.96-2.143-2.61v0.61l5.512 15.01c0.842-0.44 1.11-1.37 2.067-1.37 0.919 0 0.919 1.53 1.837 1.53 1.072 0 1.38-1.23 2.452-1.23 1.263 0 1.646 1.38 2.909 1.38 1.19 0 1.57-1.38 2.76-1.38 0.93 0 1.2 1.07 2.14 1.07 1.03 0 1.34-1.22 2.37-1.22 0.62 0 0.83 0.55 1.38 0.76 1.15-2.48 1.38-4.13 2.61-6.58 1.13-2.29 2.04-3.63 2.78-5.83-0.03 0.05-0.06 0.1-0.09 0.15l-0.19 0.31 0.23-2.79c0-0.02 0.07-0.29 0.18-0.72-1.12 1.28-1.38 2.44-2.61 3.67-0.13-1.43 0.82-2.29 0.46-3.67-0.84 1.07-1.15 1.84-1.99 2.91l-0.15-1.23c0.8-2.01 2.12-2.7 3.36-4.44 1.04-1.45 0.71-2.74 1.23-4.44 1.02-3.35 1.7-5.19 2.6-8.57 0.91-3.43 1.5-5.36 2.61-8.73 0.53-1.63 0.44-3.09 1.48-4.44 1.28-1.689 3.25-1.25 4.03-3.222-1.67 0-2.62 0.134-4.29 0v-13.322c0-1.34-1.81-3.279-3.67-4.512 0.01 0.02 0.03 0.042 0.04 0.061-1.42-0.364-2.06-0.955-3.54-0.955-0.92 0-1.45 0.286-2.3 0.611 2.09 0.957 3.45 1.455 5.06 3.063-1.8-0.708-2.95-1.262-4.9-1.071 2.41 1.435 4.06 2.297 5.36 4.746-1.4-1.11-2.49-1.856-4.29-1.683 1.68 1.454 2.79 2.316 3.83 4.287l-3.98-2.297c0.8 1.876 2.73 1.952 3.52 3.828 0.61 1.494 0.29 2.546 0.61 4.135-4.76-4.767-8.25-8.574-15.01-8.574h-1.99v-3.983c1.01-1.201 3.44-3.112 4.77-4.353-0.65-0.993-0.04-2.445-0.04-2.445s-0.16-2.872 3.75-3.108c1.08-0.066 1.66 0.459 2.75 0.459 1.71 0 2.68-1.34 3.29-2.91h-8.26c-1.38-2.297-3.72-1.953-6.13-3.063 0.31-0.134 0.5-0.306 0.84-0.306 2.22 0 3.43 1.551 5.59 1.072-1.4-1.397-2.54-1.837-4.29-2.756l1.08-0.154c1.01 0.459 1.66 0.69 2.75 0.92v-0.461c-0.61-0.613-1.11-1.243-1.66-1.731l-2.35-0.795h-5.944z" transform="matrix(.8 0 0 -.8 229.28 455.9)"/><path d="m100.3 89.334c-1.49 0-2.477 0.367-3.622 0.789-0.541 0.199-1.099 0.405-1.764 0.594l0.024 0.166c0.44 0 0.691 0.099 1.029 0.295l0.06 0.035 0.047-0.053c0.634-0.743 1.384-0.889 2.463-0.889 0.771 0 1.323 0.266 1.843 0.889l0.06 0.059 0.06-0.045c0.77-0.547 1.44-0.75 2.48-0.75 0.37 0 0.63 0.144 0.91 0.297 0.29 0.155 0.59 0.316 1 0.316 0.23 0 0.39-0.084 0.55-0.164 0.12-0.062 0.23-0.121 0.38-0.144v-0.168c-0.94-0.125-1.69-0.372-2.41-0.612-0.96-0.316-1.86-0.615-3.11-0.615zm0.2 5.578l-0.06 0.195c-0.04 0.158-0.08 0.319-0.12 0.481-0.368 1.463-0.751 2.976-2.168 2.976-0.908 0-1.175-0.813-1.484-1.755-0.105-0.319-0.213-0.65-0.352-0.952l-0.097-0.214-0.063 0.228c-0.193 0.725-0.492 1.221-0.81 1.744-0.185 0.303-0.374 0.616-0.561 0.996-0.043 0.087-0.085 0.176-0.127 0.264-0.271 0.573-0.506 1.068-1.099 1.068-0.832 0-0.984-0.783-1.163-1.689-0.089-0.453-0.181-0.92-0.367-1.324l-0.111-0.241-0.051 0.26c-0.06 0.313-0.113 0.596-0.162 0.863-0.171 0.929-0.305 1.663-0.601 2.728l-0.006 0.02 0.004 0.02c0.147 0.82 0.292 1.51 0.431 2.17 0.232 1.1 0.452 2.14 0.621 3.57 0.061 0.49 0.041 0.88 0.02 1.28-0.016 0.32-0.033 0.64-0.012 1.01-3.511-1.81-5.365-5.13-6.717-8.15l-0.002-0.01-0.076 0.04-0.078 0.03v0.01c0.364 0.81-0.152 1.61-0.791 2.11-0.178-0.63-0.441-1.08-0.717-1.55-0.215-0.37-0.438-0.75-0.633-1.246l-0.164 0.041c0.301 2.325 0.761 4.005 1.246 5.785 0.296 1.09 0.601 2.21 0.901 3.56 0.179 0.82 0.225 1.54 0.269 2.23 0.075 1.14 0.145 2.22 0.811 3.46 1.207 2.25 1.759 3.81 2.525 5.97 0.12 0.34 0.246 0.69 0.379 1.07 0.231 0.65 0.48 1.18 0.721 1.7 0.407 0.87 0.79 1.69 0.959 2.87l0.168 0.01c0.278-1.45 0.757-2.26 1.48-3.48l0.17-0.28h0.506c1.577 3.84 1.916 6.38 2.115 10.94l0.014 0.3 0.147-0.26c0.326-0.58 0.622-0.96 0.966-1.4 0.165-0.21 0.334-0.43 0.52-0.68 1.135 0.47 1.501 1.43 1.961 2.64l0.152 0.4 0.08-0.21c0.133-0.34 0.228-0.72 0.319-1.08 0.257-1.03 0.478-1.92 1.437-1.92 0.78 0 1 0.68 1.25 1.47 0.13 0.43 0.28 0.87 0.52 1.24l0.08 0.12 0.07-0.12c0.1-0.21 0.2-0.4 0.29-0.59 0.41-0.83 0.73-1.49 1.6-1.95 0.15 0.19 0.29 0.36 0.42 0.52 0.41 0.48 0.75 0.89 1.06 1.55l0.16-0.03c0.13-2.06 0.46-3.49 0.84-5.14 0.17-0.77 0.35-1.57 0.53-2.5 0.06-0.32 0.09-0.67 0.11-1 0.08-1.03 0.15-2 1.03-2 0.71 0 0.94 0.6 1.19 1.3 0.12 0.32 0.25 0.66 0.43 0.96l0.09 0.15 0.26-0.67c3.88-9.71 6.22-15.57 7.61-26.16l-0.16-0.031c-0.35 1.298-0.62 2.331-1.71 3.101-0.04-0.14-0.07-0.28-0.1-0.4-0.17-0.64-0.3-1.14-0.64-1.801l-0.09-0.181-0.06 0.195c-0.52 1.557-1.24 2.487-2.09 3.557-0.36 0.45-0.73 0.91-1.12 1.47l-0.05 0.08c-1.2 1.73-1.93 2.79-3.59 3.93 0.06-0.41 0.13-0.8 0.19-1.18 0.4-2.47 0.7-4.26 0.7-7.07 0-1.373-0.1-2.234-0.62-3.4l-0.13-0.278-0.04 0.379c-0.15 1.229-0.34 2.758-1.52 2.758-0.5 0-0.66-0.444-0.86-0.959-0.06-0.176-0.13-0.356-0.21-0.523-0.21-0.426-0.41-0.766-0.61-1.096-0.27-0.459-0.52-0.894-0.77-1.502l-0.09-0.242-0.07 0.252c-0.3 1.199-0.68 2.693-1.98 2.693-0.99 0-1.25-0.854-1.56-1.844-0.16-0.506-0.32-1.03-0.59-1.484l-0.1-0.172z" transform="matrix(.8 0 0 -.8 229.28 455.9)" fill="#ab0634"/><path d="m316.1 371.81-0.049 0.12658-6.3512-1.8321-6.352 1.8321-0.0434-0.12881c0.67183-0.26065 1.0721-0.62452 1.5356-1.046 0.2345-0.2131 0.4768-0.43342 0.77585-0.66012 0.21198-0.15885 0.42255-0.2729 0.62618-0.38335 0.38862-0.2103 0.72412-0.39222 0.94694-0.8184 0.22061-0.42368 0.21226-0.79392 0.20278-1.2226-0.006-0.26202-0.012-0.53327 0.0353-0.83982 0.1452-0.91077 0.2893-1.6302 0.42867-2.3262 0.13935-0.69685 0.28346-1.4174 0.42895-2.3292 0.034-0.20473 0.0634-0.40448 0.0921-0.59893 0.1761-1.1967 0.32797-2.2304 1.4056-2.9982l0.0668-0.0478 0.0345 0.0748c1.1934 2.5921 1.4621 4.2551 1.9069 7.0102l0.0579 0.35774c0.0729 0.44593 0.0818 0.82898 0.0907 1.1995 0.0131 0.5622 0.0256 1.093 0.274 1.7275 0.13605 0.35358 0.41977 0.48125 0.74775 0.62898 0.19362 0.0871 0.39335 0.1772 0.5789 0.32157 0.3252 0.25425 0.59225 0.49238 0.85012 0.72273 0.5202 0.46427 0.96948 0.86512 1.71 1.2298"/><path d="m97.232 30.572l0.305 0.186c1.337 0.816 14.183 5.373 16.323 6.129l-16.053 3.572 0.416 0.074c1.67 0.304 8.877 2.506 10.377 3.071l-10.215 3.908 0.033 0.164c4.622-0.16 10.642-0.236 12.012-0.199-1.05 0.495-3.38 1.121-5.84 1.779-3.28 0.875-6.66 1.781-7.643 2.543-0.001 0-0.002 0-0.004 0.002l-0.041 0.029v0.221l0.119-0.094c0.65 0.099 10.639 3.856 12.689 4.773l-1.86 2.708c-0.39-0.227-2.35-1.299-5.53-1.709-3.254-0.421-8.491-0.215-14.957 3.146-1.061-1.053-2.275-1.964-3.451-2.846-0.691-0.519-1.403-1.057-2.082-1.619-0.038-0.031-0.078-0.06-0.115-0.092-0.116-0.095-0.219-0.198-0.319-0.302-0.193-0.203-0.364-0.418-0.529-0.629-0.247-0.318-0.488-0.625-0.789-0.854-0.273-0.208-0.593-0.354-1.016-0.379-2.081-0.115-3.752-0.016-5.369 0.078-1.611 0.094-3.277 0.191-5.349 0.077-0.503-0.03-0.847-0.245-1.147-0.547-0.175-0.176-0.335-0.381-0.504-0.598-0.24-0.309-0.492-0.626-0.818-0.904-0.03-0.026-0.057-0.052-0.088-0.076-0.353-0.283-0.754-0.48-1.142-0.67-0.5-0.245-0.951-0.472-1.207-0.836-0.137-0.195-0.221-0.426-0.221-0.725 0-0.506 0.221-0.833 0.478-1.211 0.153-0.224 0.31-0.458 0.434-0.748 0.122-0.291 0.182-0.574 0.24-0.848 0.107-0.504 0.199-0.94 0.649-1.259 0.721-0.509 1.401-0.544 2.189-0.584 0.458-0.024 0.933-0.048 1.457-0.168l0.129-0.03-0.082-0.105c-0.186-0.237-0.305-0.527-0.422-0.807-0.138-0.333-0.274-0.652-0.506-0.853-0.149-0.129-0.337-0.211-0.594-0.211-0.514 0-0.872 0.157-1.25 0.322-0.252 0.11-0.512 0.224-0.834 0.293-0.196 0.041-0.39 0.051-0.578 0.061-0.432 0.022-0.842 0.043-1.156 0.427-0.171 0.208-0.315 0.411-0.451 0.614-0.713 1.063-0.995 2.076-1.305 3.218-0.074 0.275-0.151 0.557-0.234 0.842-0.125 0.428-0.268 0.869-0.451 1.34-0.008 0.02-0.014 0.039-0.022 0.059l-0.021 0.05 5.39 5.469c0.036 0.064 0.078 0.116 0.121 0.166 0.366 0.426 0.966 0.389 1.549 0.35 0.179-0.011 0.363-0.024 0.543-0.024h9.311l9.623 8.401 0.037 0.033 0.189-0.064 9.184-3.163h5.946l2.35 0.795 7.64 2.584 0.03-0.033c1.11-1.001 2.03-2.037 2.91-3.039 2.19-2.477 4.09-4.618 7.76-4.902 1.3-0.098 2.35-0.09 3.36-0.082 0.98 0.006 1.98 0.014 3.23-0.071 0.73-0.047 1.37-0.108 1.97-0.171 0.15-0.016 0.3-0.032 0.44-0.047 1.16-0.124 2.24-0.241 3.71-0.241 0.03 0 0.06 0.023 0.11 0.061l0.03 0.027c-0.1 0.081-0.2 0.158-0.29 0.233-0.08 0.061-0.15 0.122-0.22 0.179-0.72 0.578-1.24 0.995-2.18 1.551l-0.08 0.047 0.05 0.076c0.25 0.346 0.49 0.669 0.73 0.983 1.11 1.454 2.07 2.711 2.07 4.875 0 3.627-1.14 6.15-3.7 8.181-0.21 0.162-0.39 0.333-0.57 0.496-0.51 0.475-0.96 0.885-1.7 0.885-0.29 0-0.52-0.294-0.62-0.586-0.08-0.255-0.1-0.616 0.14-0.793 5.02-3.765 4.43-7.955 3.94-9.582-0.38-1.275-1.03-2.187-1.38-2.209-1.54-0.096-2.64 0.353-3.45 1.412-0.23 0.317-0.2 0.644-0.17 0.989 0.01 0.187 0.03 0.381 0 0.582-0.11 0.827-0.21 1.479-0.3 2.131-0.1 0.66-0.19 1.32-0.31 2.158-0.03 0.196-0.03 0.385-0.04 0.568-0.01 0.479-0.03 0.892-0.39 1.217-0.6 0.545-1.25 0.532-2.01 0.517-0.42-0.008-0.85-0.016-1.32 0.075-0.62 0.119-1.14 0.283-1.63 0.441-0.77 0.245-1.49 0.477-2.49 0.477-0.66 0-1.14-0.221-1.65-0.453-0.5-0.23-1.02-0.467-1.72-0.467-1.25 0-2 1.464-2.34 2.338l-0.03 0.066 0.06 0.039c3.11 1.898 5.42 4.591 6.52 6.027 1.55 2.034 2.6 4.017 2.6 4.938v12.029h0.37c1.61-0.002 2.68-0.003 4.2 0.576-0.18 0.397-1.19 2.29-4.79 4.48-0.85 0.51-3.01 8.21-5.34 16.74-0.45 1.63-0.84 3.05-1.12 4.04-0.09 0.32-1.44 5.42-1.94 7.32-0.11 0.43-0.18 0.7-0.18 0.72l-0.23 2.79 0.19-0.31c0.03-0.05 0.06-0.1 0.09-0.15 0.5-0.85 1-1.81 1.49-2.75 1.22-2.35 2.48-4.77 3.53-4.97 0.27-0.05 0.9 0.19 1.27 0.33 0.36 0.14 0.41 0.16 0.47 0.1l0.03-0.04-0.01-0.05c-0.24-0.59 0.41-5.14 1.83-6.01 0.45-0.27 0.94-0.11 1.45 0.47l0.04 0.04 0.04-0.01c0.07-0.01 0.07-0.01 0.37-0.74 0.64-1.57 2.35-5.72 3.45-5.83 0.16-0.01 0.31 0.08 0.44 0.27l0.04 0.05 0.06-0.01c0.09-0.02 0.1-0.02 0.51-2.42 0.18-1.07 0.36-2.17 0.49-2.76 0.23-1.04 1.27-1.8 2.48-1.8 0.08 0 0.08-0.01 0.11-0.31 0.49-4.82 1.55-6.594 2.35-7.238 0.38-0.306 0.8-0.435 1.25-0.383l0.09 0.01v-0.092c0.02-0.47 0.03-0.87 0.04-1.248 0.02-0.738 0.03-1.377 0.12-2.27 0.21-2.172 0.89-3.248 2.06-3.291l0.08-0.004v-0.08c0-0.926-0.12-1.65-0.23-2.349-0.11-0.693-0.23-1.411-0.23-2.323 0-1.144 1.13-1.828 2.21-1.828h0.1l-1.39-10.646c0.26-0.987 0.87-1.499 1.57-2.09 0.28-0.234 0.57-0.477 0.85-0.766 0.76-0.758 1.35-1.386 1.92-1.994 0.57-0.606 1.16-1.233 1.91-1.988l0.17-0.17-0.24 0.025c-1.51 0.161-3.5 0.367-4.85 0.496-0.44 0.042-0.82 0.076-1.08 0.098-0.08 0.006-0.15 0.011-0.21 0.016l0.17-0.12 4.72-3.285h-5.79l3.23-6.425-0.17 0.033c-0.19 0.035-0.36 0.077-0.53 0.121-0.53 0.137-0.98 0.308-1.43 0.474-0.61 0.23-1.19 0.449-1.92 0.573-0.09 0.013-0.17 0.027-0.25 0.039l2.61-5.528-0.17 0.034c-0.41 0.079-0.76 0.161-1.1 0.24-0.87 0.199-1.62 0.371-2.71 0.371-0.04 0-0.07-0.023-0.11-0.061-0.03-0.021-0.06-0.046-0.09-0.064 0.2-0.576 0.45-1.05 0.69-1.508 0.42-0.792 0.82-1.539 0.82-2.646 0-1.156-0.4-1.943-0.83-2.774-0.25-0.489-0.5-0.995-0.71-1.617-0.09-0.28-0.16-0.557-0.23-0.824-0.23-0.9-0.43-1.678-1.34-2.135-0.43-0.214-0.83-0.41-1.21-0.596-1.53-0.75-2.73-1.343-4.45-2.312-0.28-0.155-0.62-0.224-0.94-0.289-0.62-0.129-1.01-0.234-1.01-0.709 0-0.755-0.67-0.995-1.32-1.229-0.3-0.106-0.61-0.217-0.86-0.375-0.7-0.438-1.24-0.835-1.76-1.22-0.52-0.387-1.06-0.789-1.77-1.231-0.25-0.154-0.5-0.285-0.75-0.414-0.8-0.415-1.49-0.775-1.66-1.672l-0.01-0.064-17.63-1.381-3.928-0.309zm56.208 9.131c-0.93 0-1.46 0.504-2.03 1.037-0.3 0.28-0.61 0.568-1 0.813-0.63 0.398-1.17 0.748-1.69 1.076-1.18 0.757-2.2 1.411-3.67 2.293-2.98 1.774-5.33 3.175-6.28 6.779l-0.05 0.203 4.88-2.955c0.15 0.486 0.11 0.942 0.07 1.383-0.05 0.568-0.11 1.154 0.28 1.752l0.06 0.096 3.31-3.756c0.01 1.494-1.06 4.014-1.08 4.041l-0.12 0.277 4.71-3.336-2.75 5.182 3.49-2.276-5.55 9.188 0.29-0.174c0.27-0.157 0.51-0.302 0.73-0.437 1.27-0.771 1.99-1.208 3.58-1.676l-3.54 8.773 0.2-0.097c1.59-0.789 2.34-1.829 3.22-3.034 0.33-0.457 0.68-0.93 1.09-1.429 0.57-0.682 1.16-1.171 1.72-1.643 0.86-0.723 1.68-1.407 2.28-2.664 0.7-1.47 0.77-2.711 0.85-4.025 0.04-0.709 0.09-1.442 0.23-2.276 0.13-0.832 0.32-1.512 0.51-2.17 0.29-1.007 0.56-1.958 0.56-3.281 0-1.343-0.5-2.241-1.03-3.193-0.28-0.506-0.57-1.029-0.82-1.66-0.04-0.106-0.08-0.212-0.12-0.319-0.47-1.225-0.97-2.492-2.33-2.492zm-95.754 0.057l-0.04 0.002c-0.803 0.02-1.477 0.025-2.13 0.031-1.247 0.011-2.323 0.02-3.844 0.121-0.131 0.009-0.26 0.016-0.387 0.024-1.303 0.076-2.427 0.143-3.199 1.238-0.471 0.663-0.74 1.265-1 1.847-0.258 0.579-0.526 1.179-0.992 1.827-0.72 0.992-1.291 1.776-1.865 2.564-0.556 0.763-1.112 1.53-1.809 2.49-0.18 0.253-0.386 0.459-0.582 0.658-0.418 0.424-0.813 0.824-0.813 1.536 0 1.531 0.212 2.597 0.455 3.832 0.104 0.524 0.211 1.066 0.313 1.693 0.101 0.608 0.064 1.153 0.027 1.68-0.058 0.843-0.112 1.639 0.446 2.488 0.462 0.695 1.108 0.875 1.793 1.064 0.426 0.118 0.866 0.241 1.295 0.495 2.415 1.447 4.422 2.424 6.363 3.371 1.937 0.944 3.939 1.922 6.347 3.365l0.106-0.131-6.604-7.053h0.245l5.955 2.901 0.099-0.135-6.726-7.174 6.191 0.885 0.045-0.164c-2.384-0.951-4.054-1.881-5.822-2.865-1.065-0.593-2.168-1.206-3.514-1.879-0.612-0.306-1.197-0.504-1.764-0.696-1.147-0.388-2.139-0.724-2.908-1.818 1.666-1.508 2.425-2.946 3.303-4.605 0.452-0.856 0.921-1.741 1.557-2.713 0.242-0.376 0.383-0.746 0.519-1.106 0.222-0.586 0.413-1.092 0.986-1.471 0.38-0.245 0.731-0.207 1.137-0.162 0.256 0.029 0.519 0.059 0.819 0.022 0.318-0.043 0.608-0.083 0.88-0.121 0.94-0.131 1.68-0.236 2.77-0.34l5.135 0.803-0.157-0.178c-0.467-0.527-0.91-0.864-1.339-1.191h-0.002c-0.404-0.309-0.822-0.627-1.264-1.106l-0.025-0.029zm51.584 32.664c-1.72 0-2.26 1.78-2.91 3.369-0.09 0.21-0.42 0.566-0.9 1.006-1.33 1.241-3.76 3.152-4.77 4.353v3.983h1.99c6.76 0 10.25 3.807 15.01 8.574-0.32-1.589 0-2.641-0.61-4.135-0.79-1.876-2.72-1.952-3.52-3.828l3.98 2.297c-1.04-1.971-2.15-2.833-3.83-4.287 1.8-0.173 2.89 0.573 4.29 1.683-1.3-2.449-2.95-3.311-5.36-4.746 1.95-0.191 3.1 0.363 4.9 1.071-1.61-1.608-2.97-2.106-5.06-3.063 0.85-0.325 1.38-0.611 2.3-0.611 1.48 0 2.12 0.591 3.54 0.955-0.01-0.02-0.03-0.041-0.04-0.061-1.37-1.986-6.87-6.56-9.01-6.56zm-19.309 0.166c-1.95 0-4.473 2.546-6.322 4.496-0.511 0.539-0.971 1.033-1.352 1.414 0 0 0.839-0.717 2.313-0.717 0.919 0 1.304 0.761 2.146 1.086-2.144 0.995-3.541 1.552-5.207 3.217 1.666-0.996 2.814-1.379 4.748-1.379 0.134 0 0.192 0.152 0.307 0.152-2.412 1.436-4.06 2.298-5.362 4.748 1.321-1.053 2.279-1.837 3.983-1.837 0.134 0 0.192 0.152 0.306 0.152-1.741 1.493-2.719 2.527-3.982 4.441l4.059-2.451c-0.536 1.934-2.584 2.012-3.446 3.83-0.689 1.455-0.325 2.547-0.613 4.135 4.766-4.766 8.249-8.576 15.008-8.576h1.99v-3.676c0-0.968-2.187-2.434-4.389-4.816-0.019-0.021-0.037-0.042-0.056-0.063-1.52-1.656-1.853-4.156-4.131-4.156z" transform="matrix(.8 0 0 -.8 229.28 455.9)" fill="#908c89"/><path d="m74.631 61.904c-0.029 0.918-0.232 1.397 0.215 2.274 0.669 1.302 2.047 1.379 3.521 1.379 0.478 0 0.786-0.173 1.227-0.307-0.403-0.306-0.651-0.498-1.073-0.766 0.173-0.114 0.224-0.293 0.383-0.459 0.012-0.011 0.749 0.576 1.453 0.766 0.309 0.083 0.524-0.232 0.709-0.531l-6.435-2.356zm49.939 0.075l-6.63 2.792c0.67 0.827 1.5 1.295 2.62 1.295 0.85 0 1.38-0.116 2.15-0.461-0.4-0.306-0.65-0.497-1.07-0.765 0-0.001 0.37-0.479 0.38-0.459 0.03 0.047 0.67 0.609 1.45 0.765 0.97 0.192 1.05-2.23 1.1-3.167z" transform="matrix(.8 0 0 -.8 229.28 455.9)" fill="#77b5e6"/><path d="m72.395 60.963c0.535 1.378 0.344 2.372 1.072 3.674 0.996 1.761 2.564 2.451 4.594 2.451 2.045 0 3.385-0.783 4.742-2.291 0.001-0.003 0.002-0.005 0.004-0.006-0.008-0.002-0.014-0.005-0.022-0.008l0.002-0.002c-0.634-0.247-0.908-0.543-1.551-0.789-0.055 0.078-0.111 0.173-0.17 0.268-0.185 0.299-0.4 0.614-0.709 0.531-0.704-0.19-1.442-0.777-1.453-0.766-0.159 0.166-0.21 0.345-0.383 0.459 0.422 0.268 0.67 0.46 1.073 0.766-0.441 0.134-0.749 0.307-1.227 0.307-1.474 0-2.852-0.077-3.521-1.379-0.447-0.877-0.244-1.356-0.215-2.274 0.002-0.064 0.004-0.125 0.004-0.195 0-0.022-2.24-0.746-2.24-0.746zm54.105 0.164c-0.02 0.021-1.9 0.552-1.91 0.582 0 0.063-0.01 0.158-0.02 0.27-0.05 0.937-0.13 3.359-1.1 3.167-0.78-0.156-1.42-0.718-1.45-0.765-0.01-0.02-0.38 0.458-0.38 0.459 0.42 0.268 0.67 0.459 1.07 0.765-0.77 0.345-1.3 0.461-2.15 0.461-1.12 0-1.95-0.468-2.62-1.295-0.06-0.069-0.12-0.136-0.17-0.21-0.01-0.009-0.01-0.017-0.02-0.026-0.12 0.07-0.24 0.132-0.35 0.194-0.28 0.152-0.53 0.29-0.79 0.437-0.16 0.089-0.32 0.181-0.49 0.287 0.52 0.34 0.97 0.672 1.42 0.971 0.99 0.675 1.92 1.174 3.33 1.174 3.39 0 5.15-3.121 5.63-6.471zm-26.521 5.531c-2.834 0-4.289 1.187-7.045 1.838 0.708 0.708 0.977 1.686 1.992 1.686h9.804c1.01 0 0.84-0.784 1.54-1.493-2.39-1.263-3.57-2.031-6.291-2.031zm2.511 24.656c-1.01 0-1.91 0.745-1.91 1.76 0 1.838 1.17 2.662 1.84 4.365 0.67-1.703 1.83-2.527 1.83-4.365 0-0.977-0.78-1.76-1.76-1.76zm-4.183 0.446c-0.843 0-1.762 0.383-1.762 1.224v2.145c0.995 0.766 1.378 1.55 1.684 2.756 0.67-1.704 1.841-2.528 1.841-4.365 0-0.977-0.787-1.76-1.763-1.76zm8.423 0.152c-0.54 0-0.9 0.153-1.3 0.459v2.451c0 1.838 1.53 2.526 1.99 4.287 0.27-1.358 0.57-2.144 1.22-3.369v-3.217c-0.76-0.19-1.13-0.611-1.91-0.611zm-12.812 0.014c-0.785 0-1.206 0.307-1.914 0.613v1.684c0 1.914 0.784 2.891 1.225 4.748 0.65-1.646 1.99-2.354 1.99-4.135v-2.891c-0.498 0.076-0.784-0.019-1.301-0.019zm-4.059 0.92c-2.277 0-4.287 1.702-4.287 3.98 0 4.464 2.22 6.964 5.36 10.104l-0.92-6.66c0.153-1.932 1.072-2.888 1.072-4.821v-1.992c-0.402-0.325-0.688-0.611-1.225-0.611zm20.771 0.138c-0.63 0-1.22 0.439-1.22 1.071v1.379c0 1.971 1.07 3.005 1.07 4.976 0 2.62-0.5 4.06-0.92 6.66 2.87-3.41 5.36-5.65 5.36-10.105 0-2.278-2.01-3.981-4.29-3.981zm-17.913 30.776c-1.379 4.14-1.99 6.61-1.99 10.95 0 1.5 0.492 3.3 1.99 3.3h1.379c0.422 0 0.707-0.27 0.918-0.62l-2.297-13.63zm16.073 0l-2.29 13.94c0.34 0.13 0.53 0.31 0.92 0.31h1.84c0.89-1.08 1.53-1.88 1.53-3.3 0-4.34-0.16-7-2-10.95zm-7.96 8.73c-0.38 1.44-1.529 2.03-1.529 3.52v2.44c0.899-0.02 1.419 0.17 2.299 0.01 1.03-0.17 0.75-1.55 0.77-2.6 0.03-1.43-1.02-2.05-1.54-3.37zm-3.826 0.16c-0.44 0.97-1.377 1.35-1.377 2.45 0 1.34 0.019 2.27 0.766 3.36h2.295v-2.6c0-1.42-0.919-2.05-1.684-3.21zm7.506 0c-0.54 1.14-1.53 1.62-1.53 2.9v2.9c0.46-0.06 0.74 0.01 1.22 0.01 1.46 0 1.69-1.91 1.69-3.36 0-1.1-0.79-1.55-1.38-2.45z" transform="matrix(.8 0 0 -.8 229.28 455.9)" fill="#fff"/></g></g></svg>
