<?xml version="1.0" encoding="utf-8"?>
<svg xmlns="http://www.w3.org/2000/svg" version="1.1" id="Layer_1" x="0" y="0" viewBox="0 0 206.3 198.5" style="enable-background:new 0 0 206.3 198.5">
  <style>.st0{fill:#e03a3e}.st1{fill:#fff}</style>
  <path class="st0" d="M158.3 171.3c4.4 0 7.8 3.5 7.8 8s-3.5 8-7.9 8a7.9 7.9 0 0 1-7.9-8 8 8 0 0 1 8-8zm0 1.3c-3.5 0-6.4 3-6.4 6.7 0 3.8 2.9 6.8 6.4 6.8 3.5 0 6.4-3 6.4-6.7 0-3.8-2.8-6.8-6.4-6.8zm-1.5 11.3h-1.4V175l2.5-.2a5 5 0 0 1 2.8.7c.5.4.8 1 .8 1.8 0 1.2-.8 1.9-1.7 2.2v.1c.8.1 1.3.9 1.5 2.2.2 1.4.4 1.9.6 2.2h-1.5c-.2-.3-.4-1.1-.6-2.3-.2-1.1-.8-1.6-1.9-1.6h-1l-.1 3.8zm0-4.9h1c1.2 0 2.2-.4 2.2-1.5 0-.8-.6-1.6-2.2-1.6l-1 .1v3z"/>
  <path class="st1" d="M192 28.5C178.2 10.1 156.2 0 130 0 76.2 0 19.7 43.7 4.1 97.4c-8 27.5-4.4 53.3 10.2 72.6 13.8 18.4 35.8 28.5 62 28.5 53.8 0 110.3-43.7 125.9-97.4 7.9-27.5 4.3-53.3-10.2-72.6z"/>
  <path d="m67.8 63.1.2-.1.5-.1 30.9-5 .8-.1h.1l.1.1.7.5 4.3 3.1.4-2.8.2-1.5v-.3h.3l1.5-.2 84.3-13.4a61 61 0 0 0-29.6-29.7 82.4 82.4 0 0 0-48.1-5.7c-35.1 5.6-69.4 29.4-89.6 62L60 64.2l2.6-.4.5-.1-.1.5-.3 2.6-.1.6 4.8-3.9.4-.4z" style="fill:#004785"/>
  <path class="st0" d="m16.8 84.5 35.8-5.7.5-.1-.1.5L51.6 91v.3h-.3l-22.5 3.8-1 7.7L47 99.6l.5-.1-.1.5-1.5 12.2v.3h-.3l-19.4 3.3-1.1 8.7 22.3-3.8.5-.1-.1.5-1.5 12.2v.3H46l-37.1 6c.9 4.6 2.2 9 3.9 13.2l99.2-15.9.9-.1-.6.7c-1 1.2-1.8 2.5-2.4 3.8l-.1.2h-.2l-95 15.2c.8 1.7 1.7 3.3 2.7 5l90.7-14.5.4-.1v.4c0 1.1.3 2.2.8 3.2l.2.4-.5.1-89 14.3c1.2 1.7 2.5 3.3 3.8 4.8l90.6-14.6h.2l1.3.5c4.9 1.4 11.5.1 18.3-3.7 7.1-3.9 12.1-9.8 13-15.4l.2-1.2.5 1.1 2.1 4.9c3.3 6-1.3 14.4-10.7 19.6-9.4 5.2-19 4.7-22.3-1.2l-.5-.7-89.1 14.3a63.5 63.5 0 0 0 27.5 15.2 87.1 87.1 0 0 0 36.9 1.5 127 127 0 0 0 59.9-28.1c17.4-14.4 31.3-33 39.1-52.4l-28.9 4.6-.5.1.1-.5 6.5-52.5v-.3h.3l21.7-3.5.5-.1-.1.5-4.9 39.1 9.8-1.6c1-4.1 1.8-8.2 2.3-12.1 1.6-13.1.3-25.3-3.7-36.2l-83.7 13.3-.7 5-.5 3.3-.1.6-.5-.3-2.7-1.9-6.6-4.8-29.3 4.7-8.9 7.2-3.8 3.1-.7.5.1-.9.6-4.9.4-3.3-36 5.8c-1.6 3.2-3.2 6.3-4.6 9.5z"/>
  <path class="st1" d="M112.3 149.7c.9 1.7 2.7 2.5 4 2.9 4.3 1.2 10.5.1 16.2-3.1 8.4-4.7 13.4-12.5 10.8-17-2.5-4.6-11.8-4.5-20.2.2-8.3 4.7-13.3 12.5-10.8 17zM105 78.1l-6.6-4.6-29.6 4.7L58 86.8l-4.5 35.9 10.1 7 24.4-3.9 12.2-8.8 2-16-20.3 3.3-1.5 11.6v.2l-.2.1-6 .9-.5.1.1-.4L77 91v-.2l.3-.1 5.6-.9h.5l-.1.4-.7 6 20.6-3.3zM106.7 122.8l20.3-3.2 2.4-19.4.1-.3h.2l5.6-.9.5-.1-.1.5-2.3 19.1 21.6-3.4 6.5-51.8-21.7 3.5-2.5 20.1v.2l-.3.1-6 .9-.4.1v-.5l2.5-19.8-20 3.2zM77.5 38.9l-2.9-9.1-5.5 10.5-11.9 1.9 8.6 4.3-6.1 11.9L72 49.5l10.5 5.2-3.3-10.4L89.4 37zM154.8 32.5l10.2-7.3-11.9 1.9-2.9-9.2-5.5 10.5-11.9 2 8.7 4.3-6.2 11.8 12.3-8.8 10.5 5.2zM115.6 32.9l-2.9-9.2-5.5 10.5-11.9 1.9 8.7 4.3-6.2 11.9 12.3-8.9 10.5 5.2-3.3-10.3 10.2-7.3z"/>
</svg>