<?xml version="1.0" encoding="UTF-8" standalone="no"?>
<svg xmlns:rdf="http://www.w3.org/1999/02/22-rdf-syntax-ns#" xmlns="http://www.w3.org/2000/svg" height="280.72844" width="253.86154" version="1.1" xmlns:cc="http://creativecommons.org/ns#" xmlns:dc="http://purl.org/dc/elements/1.1/" viewBox="0 0 253.86154 280.72844"><path d="M196.95463,190.08649a94.67658,94.67658,0,0,0,8.73858-116.28486c-.01337-.76959-.063-1.70245-.147-2.95042-.063-.98062-.15659-2.26676-.26638-3.77252-2.61433-35.62661.55952-46.09916,1.81991-50.36343C210.286,5.93426,215.34559.001,215.34559.001L198.89483,3.61118c-24.27367,5.327-39.79921,18.07587-49.58525,30.73692a95.1922,95.1922,0,0,0-44.75669,0C94.76589,21.68705,79.24131,8.93818,54.9686,3.61118L38.51594.001s5.06059,5.9333,8.2459,16.7143c1.26133,4.26427,4.43519,14.73682,1.82086,50.36343-.10981,1.50576-.20434,2.79193-.2664,3.77252-.085,1.24893-.13559,2.18179-.148,2.95138a94.67368,94.67368,0,0,0,8.73955,116.2839H0L21.943,212.03038v68.68279h27.692V269.94745l77.34692,10.781,55.9549-7.842,1.0952.8374a33.422,33.422,0,0,0,11.10181,5.58957,39.48762,39.48762,0,0,0,11.68617,1.40072c16.06595,0,25.0977-7.82676,25.0977-7.82676V212.03417l11.91628-11.78452,10.02763-10.16225H196.95463Z" fill="#fff"/><path d="M56.14405,173.84294c-5.27448-20.4658,8.39485-30.37216,8.39485-30.37216s1.73779,29.58445,9.05274,41.40046Z" fill="#c6c6c6"/><path d="M197.71851,173.84294c5.27258-20.4658-8.39485-30.37216-8.39485-30.37216s-1.73779,29.58445-9.05179,41.40046Z" fill="#c6c6c6"/><path d="M199.02089,88.33032c-.54808-2.28588-6.05936-1.44181-13.3934.803,5.643-6.52817,11.39492-12.282,11.922-14.4647.47741-1.96887-4.8935-46.61571,1.63182-55.96542-.05062.001-.92141-.6445-.92141-.6445-38.71739,6.9798-57.23344,55.49661-59.14021,60.9735-.05444.27976-.126.54426-.1795.82688A39.7255,39.7255,0,0,0,137.93,74.787c-.71612-2.18847-6.14718-7.8659-11.00155-7.8659S116.642,72.59856,115.9259,74.787a39.98781,39.98781,0,0,0-1.00926,5.07206c-.05347-.28262-.12509-.54712-.1795-.82688-1.90392-5.47689-20.42189-53.99466-59.13832-60.9735,0,0-.8708.64546-.9214.6445,6.5253,9.34968,1.15439,53.99752,1.6318,55.96542.529,2.18275,6.27991,7.93656,11.922,14.4647-7.334-2.24482-12.84533-3.08793-13.39435-.803-4.544,18.89416,4.186,33.81625,10.63107,41.77378,9.26472-8.42923,30.6462-4.58223,39.79823,15.1245a3.97793,3.97793,0,0,0,.50417,2.22092c8.59346,16.551,13.36187,46.947,13.36187,46.947h15.59142s4.77033-30.396,13.36379-46.947a3.983,3.983,0,0,0,.50224-2.22092c9.152-19.70673,30.5345-23.55277,39.79825-15.1245,6.44795-7.95753,15.17892-22.8796,10.633-41.77378m-91.40295,56.91835-6.54059-8.2354-5.55423-9.07851,21.59635,16.13853Zm18.50649-11.96115L115.78076,81.96544a14.31185,14.31185,0,0,1,10.34367-4.376v55.69807m26.65981,3.72575-6.54058,8.2354-9.5015-1.17348,21.59634-16.13854Z" fill="#e6332a"/><path d="M167.60415,52.8145c2.9695-3.6379,5.70893-6.38781,7.77422-7.25671,10.1212-4.27765,12.75461,4.29673,12.99332,5.17519-1.65091-8.76629-2.24482-10.80868-.58054-21.20676-33.419,16.94822-40.819,54.70219-40.819,54.70219s6.25319-11.00059,13.24252-21.3118c4.03034-4.31582,8.89042-7.69592,16.95778-11.83988a32.02621,32.02621,0,0,0-9.56834,1.73777"/><path d="M66.06854,29.52716c1.66141,10.3981,1.079,12.44046-.5729,21.20675.2387-.87846,2.874-9.45281,12.98568-5.17519,2.06244.8689,4.80279,3.61881,7.77231,7.25671a31.88476,31.88476,0,0,0-9.55783-1.7378c8.0683,4.14492,12.91884,7.525,16.95776,11.83988,6.98936,10.31215,13.23392,21.3118,13.23392,21.3118s-7.3999-37.75393-40.81894-54.70215"/><path d="M86.81507,251.57083h3.98355q.95243,0,.95195-.86508V204.87586c0-.57768-.317-.8689-.95195-.8689H86.81507c-.64164,0-.952.29122-.952.8689v45.82989c0,.57579.31032.86508.952.86508"/><path d="M140.3008,267.18705v-.55761c0-.71612-.24445-1.03123-.804-1.03123h-.7591v2.64967h.61682c.5882,0,.94626-.25683.94626-1.06083"/><path d="M196.95463,190.08649a94.67658,94.67658,0,0,0,8.73858-116.28486c-.01337-.77055-.063-1.70341-.149-2.95138-.0611-.97966-.15467-2.26676-.26449-3.77252-2.61529-35.62661.55952-46.0982,1.81991-50.36344C210.28594,5.93426,215.34556,0,215.34556,0L198.8948,3.61022c-24.27367,5.327-39.79921,18.07587-49.58524,30.73692a95.22554,95.22554,0,0,0-44.7567,0C94.76586,21.68609,79.24128,8.93722,54.96857,3.61022L38.51591,0s5.0606,5.93426,8.24685,16.71429c1.26038,4.26524,4.43423,14.73779,1.81991,50.36344-.10981,1.50576-.20434,2.79286-.2664,3.77252-.085,1.24893-.13559,2.18179-.148,2.95138a94.67507,94.67507,0,0,0,8.73955,116.28486H0L21.94388,212.0323v68.68087h27.692V269.94745l77.34594,10.77907,55.95491-7.842,1.09519.83933a33.45824,33.45824,0,0,0,11.10181,5.58957,39.48762,39.48762,0,0,0,11.68617,1.40072c16.06595,0,25.0977-7.82863,25.0977-7.82863V212.03422l11.91628-11.7864,10.02763-10.16034H196.95463ZM66.27573,209.84192H43.64341L43.567,223.67931H64.684v12.45194H43.567l.07639,38.90359h-15.812V209.842L14.30532,196.31585l51.97041-.01146Zm38.12348,45.80314a21.72971,21.72971,0,0,1-7.45244,3.68084,28.88993,28.88993,0,0,1-16.28749,0,21.7801,21.7801,0,0,1-7.4448-3.68084V196.30335c2.65824,0,19.89674-.00382,31.18473-.00382Zm12.34119,18.54661h-1.60315v-4.29673H113.347v4.29673h-1.57547V264.166H113.347v4.29674h1.7903V264.166h1.60315Zm12.59035-6.64656h-1.48953v-1.07419c0-.71612-.31508-.98635-.81639-.98635s-.81639.27023-.81639.98635v5.41387c0,.71612.31508.97488.81639.97488s.81639-.25876.81639-.97488v-1.43224h1.48953v1.33392c0,1.60411-.80205,2.51978-2.34887,2.51978-1.54586,0-2.34887-.91567-2.34887-2.51978v-5.21239c0-1.606.803-2.5217,2.34887-2.5217,1.54682,0,2.34887.91567,2.34887,2.5217Zm12.70307,4.269a2.13036,2.13036,0,0,1-2.39185,2.37751h-2.47779V264.166h2.37562c1.63182,0,2.33457.75908,2.33457,2.305v.35806a1.952,1.952,0,0,1-1.01594,2.007v.02768a2.00682,2.00682,0,0,1,1.17446,2.1331v.81735Zm.48983-56.4304-9.26853,12.40707,9.26853,12.40894V259.283H129.87312V240.19977l-2.94375-3.9406-2.94375,3.9406V259.283H111.337V240.19977l9.26853-12.40894L111.337,215.38376V196.52014c1.74447,1.31671,6.616,2.32215,12.64863,2.57327v16.29035l2.94375,3.9406,2.94375-3.9406V199.09341c6.03356-.254,10.90416-1.25656,12.65053-2.57327Zm38.12443-8.25356H162.111V223.157H179.4345v9.96271H162.111v15.33648h18.53706v10.82966H149.46239V196.30055h31.18569Zm.87939-23.9013c1.87146-7.23759,1.97554-18.60961-2.96094-28.06338-5.44157-10.42675-18.02814-10.62822-23.2033,0-2.75947,5.6526-9.18449,22.60082-14.37017,34.06831a1.534,1.534,0,0,1-1.077.85266,2.61827,2.61827,0,0,1-1.16775,0,3.10535,3.10535,0,0,1-1.35587-.63208l-5.4139-4.52588a5.21367,5.21367,0,0,1-1.85141-3.76107l-1.08852-23.612,10.82777,5.10834a.52718.52718,0,0,0,.65691-.783l-5.0501-7.14117a1.2922,1.2922,0,0,1,.92715-2.03475,88.44131,88.44131,0,0,0,9.22173-1.29762c4.83336-1.01308,7.18127-3.36959,8.47985-5.54852,5.46259-9.12913,17.90306-31.86265,17.90306-31.86265l-37.944,27.99653a6.38488,6.38488,0,0,1-3.78112,1.24034H123.577a6.38057,6.38057,0,0,1-3.78112-1.24034L81.85091,113.99614s12.44144,22.73352,17.903,31.86265c1.29856,2.17605,3.64746,4.53544,8.47889,5.54852a87.49242,87.49242,0,0,0,9.22366,1.29762,1.29217,1.29217,0,0,1,.92618,2.03475l-5.05105,7.14117a.52811.52811,0,0,0,.65883.783l10.82777-5.10834-1.08852,23.612a5.22167,5.22167,0,0,1-1.85238,3.76107l-5.41389,4.52588a3.09729,3.09729,0,0,1-1.35395.63208,2.62253,2.62253,0,0,1-1.16871,0,1.52682,1.52682,0,0,1-1.077-.85266c-5.18471-11.46751-11.61073-28.41574-14.37017-34.06831-5.17519-10.62822-17.75983-10.42675-23.20236,0-4.93646,9.45091-4.83143,20.82579-2.96,28.06338-3.60926,0-17.56886-12.27146-17.56886-42.86324-1.85237,0-7.61,9.93978-7.61,15.219-1.9383,0-12.75652-22.65812,5.33749-44.10358-2.32023,0-11.51524,8.80353-11.51524,11.4866,0-10.98054,11.38157-34.4025,17.60706-34.4025,4.51634,0,20.4238,14.37973,20.92032,19.574a4.91782,4.91782,0,0,0-.04775-.63975,13.22038,13.22038,0,0,0-1.05032-3.79163C73.91625,93.02424,57.23538,78.45258,56.30919,74.6619a22.05178,22.05178,0,0,1,.105-3.26553c.64928-10.17848,4.3674-48.50054-3.18912-59.85729,56.55645,12.40992,61.68962,68.2999,61.69154,68.3171v.001a40.43726,40.43726,0,0,1,1.01212-5.0797c.71612-2.18657,6.1491-4.04847,10.99962-4.04847,4.85148,0,10.2835,1.86193,10.99962,4.04847a40.50212,40.50212,0,0,1,1.01308,5.0797v-.001c.00193-.0172,5.136-55.90622,61.69058-68.3171-7.55459,11.35768-3.8384,49.67881-3.18912,59.85729a21.836,21.836,0,0,1,.10408,3.26553c-.92714,3.79068-17.60609,18.36138-22.0957,29.04593a13.23532,13.23532,0,0,0-1.05031,3.79163,4.90729,4.90729,0,0,0-.0487.63975c.49747-5.19427,16.40493-19.574,20.92032-19.574,6.22644,0,17.6061,23.421,17.6061,34.4025,0-2.68307-9.195-11.4866-11.51621-11.4866,18.09307,21.44453,7.27484,44.10358,5.33846,44.10358,0-5.27925-5.75762-15.219-7.61192-15.219.00671,30.59464-13.95193,42.86324-17.56119,42.86324m-44.78438-39.15278,21.59538-16.13854-5.55329,9.07852-6.54155,8.23348Zm-19.62459,0-9.50149,1.17349-6.53963-8.23541-5.55519-9.07662Zm108.90974,65.7658V223.939H210.32417V208.21392q0-1.0828-1.18972-1.08374H204.261c-.79442,0-1.18972.36187-1.18972,1.08374v15.79a3.77811,3.77811,0,0,0,.15848,1.45229,2.03362,2.03362,0,0,0,.81161.60061l17.35116,8.23348a8.1187,8.1187,0,0,1,4.6376,7.33693v27.64326a27.48259,27.48259,0,0,1-9.21028,4.59844A36.19111,36.19111,0,0,1,206.755,275.3327a35.65786,35.65786,0,0,1-10.02093-1.46377,27.44421,27.44421,0,0,1-9.14821-4.59844V248.45236h15.69643v14.63756c0,.72375.3972,1.08566,1.19928,1.08566H209.355c.79442,0,1.18972-.36191,1.18972-1.08566v-16.6742a6.78381,6.78381,0,0,0-.16708-1.9469c-.105-.29122-.55571-.61682-1.34728-.9768l-16.805-7.97094a8.1172,8.1172,0,0,1-4.63952-7.33693V207.22852c0-4.80565,5.35468-10.928,10.49645-10.92611,15.40711.00382,41.47493.01338,41.47493.01338Z"/><path d="M139.44146,269.68013h-.70085v3.0793h.90136c.53088,0,.81542-.24256.81542-.98822v-.87272c0-.931-.29981-1.21836-1.01593-1.21836"/></svg>