<svg id="Ebene_1" data-name="Ebene 1" xmlns="http://www.w3.org/2000/svg" viewBox="0 0 1600 784.14"><defs><style>.cls-1{fill:#919199;}.cls-2{fill:#fff;}.cls-3,.cls-4{fill:#cd1414;}.cls-4{fill-rule:evenodd;}.cls-5{fill:#ffd200;}</style></defs><path class="cls-1" d="M1640,260.93H482c-122.07,0-221,98.95-221,221v342.1c0,122.07,98.95,221,221,221H1640c122.07,0,221-98.95,221-221V482c0-122.07-99-221-221-221Z" transform="translate(-261 -260.93)"/><path class="cls-2" d="M1640,291.78A190.17,190.17,0,0,1,1830.15,482v342.1A190.17,190.17,0,0,1,1640,1014.22H482A190.17,190.17,0,0,1,291.85,824.05V482A190.17,190.17,0,0,1,482,291.78H1640" transform="translate(-261 -260.93)"/><path class="cls-3" d="M1032.17,984.53H482A160.46,160.46,0,0,1,321.54,824.07V482A160.48,160.48,0,0,1,482,321.47h550.15Z" transform="translate(-261 -260.93)"/><path class="cls-4" d="M1782,545.22c-3.93,30.22-51.44,57.31-127,58.67l12.58-38.83a5.22,5.22,0,0,1,4.22-3.3l1.44-.15c39.39-2.83,63.83-15.16,66-28.51,2.46-14.83-27.69-25.82-66.25-25.82-38.17,0-70.76,9.65-80.86,26.18h-36.64c12.56-21.7,60.93-40.68,121.32-40.68C1738.05,492.78,1785.92,515.11,1782,545.22Zm-132.62,75.93-6.64,20.43c42.63-1,85.28-9.6,104.92-23,12.35-8.43,17.27-19.47,23.66-38.79-18.44,20.51-59.36,36.23-116.27,37.86-.62,0-1,.05-1.48.1A5.1,5.1,0,0,0,1649.39,621.15Z" transform="translate(-261 -260.93)"/><path class="cls-3" d="M1323.76,616.6a101.08,101.08,0,0,1-3.8,16.6l-12.78,39.47c-14.83,45.4-40.7,71.49-98,71.49h-126c-1.87,0-2.9-1.51-2.29-3.39L1138,565.1a5.11,5.11,0,0,1,4.49-3.39h125.69C1309.16,561.71,1328.91,581.7,1323.76,616.6Zm-166.57,85.6h45.66c22.7,0,33.19-6.78,39.43-26.09l15.09-46.35a83.24,83.24,0,0,0,1.88-8.13c1.9-12.87-5.49-18-24.46-18H1189.2Z" transform="translate(-261 -260.93)"/><path class="cls-3" d="M1702.5,702.27,1613,702.2c-19,0-24.86-2.19-23.19-13.5a62.32,62.32,0,0,1,2.55-9.85l36.94-113.75c.61-1.87-.41-3.39-2.28-3.39h-57a5.11,5.11,0,0,0-4.49,3.39l-11.43,35.19s-27.75,85.49-27.75,85.49a110.29,110.29,0,0,0-4.41,17.51c-4.2,28.47,11.12,40.87,46.88,40.87l120,.07a5.08,5.08,0,0,0,4.49-3.39l11.44-35.18C1705.39,703.78,1704.37,702.27,1702.5,702.27Z" transform="translate(-261 -260.93)"/><path class="cls-3" d="M1544,561.71H1423.69c-53.28,0-67.18,17.52-80.14,58.39l-21.3,65.68a110.29,110.29,0,0,0-4.41,17.51c-4.2,28.47,11.12,40.87,46.88,40.87h120a5.09,5.09,0,0,0,4.49-3.39l11.43-35.18c.61-1.87-.41-3.39-2.28-3.39h-89.45c-19,0-24.86-2.19-23.19-13.5a62.32,62.32,0,0,1,2.55-9.85l2.16-6.65h79.4a5.1,5.1,0,0,0,4.49-3.38l10.84-33.37c.61-1.87-.42-3.39-2.29-3.39H1403.4l1.63-5c6.56-19.71,12.21-23.36,35.93-23.36h89.38a5.09,5.09,0,0,0,4.49-3.39l11.43-35.18C1546.87,563.23,1545.85,561.71,1544,561.71Z" transform="translate(-261 -260.93)"/><path class="cls-5" d="M975,688.83a24.6,24.6,0,1,1-24.6-24.6,24.6,24.6,0,0,1,24.6,24.6" transform="translate(-261 -260.93)"/><path class="cls-2" d="M454.1,594.16c26.46,0,44.4,14.31,44.57,37.41l5.75-35.66h86.72l-4.66,28.92H540.72l-2.28,13.7h41.43l-4.6,28.59H533.69l-2.36,14.2H578l-4.65,28.92H486l10-61.9c-6.7,20-25,31.85-48.94,31.85H425.17l-4.84,30H378.71L397.4,594.17ZM713,595.91,694.6,710.24H656.3l-23.51-52.81-8.51,52.81H586L604.4,595.91h39.3l22.77,51.16,8.25-51.16Zm179,39,20.81-39h47.86L888.44,710.24h-48.7l23.15-32.63-26.42-79.29-18,111.92h-38.3l-23.51-52.81-8.5,52.81h-38.3l18.41-114.33h39.3l22.78,51.16,8.24-51.16h83.7ZM429.77,651.62H439c10.39,0,16.7-6.41,17.82-14.43,1-6.92-3.84-14.44-13.63-14.44h-8.77Z" transform="translate(-261 -260.93)"/></svg>