<?xml version="1.0" encoding="UTF-8"?>
<svg id="Lager_1" data-name="Lager 1" xmlns="http://www.w3.org/2000/svg" viewBox="177 118 644 325">
  <defs>
    <style>
      .cls-1 {
        fill: #fff;
      }
    </style>
  </defs>
  <g>
    <g>
      <path class="cls-1" d="M252.01,375.41l25.87-45.73,1.71-3.03-.06-.04,15.6-26.82c-9.27-11.17-13.68-26.51-11.78-43.42l-93.34-.02,34.73,165.95,15.21-25.57,12.06-21.32h0Z"/>
      <path class="cls-1" d="M229.06,190.96c.38.07,1.37-.07,1.91-.07,2.3,0,5.36-.67,6.66-1.03,1.84-.51,8-2.25,10.32-3.51.33-.18.63-.35.88-.51,1.01-.61,1.58-1.1,2.02-1.72.42-.53.79-1.16,1.12-1.92.13-.25.26-.53.4-.82.08-.2,3.58-8.3,7.89-18.3,4.32,10,7.81,18.1,7.9,18.3.13.29.26.57.38.8.22.5.58,1.25,1.12,1.91.46.65,1.04,1.13,2.02,1.73.29.19.58.36.95.55,2.28,1.24,8.43,2.98,10.27,3.48,1.29.36,4.27,1.29,6.58,1.29.54,0,1.48.07,1.87,0,1.97-.39,2.02-2.35,1.98-3.09.02-.81.28-1.77-.11-2.31-.5-.7-1.41-.64-1.92-.87l-.1-.04c-.32-.14-1.45-.32-4.36-.76-2.18-.32-4.65-.69-6.27-1.01-3.11-.62-6.36-1.74-7.51-2.26-.28-.17-1.23-.78-1.73-1.52-.08-.13-.69-1.18-1.58-3.07-.75-1.61-3.91-8.82-7.64-17.42,6.78-15.75,14.63-33.96,14.65-34.08.08-.56-.73-.91-1.42-1.1-.16-.04-.31-.08-.47-.06-.26,0-1.15.06-1.37.46t-1.82,4.2c-2.56,5.9-7.16,16.53-11.42,26.33-4.26-9.81-8.87-20.45-11.42-26.35q-1.8-4.14-1.82-4.18c-.23-.4-1.11-.46-1.42-.47-.14,0-.27.02-.42.06-1.28.35-1.48.82-1.42,1.12.02.11,7.86,18.32,14.65,34.06-3.74,8.59-6.9,15.81-7.64,17.41-.9,1.91-1.51,2.95-1.58,3.07-.49.74-1.44,1.36-1.66,1.5-1.22.55-4.46,1.67-7.57,2.29-1.62.32-4.08.69-6.26,1.01-2.92.44-4.05.61-4.37.76l-.09.04c-.52.23-1.35.07-1.86.77-.38.54-.2,1.59-.18,2.36-.04.79-.12,2.56,1.86,2.95h0Z"/>
    </g>
    <polygon class="cls-1" points="243.34 196.84 277.22 196.84 274.12 188.53 246.44 188.53 243.34 196.84 243.34 196.84"/>
    <polygon class="cls-1" points="255.35 181.27 255.35 185.36 264.89 185.36 264.89 181.27 255.35 181.27 255.35 181.27"/>
    <path class="cls-1" d="M301.43,215.22l-18.97-11.78h-45.33l-55.12,35.41,2.43,8.76h100.44c2.81-11.9,8.52-23.05,16.55-32.39h0Z"/>
    <polygon class="cls-1" points="645.17 382.28 703.48 382.28 745.12 203.7 714.54 203.7 667.38 287.01 645.17 382.28 645.17 382.28"/>
    <polygon class="cls-1" points="599.1 382.28 646.25 298.96 668.44 203.7 610.14 203.7 568.53 382.28 599.1 382.28 599.1 382.28"/>
    <path class="cls-1" d="M322.78,301.05l71.71,22.05c8.88,2.84,4.76,13.65-2.3,13.65h-101.43l-25.76,45.56h135.62l52.55-92.85-99.64-29.48c-7.96-2.35-4.45-13.05,3.81-13.05h85.61l24.47-43.24h-106.52c-64.8,0-83.73,82.75-38.11,97.37h0Z"/>
    <polygon class="cls-1" points="735.62 336.75 706.04 382.28 790.08 382.28 815.84 336.75 735.62 336.75 735.62 336.75"/>
    <polygon class="cls-1" points="443.25 382.28 501.56 382.28 517.71 313.4 563.66 313.4 592.4 269.14 527.98 269.14 543.17 203.7 512.59 203.7 465.45 287.01 443.25 382.28 443.25 382.28"/>
    <path class="cls-1" d="M653.46,405.87c-1.04-.08-1.91.43-2.59,1.54-.68,1.11-1.19,3.03-1.51,5.75l-1.02,7.1-.27,2.37-.04,1.84c.06,2.04.7,3.1,1.94,3.17,1.03.09,1.88-.41,2.57-1.5.68-1.09,1.19-3.04,1.51-5.88l1.01-7.1.27-2.32.04-1.84c-.03-.93-.2-1.67-.53-2.23-.32-.56-.79-.86-1.39-.9h0Z"/>
    <path class="cls-1" d="M532.6,406.61l-4.41-.04-1.67,9.59,3.91.04c1.51-.03,2.68-.61,3.51-1.74.83-1.13,1.23-2.66,1.18-4.57-.03-.97-.26-1.74-.7-2.32-.44-.58-1.04-.89-1.82-.95h0Z"/>
  </g>
  <g>
    <path class="cls-1" d="M258.01,396.05l-24.79,41.69h526.41l22.45-39.68,1.04-2.01H258.01ZM326.5,410.5l-6.04-.02c.15-2.89-.77-4.35-2.77-4.39-1.03-.03-1.91.31-2.65,1-.74.7-1.19,1.59-1.34,2.69-.21,1.65.93,3.06,3.42,4.22,2.49,1.17,4.28,2.49,5.36,3.95,1.21,1.62,1.72,3.59,1.54,5.91-.21,2.67-1.27,4.81-3.17,6.41-1.9,1.6-4.27,2.37-7.12,2.31-2.86-.06-5.12-1.03-6.78-2.91-1.66-1.89-2.42-4.3-2.28-7.24l6.08.02c-.11,1.81.12,3.11.71,3.9.58.78,1.5,1.17,2.76,1.17,1.1-.01,1.96-.36,2.6-1.03.63-.67,1.03-1.53,1.18-2.59.14-1.04-.01-1.91-.45-2.61-.44-.7-1.37-1.38-2.77-2.05-1.4-.67-2.57-1.36-3.52-2.08-2.58-1.96-3.76-4.43-3.55-7.41.13-1.72.67-3.25,1.62-4.59.95-1.34,2.22-2.39,3.81-3.14,1.59-.75,3.29-1.1,5.11-1.05,2.63.06,4.69.97,6.18,2.73,1.48,1.77,2.17,4.03,2.06,6.79ZM357.61,432.14h-6.08l1.48-8.51,2.66-12.14-9.42,20.65h-4.12l-2.32-21.35-1.75,13.24-1.39,8.11h-6.06l5.32-30.75h7.81l1.79,22.11,9.44-22.11h7.98l-5.34,30.75ZM378.52,421.46h-10.05l.89-4.98h10.05l-.89,4.98ZM408.52,410.5l-6.04-.02c.16-2.89-.77-4.35-2.77-4.39-1.03-.03-1.91.31-2.65,1-.74.7-1.19,1.59-1.34,2.69-.21,1.65.93,3.06,3.42,4.22,2.49,1.17,4.28,2.49,5.36,3.95,1.21,1.62,1.73,3.59,1.54,5.91-.21,2.67-1.27,4.81-3.17,6.41-1.9,1.6-4.27,2.37-7.12,2.31-2.86-.06-5.12-1.03-6.78-2.91-1.66-1.89-2.42-4.3-2.28-7.24l6.08.02c-.11,1.81.12,3.11.71,3.9.58.78,1.5,1.17,2.75,1.17,1.1-.01,1.96-.36,2.6-1.03.63-.67,1.03-1.53,1.18-2.59.14-1.04-.01-1.91-.45-2.61-.44-.7-1.37-1.38-2.77-2.05-1.4-.67-2.57-1.36-3.52-2.08-2.58-1.96-3.76-4.43-3.55-7.41.13-1.72.67-3.25,1.61-4.59.95-1.34,2.22-2.39,3.81-3.14,1.59-.75,3.29-1.1,5.11-1.05,2.63.06,4.69.97,6.18,2.73,1.48,1.77,2.17,4.03,2.06,6.79ZM429.24,432.14h-16.62l5.32-30.75h6.06l-4.44,25.6h10.58l-.91,5.15ZM457.76,422.51c-.44,3.2-1.63,5.69-3.57,7.47-1.94,1.79-4.49,2.65-7.64,2.6-2.96-.06-5.2-.99-6.71-2.79-1.52-1.8-2.11-4.23-1.75-7.28l3.59-21.12h6.08l-3.55,21.14-.08,1.81c0,1.97.98,2.99,2.94,3.06,1.35.04,2.41-.32,3.17-1.08.76-.76,1.26-2.03,1.5-3.8l3.57-21.14h6.06l-3.59,21.12ZM488.15,406.57h-7.37l-4.44,25.57h-6.08l4.44-25.57h-7.27l.91-5.18h20.72l-.91,5.18ZM513.59,410.5l-6.04-.02c.15-2.89-.77-4.35-2.77-4.39-1.03-.03-1.91.31-2.65,1-.74.7-1.18,1.59-1.34,2.69-.21,1.65.93,3.06,3.42,4.22,2.49,1.17,4.28,2.49,5.36,3.95,1.21,1.62,1.73,3.59,1.54,5.91-.21,2.67-1.27,4.81-3.17,6.41-1.9,1.6-4.27,2.37-7.12,2.31-2.86-.06-5.12-1.03-6.78-2.91-1.66-1.89-2.42-4.3-2.28-7.24l6.09.02c-.12,1.81.12,3.11.7,3.9.58.78,1.5,1.17,2.75,1.17,1.1-.01,1.97-.36,2.6-1.03.64-.67,1.03-1.53,1.18-2.59.14-1.04,0-1.91-.45-2.61-.44-.7-1.37-1.38-2.77-2.05-1.4-.67-2.57-1.36-3.52-2.08-2.58-1.96-3.76-4.43-3.55-7.41.13-1.72.66-3.25,1.61-4.59.95-1.34,2.22-2.39,3.81-3.14,1.59-.75,3.29-1.1,5.11-1.05,2.63.06,4.69.97,6.18,2.73,1.48,1.77,2.17,4.03,2.06,6.79ZM541.13,411.4c-.28,3.01-1.42,5.42-3.42,7.23-2,1.81-4.55,2.71-7.65,2.71l-4.43-.02-1.88,10.81h-6.06l5.32-30.75,9.86.02c2.69.08,4.8,1.04,6.32,2.88,1.53,1.84,2.17,4.21,1.93,7.11ZM567.2,406.57h-11.04l-1.27,7.26h9.4l-.89,5.01h-9.38l-1.41,8.15h11.11l-.91,5.15h-17.15l5.32-30.75h17.13l-.91,5.18ZM586.97,432.14h-16.62l5.32-30.75h6.06l-4.44,25.6h10.58l-.91,5.15ZM635.63,409.57c-.13,1.46-.55,2.9-1.27,4.32-.72,1.41-1.76,2.91-3.12,4.49l-2.89,3.17-4.71,5.64h9.99l-.78,4.96h-17.61l.7-4.46,9.48-10.35c2.6-2.87,4-5.33,4.18-7.39l.04-1.12c0-.89-.17-1.6-.51-2.13-.34-.54-.83-.81-1.48-.82-1.91-.04-3.12,1.53-3.61,4.71l-.06.49-5.81.02c.14-1.86.66-3.58,1.56-5.16.9-1.58,2.09-2.81,3.57-3.69,1.48-.87,3.11-1.3,4.9-1.29,2.5.06,4.43.87,5.76,2.44,1.34,1.57,1.89,3.63,1.67,6.18ZM661.02,411.26c-.03.99-.1,1.92-.21,2.81l-.97,6.27c-.83,4.7-2.32,8.05-4.48,10.05-1.66,1.54-3.64,2.26-5.93,2.18-1.58-.04-2.91-.49-3.99-1.33-1.08-.85-1.87-2.07-2.35-3.66-.48-1.6-.7-3.38-.64-5.33.03-.99.1-1.92.21-2.81l.91-5.93c.68-4.2,1.9-7.35,3.67-9.47s4.03-3.14,6.78-3.07c2.38.09,4.16,1.03,5.35,2.83,1.19,1.8,1.74,4.3,1.66,7.48ZM686.29,409.57c-.13,1.46-.55,2.9-1.27,4.32-.72,1.41-1.76,2.91-3.12,4.49l-2.89,3.17-4.71,5.64h9.99l-.78,4.96h-17.61l.7-4.46,9.48-10.35c2.6-2.87,4-5.33,4.18-7.39l.04-1.12c0-.89-.17-1.6-.51-2.13-.34-.54-.83-.81-1.48-.82-1.91-.04-3.12,1.53-3.61,4.71l-.06.49-5.81.02c.14-1.86.66-3.58,1.56-5.16.9-1.58,2.09-2.81,3.57-3.69,1.48-.87,3.11-1.3,4.9-1.29,2.5.06,4.43.87,5.76,2.44,1.34,1.57,1.89,3.63,1.67,6.18ZM705.98,429c-1.94,2.47-4.38,3.67-7.32,3.62-2.28-.06-4.08-.94-5.4-2.65-1.32-1.71-2.03-4.02-2.13-6.94-.04-.95-.02-1.86.08-2.74l.28-2.1c.71-5.27,2.42-9.46,5.13-12.55,2.72-3.09,6.15-4.66,10.31-4.7h.93l-.51,5.11-.21-.02c-2.09-.03-3.9.58-5.43,1.83-1.53,1.25-2.79,3.2-3.78,5.84,1.5-1.5,3.12-2.23,4.86-2.21,1.84.03,3.28.77,4.32,2.23,1.04,1.46,1.59,3.43,1.67,5.92.07,3.76-.86,6.88-2.8,9.34Z"/>
    <path class="cls-1" d="M700.57,416.41c-1.27-.04-2.38.8-3.33,2.52-.28,2.26-.42,3.79-.42,4.58,0,2.7.73,4.07,2.19,4.11,1.23.04,2.2-.66,2.9-2.1.7-1.44,1.04-3.17,1.03-5.18-.03-1.2-.24-2.16-.65-2.86-.4-.71-.97-1.07-1.71-1.08Z"/>
  </g>
</svg>