<?xml version="1.0" encoding="UTF-8" standalone="no"?>
<!-- Created with Inkscape (http://www.inkscape.org/) -->

<svg
   xmlns:dc="http://purl.org/dc/elements/1.1/"
   xmlns:cc="http://creativecommons.org/ns#"
   xmlns:rdf="http://www.w3.org/1999/02/22-rdf-syntax-ns#"
   xmlns:svg="http://www.w3.org/2000/svg"
   xmlns="http://www.w3.org/2000/svg"
   version="1.1"
   width="800"
   height="800"
   id="svg2">
  <defs
     id="defs4" />
  <metadata
     id="metadata7">
    <rdf:RDF>
      <cc:Work
         rdf:about="">
        <dc:format>image/svg+xml</dc:format>
        <dc:type
           rdf:resource="http://purl.org/dc/dcmitype/StillImage" />
        <dc:title></dc:title>
      </cc:Work>
    </rdf:RDF>
  </metadata>
  <g
     transform="translate(0,-252.36218)"
     id="layer1">
    <path
       d="m 782.04256,656.61093 c 0,212.38915 -172.17625,384.56537 -384.5654,384.56537 -212.38913,0 -384.565385,-172.17622 -384.565385,-384.56537 0,-212.38915 172.176255,-384.5654 384.565385,-384.5654 212.38915,0 384.5654,172.17625 384.5654,384.5654"
       id="path2999"
       style="fill:#000000;fill-opacity:1;fill-rule:evenodd;stroke:none" />
    <path
       d="m 750.34414,656.61093 c 0,194.88742 -157.98399,352.87157 -352.86698,352.87157 -194.8874,0 -352.871381,-157.98415 -352.871381,-352.87157 0,-194.88741 157.983981,-352.87139 352.871381,-352.87139 194.88299,0 352.86698,157.98398 352.86698,352.87139"
       id="path3001"
       style="fill:#efa319;fill-opacity:1;fill-rule:evenodd;stroke:none" />
    <path
       d="m 661.60269,656.61093 c 0,145.87284 -118.2527,264.1255 -264.12553,264.1255 -145.87282,0 -264.12552,-118.25266 -264.12552,-264.1255 0,-145.87283 118.2527,-264.12553 264.12552,-264.12553 145.87283,0 264.12553,118.2527 264.12553,264.12553"
       id="path3003"
       style="fill:#ffffff;fill-opacity:1;fill-rule:evenodd;stroke:none" />
    <path
       d="m 494.93633,686.19289 166.66636,0 0,-59.15949 -162.30529,0 3.56575,-15.8227 109.38474,-130.36385 -45.3207,-38.03015 -64.81077,67.32048 -75.06173,0 0,-117.65178 -59.15949,0 0,117.65178 -75.05728,0 -60.98434,-60.98433 -41.83449,41.83449 60.57341,60.57341 0,75.47265 -117.24086,0 0,59.15949 117.24086,0 0,75.46822 -63.61777,63.61777 41.8345,41.8345 64.02869,-64.02869 75.05728,0 0,117.65174 59.15949,0 0,-117.65174 75.06173,0 60.98433,60.98433 41.83008,-41.83891 -109.22126,-128.58761 -0.77324,-7.44961"
       id="path3005"
       style="fill:#efa319;fill-opacity:1;fill-rule:evenodd;stroke:none" />
    <path
       d="m 397.47716,337.55001 c -175.93639,0 -319.065327,143.12452 -319.065327,319.06092 0,175.93199 143.128937,319.06107 319.065327,319.06107 175.92757,0 319.06092,-143.12908 319.06092,-319.06107 0,-175.9364 -143.13335,-319.06092 -319.06092,-319.06092 l 0,0 z m 236.06355,283.11631 c -33.98721,-0.0619 -104.36531,-0.18558 -122.30006,-0.21633 11.70022,-13.68414 56.33606,-76.55076 79.59512,-103.74672 21.86722,30.13869 36.88134,65.56192 42.70494,103.96323 l 0,0 z M 433.39526,420.54297 c 38.67968,5.85895 74.33267,21.04538 104.61717,43.16888 -13.51624,14.03762 -36.1788,37.57505 -38.59573,40.08476 -4.56874,0 -55.81025,0 -66.02144,0 0,-8.24053 0,-57.74556 0,-83.25364 l 0,0 z m -71.84062,0 c 0,24.46973 0,74.85847 0,83.25364 -10.22003,0 -61.62942,0 -66.09212,0 -2.55832,-2.55832 -27.09433,-27.09875 -39.42641,-39.4264 30.4745,-22.4814 66.45444,-37.90644 105.51853,-43.82724 l 0,0 z m -156.31819,94.6269 c 13.01253,13.01694 36.54553,36.54553 39.0199,39.0199 0,4.46712 0,56.26978 0,66.50306 -7.83402,0 -54.90446,0 -82.83389,0 5.92081,-39.06409 21.33259,-75.04847 43.81399,-105.52296 l 0,0 z m -43.82724,177.36359 c 26.84247,0 74.83638,0 82.84714,0 0,10.22886 0,62.03594 0,66.50306 -2.39041,2.38158 -25.18553,25.18111 -39.0199,39.01548 -22.4814,-30.4745 -37.91085,-66.45888 -43.82724,-105.51854 l 0,0 z M 361.55464,892.6789 c -39.06409,-5.92081 -75.04403,-21.35026 -105.51853,-43.82724 15.03179,-15.03179 37.15971,-37.15971 39.42641,-39.42641 4.46711,0 55.87209,0 66.09212,0 0,8.24937 0,57.78975 0,83.25365 l 0,0 z m 71.84062,0 c 0,-28.15035 0,-75.42846 0,-83.25365 10.22003,0 61.63386,0 66.09214,0 2.27995,2.27554 24.4609,24.45648 39.43082,39.42199 -30.47891,22.4814 -66.45887,37.91085 -105.52296,43.83166 l 0,0 z m 115.60159,-51.67452 -44.25584,-44.25584 -84.02247,0 0,97.49452 c -7.65286,0.74673 -15.39852,1.13556 -23.24138,1.13556 -7.84286,0 -15.59294,-0.38883 -23.24581,-1.13556 l 0,-97.49452 -84.01803,0 -44.26026,44.25584 c -11.98743,-9.86655 -22.99837,-20.87748 -32.87375,-32.86933 l 43.85376,-43.84934 0,-84.43339 -97.09244,0 c -0.74231,-7.64845 -1.13555,-15.39852 -1.13555,-23.24139 0,-7.84286 0.4065,-15.59293 1.14881,-23.24138 l 97.07918,0 0,-84.43339 -43.84492,-43.8405 c 9.87096,-11.98743 20.87306,-23.00721 32.86491,-32.87817 l 44.26026,44.25584 84.01803,0 0,-97.49894 c 7.65287,-0.74231 15.40295,-1.13556 23.24581,-1.13556 7.84286,0 15.58852,0.39325 23.24138,1.13556 l 0,97.49894 84.09317,0 43.30144,-44.97164 c 12.77393,10.41444 24.44764,22.1235 34.83115,34.91952 l -96.54896,126.66114 148.71394,0.26051 c 0.74673,7.65729 1.13556,15.42062 1.13556,23.2679 0,7.84728 -0.38883,15.60619 -1.13556,23.26789 l -148.71394,0.14564 96.78314,126.47997 c -10.20235,12.61928 -21.65072,24.18695 -34.18163,34.49976 l 0,0 z m 42.05984,-44.79048 c -22.04838,-25.68925 -67.8507,-89.59422 -79.81604,-103.53905 16.91407,-0.0141 82.68808,-0.0841 122.30006,-0.11948 -5.80593,38.27317 -20.74051,73.58152 -42.48402,103.65835"
       id="path3007"
       style="fill:#000000;fill-opacity:1;fill-rule:evenodd;stroke:none" />
    <path
       d="m 518.97305,534.05902 -84.51734,0 -71.84505,106.30946 0,-106.30946 -84.52174,0 0,245.10383 84.52174,0 0,-117.27621 71.84505,117.27621 84.51734,0 -76.13542,-126.7495 76.13542,-118.35433"
       id="path3009"
       style="fill:#000000;fill-opacity:1;fill-rule:evenodd;stroke:none" />
    <path
       d="m 162.77453,463.42465 13.78576,19.45913 27.03247,9.65446 -7.95332,10.80769 -20.48423,-8.42611 17.30732,12.74299 -7.7324,10.50723 -40.37197,-29.71451 7.72798,-10.50723 15.69015,11.54558 -12.23487,-16.23362 7.23311,-9.83561"
       id="path3011"
       style="fill:#ffffff;fill-opacity:1;fill-rule:evenodd;stroke:none" />
    <path
       d="m 208.84196,418.72696 32.0033,38.58688 -10.04328,8.32448 -31.99889,-38.58246 10.03887,-8.3289"
       id="path3013"
       style="fill:#ffffff;fill-opacity:1;fill-rule:evenodd;stroke:none" />
    <path
       d="m 279.81656,376.3755 21.61979,45.22791 -10.25979,4.90455 -15.9641,-17.62987 9.82678,20.56376 -9.83119,4.69688 -21.6198,-45.22349 9.83562,-4.70572 16.29106,17.23221 -9.73841,-20.36494 9.84004,-4.70129"
       id="path3015"
       style="fill:#ffffff;fill-opacity:1;fill-rule:evenodd;stroke:none" />
    <path
       d="m 364.49295,373.03068 -12.85788,2.17833 -0.75998,-4.48038 c -0.4772,-2.81901 -0.89696,-4.56432 -1.25928,-5.23152 -0.36674,-0.67161 -1.003,-0.9323 -1.91322,-0.77766 -0.79091,0.13256 -1.27695,0.53023 -1.45811,1.18417 -0.18133,0.65835 -0.0576,2.24902 0.37116,4.76757 l 4.00317,23.69208 c 0.37558,2.21809 0.75999,3.65411 1.16207,4.30805 0.39767,0.64952 1.0251,0.90579 1.87345,0.7644 0.91905,-0.15447 1.48462,-0.65836 1.68346,-1.50671 0.19865,-0.84836 0.10604,-2.42135 -0.28279,-4.71456 l -0.98533,-5.85011 -2.57599,0.43302 -1.27253,-7.53357 15.06713,-2.54507 4.48921,26.55086 -8.13006,1.37415 -1.79834,-3.33597 c -0.61417,1.67461 -1.52439,3.00017 -2.72622,3.97666 -1.20184,0.97649 -2.70855,1.62159 -4.51573,1.92647 -2.15181,0.36232 -4.25502,0.18098 -6.31405,-0.54789 -2.05461,-0.72906 -3.6983,-1.78508 -4.93548,-3.16366 -1.23719,-1.383 -2.12089,-2.89855 -2.65111,-4.55549 -0.53022,-1.65694 -1.08254,-4.18433 -1.65253,-7.58217 l -2.4832,-14.66505 c -0.79975,-4.71897 -1.1223,-8.18751 -0.97649,-10.4056 0.15023,-2.22251 1.28137,-4.42735 3.39342,-6.61452 2.10763,-2.18716 5.07245,-3.60109 8.9033,-4.25061 3.769,-0.63626 7.02102,-0.38883 9.76492,0.73348 2.7439,1.1223 4.67037,2.68645 5.78383,4.6792 1.11347,2.00159 2.01485,5.01944 2.6953,9.05796 l 0.3579,2.13414"
       id="path3017"
       style="fill:#ffffff;fill-opacity:1;fill-rule:evenodd;stroke:none" />
    <path
       d="m 441.34859,371.26769 -12.04929,-1.25044 0.38441,-3.69387 c 0.18134,-1.72323 0.14563,-2.83669 -0.10604,-3.3404 -0.25204,-0.50371 -0.72906,-0.7865 -1.42718,-0.86161 -0.75999,-0.0795 -1.36974,0.17674 -1.82485,0.7644 -0.45953,0.5965 -0.75115,1.52881 -0.8837,2.81459 -0.17215,1.64811 -0.0753,2.92064 0.30505,3.80435 0.35348,0.87928 1.46695,2.02367 3.34482,3.42876 5.36407,4.05178 8.67796,7.25078 9.94607,9.59702 1.2637,2.35065 1.64369,5.96499 1.13556,10.84745 -0.37116,3.54365 -1.05603,6.11522 -2.06345,7.71472 -1.00742,1.59509 -2.75715,2.83669 -5.25361,3.72923 -2.49646,0.88812 -5.32431,1.17091 -8.48355,0.83952 -3.46853,-0.3579 -6.35382,-1.32556 -8.67354,-2.89413 -2.31088,-1.56857 -3.74248,-3.40667 -4.28596,-5.51872 -0.5479,-2.10763 -0.62743,-5.03711 -0.2432,-8.77075 l 0.34041,-3.26529 12.04929,1.25486 -0.63185,6.06662 c -0.18982,1.86903 -0.15023,3.08854 0.12796,3.65853 0.28278,0.56557 0.84835,0.89696 1.70113,0.98533 0.85277,0.0884 1.51997,-0.18098 2.01484,-0.81742 0.48604,-0.63185 0.79533,-1.61718 0.93672,-2.95157 0.30506,-2.9339 0.10605,-4.89572 -0.59208,-5.88104 -0.72463,-0.98975 -2.58041,-2.70414 -5.57174,-5.14757 -2.99134,-2.46112 -4.95758,-4.22852 -5.90314,-5.30222 -0.94114,-1.0737 -1.6702,-2.49646 -2.17391,-4.2727 -0.50813,-1.77183 -0.62301,-3.98109 -0.34888,-6.62336 0.39766,-3.81759 1.1709,-6.55707 2.32855,-8.21843 1.15324,-1.66137 2.86762,-2.87646 5.14315,-3.64528 2.2667,-0.76882 4.9399,-0.99416 8.01077,-0.67603 3.35365,0.34888 6.15941,1.193 8.40843,2.52297 2.25345,1.33439 3.67179,2.86762 4.26829,4.59526 0.59208,1.73647 0.68929,4.57758 0.27395,8.53657 l -0.20326,1.97065"
       id="path3019"
       style="fill:#ffffff;fill-opacity:1;fill-rule:evenodd;stroke:none" />
    <path
       d="m 519.94512,378.46545 -3.62318,9.38935 -7.12706,-2.75274 -14.42645,37.38063 -12.16859,-4.69688 14.42645,-37.38063 -7.21985,-2.78366 3.62318,-9.38935 26.5155,10.23328"
       id="path3021"
       style="fill:#ffffff;fill-opacity:1;fill-rule:evenodd;stroke:none" />
    <path
       d="m 557.88249,442.37043 c -1.74973,2.37274 -2.96041,3.79992 -3.62319,4.28154 -0.66277,0.48161 -1.35648,0.45952 -2.07228,-0.0707 -0.70254,-0.51255 -0.94556,-1.11788 -0.72905,-1.80717 0.20784,-0.68929 1.17974,-2.20042 2.90296,-4.53782 l 13.88297,-18.81403 c 1.52881,-2.07228 2.59809,-3.21226 3.19901,-3.41993 0.60533,-0.20749 1.17974,-0.11029 1.73206,0.29622 0.64952,0.48161 0.8837,1.05602 0.71138,1.73647 -0.18099,0.67604 -0.95882,1.94857 -2.34182,3.82202 l -13.66204,18.51357 0,0 z m 19.47239,-4.42294 c 3.06203,-4.14456 5.1078,-7.12264 6.1329,-8.92981 1.02509,-1.80718 1.53322,-3.79993 1.5288,-5.98709 -0.007,-2.18275 -0.61417,-4.25945 -1.81601,-6.23452 -1.19741,-1.97508 -2.87645,-3.76016 -5.04152,-5.35524 -2.27554,-1.68346 -4.54665,-2.77925 -6.81335,-3.30063 -2.26228,-0.51255 -4.40968,-0.44627 -6.44661,0.20749 -2.03252,0.64952 -3.76458,1.74531 -5.20059,3.28737 -1.43602,1.54207 -3.64528,4.3434 -6.63219,8.38634 l -5.08571,6.8973 c -3.06203,4.14899 -5.10339,7.12265 -6.12848,8.92982 -1.02952,1.80276 -1.53323,3.79992 -1.52881,5.98267 0.007,2.18717 0.60976,4.26387 1.81159,6.23894 1.20184,1.97508 2.88087,3.76016 5.04594,5.35524 2.27554,1.67904 4.54666,2.77925 6.80894,3.29621 2.26227,0.51697 4.41409,0.45069 6.44661,-0.20325 2.03693,-0.64952 3.76457,-1.74531 5.20059,-3.28737 1.43602,-1.54206 3.64527,-4.33898 6.63661,-8.39076 l 5.08129,-6.89288"
       id="path3023"
       style="fill:#ffffff;fill-opacity:1;fill-rule:evenodd;stroke:none" />
    <path
       d="m 646.20859,482.03543 -39.58989,30.74844 -6.97242,-8.97842 13.82554,-19.34867 -17.99661,13.97576 -6.68963,-8.60727 39.5943,-30.75286 6.68522,8.61169 -13.37043,19.58727 17.82871,-13.84762 6.68521,8.61168"
       id="path3025"
       style="fill:#ffffff;fill-opacity:1;fill-rule:evenodd;stroke:none" />
    <path
       d="m 163.12359,755.10404 9.36283,20.00261 -9.11539,4.26829 -3.83085,-8.18751 -8.61169,4.02969 3.40226,7.25962 -8.60727,4.02526 -3.39784,-7.25078 -19.0703,8.9254 -5.53198,-11.81511 45.40023,-21.25747"
       id="path3027"
       style="fill:#ffffff;fill-opacity:1;fill-rule:evenodd;stroke:none" />
    <path
       d="m 194.28737,824.02403 c -0.0247,0.74231 -0.64952,1.61717 -1.87787,2.61576 l -2.1253,1.73205 c -1.70555,1.38742 -2.89413,1.98392 -3.57458,1.78508 -0.67603,-0.19865 -1.47136,-0.86161 -2.38158,-1.97949 l 8.59401,-7.00335 c 0.94115,1.15766 1.39625,2.10322 1.36532,2.84995 l 0,0 z m -41.82565,13.28205 8.23611,10.10956 17.55917,-14.29831 c 1.12231,1.37858 1.56416,2.43018 1.32998,3.15924 -0.23401,0.72463 -1.39184,1.93972 -3.47738,3.64085 l -12.93741,10.53374 7.64845,9.39376 10.27305,-8.36425 c 3.14156,-2.55831 4.99292,-4.20642 5.54965,-4.94431 0.56557,-0.73348 0.98091,-1.78508 1.25486,-3.15482 0.27395,-1.36532 -0.15447,-3.25203 -1.28579,-5.6557 2.00601,2.03693 3.83086,3.00901 5.48338,2.91622 1.64811,-0.093 3.9855,-1.36974 7.00334,-3.82643 3.30505,-2.6953 5.28013,-5.18734 5.92523,-7.48055 0.64511,-2.29321 0.46395,-4.43177 -0.53906,-6.41568 -1.00742,-1.98833 -3.45086,-5.36408 -7.33473,-10.12724 l -5.81476,-7.14032 -38.87409,31.65424"
       id="path3029"
       style="fill:#ffffff;fill-opacity:1;fill-rule:evenodd;stroke:none" />
    <path
       d="m 229.3748,892.76727 c -1.72764,2.39042 -2.92506,3.831 -3.58342,4.31703 -0.66278,0.49028 -1.35206,0.47261 -2.07228,-0.0495 -0.70255,-0.51255 -0.95882,-1.10923 -0.75115,-1.79848 0.20749,-0.69371 1.16207,-2.21368 2.86762,-4.56874 L 239.5418,871.7254 c 1.51113,-2.08553 2.56715,-3.23435 3.16807,-3.45086 0.60092,-0.21208 1.17975,-0.11947 1.73206,0.28279 0.65394,0.46836 0.89254,1.04719 0.72464,1.72764 -0.16791,0.67603 -0.93673,1.9574 -2.30647,3.84411 l -13.4853,18.63729 0,0 z m 19.43262,-4.59967 c 3.02227,-4.1755 5.03269,-7.17567 6.04453,-8.98726 1.00742,-1.81601 1.49788,-3.81759 1.47136,-6.00034 -0.0247,-2.18275 -0.64952,-4.25503 -1.86903,-6.22127 -1.21951,-1.96182 -2.91622,-3.73364 -5.09013,-5.30663 -2.2932,-1.66137 -4.57316,-2.73507 -6.84427,-3.22994 -2.2667,-0.49929 -4.4141,-0.41092 -6.44662,0.26087 -2.02809,0.67161 -3.7469,1.78066 -5.16966,3.33598 -1.41834,1.55973 -3.60551,4.36991 -6.55266,8.4482 l -5.02385,6.94148 c -3.02226,4.1755 -5.0371,7.17125 -6.04452,8.99168 -1.00743,1.81159 -1.49788,3.80876 -1.47137,5.99593 0.0247,2.18274 0.6451,4.25499 1.86903,6.21681 1.21951,1.96642 2.91622,3.73382 5.09013,5.31105 2.29763,1.65712 4.57316,2.73524 6.84428,3.23436 2.2667,0.49487 4.4141,0.4065 6.44661,-0.26158 2.02368,-0.67586 3.7469,-1.78508 5.16966,-3.3404 1.41835,-1.55531 3.60551,-4.37433 6.55266,-8.44816 l 5.02385,-6.94149"
       id="path3031"
       style="fill:#ffffff;fill-opacity:1;fill-rule:evenodd;stroke:none" />
    <path
       d="m 320.79826,899.21403 -17.81985,46.85817 -10.62653,-4.04277 1.7409,-23.71858 -8.09914,21.30148 -10.1891,-3.87486 17.81987,-46.85407 10.1891,3.87062 -1.23277,23.68338 8.02402,-21.09855 10.1935,3.87518"
       id="path3033"
       style="fill:#ffffff;fill-opacity:1;fill-rule:evenodd;stroke:none" />
    <path
       d="m 383.53233,910.57385 -1.09579,10.00352 -7.59543,-0.83492 -4.37433,39.82848 -12.96834,-1.42735 4.37433,-39.8239 -7.68822,-0.84411 1.10021,-10.00352 28.24757,3.1018"
       id="path3035"
       style="fill:#ffffff;fill-opacity:1;fill-rule:evenodd;stroke:none" />
    <path
       d="m 419.44159,909.84038 21.53584,-2.74372 1.26812,9.98124 -8.59401,1.0958 1.19741,9.42911 8.0417,-1.0251 1.20625,9.42487 -8.04169,1.02934 1.39183,10.90489 9.5219,-1.21492 1.26811,9.98125 -22.45931,2.8632 -6.33615,-49.72596"
       id="path3037"
       style="fill:#ffffff;fill-opacity:1;fill-rule:evenodd;stroke:none" />
    <path
       d="m 504.21079,887.56668 18.41195,46.62431 -10.5735,4.17532 -14.7004,-18.69916 8.37308,21.19579 -10.14049,4.00318 -18.41195,-46.62417 10.14049,-4.00331 15.04946,18.32354 -8.28913,-20.99674 10.14049,-3.99876"
       id="path3039"
       style="fill:#ffffff;fill-opacity:1;fill-rule:evenodd;stroke:none" />
    <path
       d="m 565.01397,888.66689 c -2.30647,-3.79992 -5.81477,-9.95491 -10.52932,-18.47823 5.56733,6.34941 10.26421,11.63395 14.09506,15.84922 l -3.56574,2.62901 0,0 z m -25.09274,-21.55793 24.33275,44.33092 10.82536,-7.9664 -4.77199,-7.71473 3.83527,-2.81915 5.92523,6.85767 10.7149,-7.88277 -35.74579,-35.9402 -15.11573,11.13466"
       id="path3041"
       style="fill:#ffffff;fill-opacity:1;fill-rule:evenodd;stroke:none" />
    <path
       d="m 622.10118,817.33881 -8.18309,10.15817 -6.76475,-5.44361 c -1.96182,-1.58625 -3.28296,-2.46553 -3.94131,-2.64227 -0.66278,-0.1725 -1.29463,0.11028 -1.89555,0.85277 -0.67161,0.83952 -0.80417,1.61276 -0.39324,2.31088 0.41534,0.70697 1.60833,1.85578 3.58341,3.44645 l 18.11149,14.58109 c 1.89554,1.52439 3.2211,2.41251 3.98108,2.65111 0.76441,0.2386 1.45811,-0.0399 2.0988,-0.83068 0.60533,-0.75557 0.7158,-1.48462 0.32273,-2.18716 -0.39325,-0.69813 -1.65695,-1.91322 -3.80435,-3.64528 l -4.91338,-3.95015 8.18309,-10.16258 1.52438,1.22392 c 4.04294,3.25645 6.67638,5.85454 7.90914,7.78543 1.22835,1.93089 1.69229,4.392 1.39184,7.37008 -0.30046,2.97808 -1.60834,5.90313 -3.91481,8.76633 -2.39925,2.97366 -4.91339,4.99734 -7.5424,6.0622 -2.62902,1.06928 -5.15199,1.1444 -7.56008,0.2432 -2.40809,-0.9058 -5.52314,-2.89855 -9.34958,-5.97825 l -11.39093,-9.17284 c -2.81017,-2.26228 -4.84269,-4.05619 -6.09313,-5.38175 -1.24602,-1.32113 -2.13856,-2.98691 -2.66878,-4.99734 -0.5258,-2.00158 -0.48604,-4.1534 0.1368,-6.45545 0.61859,-2.29762 1.81601,-4.55107 3.59225,-6.75591 2.41251,-2.99575 4.97525,-5.00175 7.69705,-6.01801 2.72181,-1.01626 5.19175,-1.13998 7.40101,-0.36674 2.2181,0.77766 5.14315,2.62902 8.77959,5.55407 l 3.70272,2.9825"
       id="path3043"
       style="fill:#ffffff;fill-opacity:1;fill-rule:evenodd;stroke:none" />
    <path
       d="m 649.22202,752.98315 -4.91339,11.0728 -3.39342,-1.50671 c -1.58183,-0.69813 -2.65111,-1.01184 -3.20784,-0.92789 -0.55673,0.0884 -0.97649,0.44627 -1.2637,1.09137 -0.31389,0.70254 -0.25168,1.35648 0.17215,1.97508 0.41534,0.61417 1.21951,1.18416 2.39925,1.70554 1.51555,0.67162 2.75274,0.97208 3.71155,0.88371 0.94557,-0.0619 2.37716,-0.76883 4.2948,-2.12089 5.50547,-3.85295 9.57492,-6.02244 12.19952,-6.49964 2.6246,-0.4772 6.17708,0.27395 10.66629,2.26228 3.25645,1.44928 5.49222,2.89855 6.70289,4.3434 1.20183,1.44928 1.84694,3.49947 1.92647,6.15058 0.0707,2.6511 -0.53022,5.42593 -1.82043,8.3289 -1.4095,3.18574 -3.22109,5.63802 -5.42593,7.3524 -2.20926,1.71881 -4.39643,2.51414 -6.57475,2.38158 -2.17833,-0.13255 -4.97967,-0.95882 -8.41727,-2.47878 l -3.00017,-1.3344 4.90897,-11.07279 5.57616,2.47437 c 1.72322,0.7644 2.88971,1.10021 3.52156,1.003 0.62743,-0.0884 1.11346,-0.52581 1.45811,-1.3123 0.34888,-0.78208 0.30046,-1.5023 -0.15447,-2.16507 -0.45069,-0.65836 -1.29021,-1.25928 -2.51414,-1.80276 -2.69971,-1.19741 -4.62618,-1.61275 -5.77942,-1.25044 -1.16207,0.38441 -3.3669,1.6216 -6.61451,3.71156 -3.2697,2.08553 -5.55849,3.41109 -6.86637,3.97666 -1.3123,0.56557 -2.88971,0.81742 -4.73223,0.75115 -1.84694,-0.0619 -3.98108,-0.63185 -6.41127,-1.70997 -3.5083,-1.55532 -5.8722,-3.13714 -7.10055,-4.75432 -1.21951,-1.60834 -1.85136,-3.61434 -1.87787,-6.0136 -0.0318,-2.39925 0.57883,-5.00618 1.82485,-7.82961 1.36974,-3.08412 3.03552,-5.48779 4.99734,-7.21985 1.96624,-1.72764 3.86178,-2.60692 5.69104,-2.64227 1.82927,-0.0318 4.56433,0.75998 8.20519,2.37274 l 1.81159,0.80417"
       id="path3045"
       style="fill:#ffffff;fill-opacity:1;fill-rule:evenodd;stroke:none" />
  </g>
</svg>
