<?xml version="1.0" encoding="UTF-8" standalone="no"?>
<svg xmlns:rdf="http://www.w3.org/1999/02/22-rdf-syntax-ns#" xmlns="http://www.w3.org/2000/svg" height="151.55549" width="147.38577" version="1.1" xmlns:cc="http://creativecommons.org/ns#" xmlns:dc="http://purl.org/dc/elements/1.1/" viewBox="0 0 147.38577 151.55549"><polygon points="92.781 2.209 93.549 2.691 94.686 3.463 95.33 3.979 96.044 4.535 96.754 5.172 97.471 5.861 98.187 6.606 98.863 7.416 99.494 8.25 100.082 9.165 100.581 10.098 100.628 10.213 100.029 10.21 98.166 10.199 95.731 10.242 92.729 10.313 89.301 10.456 85.473 10.686 81.352 11.001 77.005 11.441 72.465 12.026 70.184 12.351 67.861 12.752 65.553 13.174 63.256 13.634 60.964 14.168 58.717 14.719 56.465 15.343 54.283 16.002 52.17 16.73 50.098 17.526 48.083 18.369 42.872 20.827 47.115 20.43 48.742 20.297 51.09 20.146 53.898 20.039 55.385 20.046 56.905 20.078 58.374 20.152 59.79 20.295 61.095 20.486 62.277 20.747 62.705 20.882 62.457 20.979 57.928 22.829 54.837 24.173 51.333 25.762 47.477 27.577 43.408 29.606 39.195 31.821 37.047 32.999 34.923 34.195 32.787 35.471 30.683 36.762 28.608 38.098 26.587 39.446 24.605 40.855 22.711 42.274 20.913 43.729 19.199 45.206 17.562 46.713 16.068 48.234 15.372 49.013 14.715 49.768 14.061 50.57 11.246 54.151 15.021 51.831 17.002 50.667 18.412 49.853 20.045 48.956 21.9 47.956 23.943 46.931 26.146 45.871 28.484 44.803 30.938 43.752 33.475 42.766 34.77 42.291 36.069 41.862 37.361 41.434 38.669 41.053 39.989 40.692 40.257 40.627 40.038 40.764 37.656 42.341 34.834 44.296 31.602 46.677 29.91 47.988 28.141 49.39 26.333 50.899 24.495 52.469 22.646 54.126 20.784 55.888 18.944 57.678 17.085 59.605 15.3 61.547 13.528 63.593 11.818 65.718 11 66.774 10.188 67.895 9.391 68.998 8.626 70.119 7.871 71.27 7.145 72.416 6.446 73.61 5.783 74.805 5.143 76.001 4.534 77.208 3.955 78.461 3.414 79.685 2.904 80.959 2.427 82.21 1.998 83.485 1.604 84.803 1.244 86.12 0.336 90.19 2.391 87.581 3.302 86.496 3.997 85.771 4.795 84.926 5.74 84.013 6.804 83.017 7.97 81.998 9.247 80.956 10.628 79.924 12.106 78.911 13.667 77.94 14.475 77.504 15.316 77.058 16.152 76.663 17.035 76.28 17.366 76.147 17.137 76.654 16.733 77.744 16.279 79.044 15.818 80.568 15.34 82.313 14.9 84.266 14.493 86.463 14.306 87.599 14.142 88.828 13.986 90.088 13.873 91.413 13.766 92.749 13.708 94.183 13.67 95.641 13.662 97.14 13.679 98.689 13.74 100.279 13.857 101.945 14.215 106.4 15.321 103.58 15.628 102.944 15.874 102.495 16.204 101.992 16.61 101.401 17.114 100.772 17.707 100.09 18.381 99.4 19.19 98.688 20.111 97.961 21.138 97.25 22.303 96.554 23.581 95.892 24.06 95.686 23.929 97.838 23.884 99.521 23.871 101.403 23.898 103.518 23.997 105.807 24.177 108.265 24.472 110.783 24.862 113.386 25.118 114.68 25.392 115.972 25.714 117.281 26.081 118.569 26.496 119.862 26.95 121.09 27.459 122.335 28.002 123.513 28.6 124.692 30.474 127.845 30.45 125.073 30.56 123.872 30.684 122.971 30.871 121.901 31.114 120.644 31.458 119.256 31.904 117.68 32.476 115.989 33.155 114.119 33.986 112.165 34.963 110.063 36.112 107.86 37.434 105.536 37.595 105.281 37.588 105.463 37.574 106.928 37.62 108.676 37.773 110.601 38.006 112.783 38.385 115.136 38.908 117.64 39.256 118.949 39.622 120.293 40.063 121.661 40.527 123.073 41.081 124.483 41.663 125.932 42.34 127.386 43.049 128.835 43.837 130.32 44.697 131.814 45.641 133.304 47.498 136.04 47.901 134.187 48.233 133.061 48.515 132.26 48.887 131.332 49.316 130.269 49.871 129.114 50.512 127.861 51.256 126.56 52.133 125.188 53.119 123.787 54.256 122.354 55.504 120.939 56.19 120.244 56.926 119.542 57.383 119.119 57.382 119.143 57.416 120.225 57.465 121.506 57.572 123.023 57.728 124.672 57.987 126.447 58.337 128.303 58.784 130.223 59.349 132.145 59.703 133.102 60.077 134.068 60.493 134.984 60.956 135.906 61.457 136.824 62.018 137.681 62.595 138.53 63.255 139.342 63.951 140.101 65.32 141.412 66.306 139.345 67.009 137.973 67.965 136.253 69.128 134.316 69.779 133.334 70.481 132.341 71.203 131.348 71.986 130.404 72.475 129.847 72.425 131.036 72.258 133.317 71.976 136.342 71.549 140.092 70.897 144.609 69.754 151.555 72.349 149.564 73.838 148.38 75.824 146.697 78.187 144.61 80.87 142.099 82.311 140.685 83.789 139.179 85.31 137.581 86.87 135.888 88.451 134.101 90.045 132.204 91.638 130.238 93.215 128.217 94.786 126.056 96.332 123.857 97.84 121.552 99.299 119.181 100.709 116.723 101.392 115.459 102.077 114.194 103.34 111.589 104.533 108.927 105.078 107.556 105.614 106.183 106.13 104.793 106.618 103.394 107.07 101.943 107.49 100.512 107.887 99.06 108.249 97.638 108.382 97.295 109.013 97.484 109.872 97.695 110.948 97.872 112.145 97.971 112.811 97.983 113.495 97.968 114.209 97.909 114.949 97.818 115.709 97.682 116.479 97.474 117.263 97.221 118.053 96.917 118.849 96.539 119.652 96.067 120.422 95.555 121.219 94.945 121.983 94.242 122.74 93.476 123.47 92.585 124.16 91.62 124.844 90.559 125.501 89.385 126.101 88.105 126.691 86.697 126.844 86.286 126.95 85.873 127.055 85.361 127.054 84.781 126.978 84.499 126.883 84.189 126.636 83.879 126.368 83.674 126.431 83.466 126.639 82.558 126.815 81.48 126.943 80.403 126.988 79.465 126.966 79.045 126.913 78.663 126.773 78.345 126.586 78.083 126.122 77.875 125.671 78.069 125.475 78.279 125.263 78.61 125.053 79.014 124.789 79.461 124.435 79.947 124.258 80.184 124.031 80.396 123.777 80.614 123.499 80.826 123.194 81.009 123.155 81.026 123 80.901 122.703 80.614 122.375 80.26 122.016 79.803 121.659 79.269 121.339 78.635 121.067 77.889 120.947 77.516 120.864 77.098 120.798 76.638 120.748 76.152 120.719 75.63 120.733 75.115 120.787 74.555 120.86 73.961 120.998 73.339 121.155 72.679 121.375 72.003 121.64 71.277 121.965 70.551 122.344 69.759 123.499 67.491 124.637 65.326 125.819 63.275 126.41 62.286 127.019 61.376 127.656 60.481 128.313 59.625 128.973 58.824 129.673 58.067 130.398 57.353 131.136 56.709 131.911 56.137 131.914 56.186 132.052 56.732 132.579 56.861 132.892 56.851 133.316 56.65 133.759 56.367 134.247 56.001 135.314 55.107 135.845 54.591 136.137 54.292 138.105 54.595 138.095 55.108 137.973 56.486 137.856 57.738 137.856 58.248 137.912 58.485 138.134 59.012 138.804 58.983 139.103 58.838 139.63 58.523 140.296 57.963 141.035 57.213 141.443 56.733 141.846 56.209 142.231 55.632 142.627 54.991 143.012 54.284 143.353 53.528 143.666 52.703 143.9 51.92 143.979 51.774 144.238 51.211 144.609 50.28 145.04 48.977 145.274 48.175 145.503 47.268 145.724 46.239 145.917 45.147 146.102 43.93 146.26 42.618 146.389 41.179 146.494 39.583 146.461 39.416 146.477 39.046 146.545 38.514 146.616 38.273 146.732 37.988 147.106 37.276 147.271 36.803 147.386 36.276 147.371 35.927 147.325 35.662 147.24 35.328 147.066 35.027 146.888 34.726 146.645 34.464 146.353 34.171 145.961 33.895 145.568 33.66 145.147 33.454 144.208 33.094 143.188 32.841 142.141 32.667 141.008 32.514 139.844 32.439 137.686 32.342 137.591 32.307 136.967 32.056 135.944 31.74 134.589 31.376 133.78 31.209 132.906 31.05 131.959 30.919 130.922 30.809 129.809 30.754 128.664 30.724 127.44 30.747 126.316 30.827 125.162 30.366 123.797 29.827 122.127 29.192 120.324 28.589 118.501 28.043 117.624 27.838 116.827 27.668 116.075 27.563 116.019 27.56 116.335 27.144 116.807 26.637 117.437 26.049 118.265 25.4 119.322 24.66 120.594 23.867 121.312 23.483 122.134 23.059 122.995 22.639 123.948 22.232 124.972 21.796 126.051 21.383 127.229 20.965 128.509 20.538 129.845 20.108 131.272 19.718 132.816 19.3 134.422 18.921 136.15 18.536 140.273 17.646 137.703 16.789 136.66 16.474 135.875 16.282 134.967 16.097 133.93 15.905 132.716 15.742 131.411 15.629 129.985 15.566 128.412 15.561 126.74 15.628 124.985 15.79 123.114 16.057 121.164 16.458 119.874 16.79 119.798 15.991 119.665 15.236 119.524 14.362 119.287 13.398 119.024 12.373 118.659 11.316 118.231 10.246 117.723 9.189 117.102 8.163 116.739 7.653 116.381 7.174 115.965 6.714 115.533 6.275 115.049 5.863 114.54 5.478 114.009 5.142 111.755 3.935 112.708 5.982 112.82 6.316 112.923 6.748 112.995 7.303 113.009 7.919 112.944 8.453 111.993 7.742 111.083 7.122 110.029 6.436 108.776 5.68 107.401 4.903 105.896 4.135 104.297 3.398 102.565 2.712 100.745 2.079 99.814 1.808 98.842 1.557 97.888 1.358 96.888 1.157 95.892 1.027 94.863 0.921 93.84 0.861 90.208 0.815 92.781 2.209"/><polygon points="137.844 17.513 137.5 17.398 136.491 17.094 135.735 16.909 134.849 16.729 133.829 16.54 132.645 16.381 131.356 16.27 129.957 16.208 128.424 16.204 126.782 16.269 125.06 16.429 123.224 16.69 121.309 17.084 119.311 17.599 119.268 17.197 119.16 16.078 119.03 15.338 118.894 14.49 118.664 13.558 118.408 12.557 118.057 11.54 117.642 10.505 117.158 9.495 116.565 8.516 116.224 8.037 115.884 7.583 115.497 7.156 115.095 6.746 114.646 6.365 114.174 6.007 113.686 5.698 113.152 5.412 113.306 5.743 113.438 6.139 113.556 6.631 113.637 7.254 113.653 7.951 113.559 8.723 113.444 9.136 113.309 9.546 112.886 9.211 111.62 8.265 110.732 7.661 109.678 6.975 108.444 6.23 107.097 5.47 105.616 4.713 104.044 3.989 102.341 3.315 100.55 2.691 99.635 2.425 98.696 2.182 97.761 1.988 96.783 1.791 95.809 1.664 94.812 1.562 93.817 1.503 92.802 1.49 93.105 1.654 93.901 2.153 95.068 2.945 95.726 3.472 96.457 4.043 97.191 4.701 97.925 5.406 98.666 6.177 99.367 7.016 100.022 7.882 100.636 8.84 101.162 9.823 101.372 10.332 101.58 10.86 100.025 10.853 98.178 10.842 95.746 10.885 92.756 10.956 89.339 11.098 85.522 11.326 81.417 11.641 77.07 12.08 72.556 12.662 70.274 12.987 67.977 13.384 65.679 13.804 63.383 14.264 61.117 14.793 58.869 15.343 56.651 15.958 54.48 16.614 52.379 17.337 50.328 18.126 48.345 18.956 46.457 19.847 47.062 19.79 48.702 19.656 51.057 19.504 53.887 19.396 55.398 19.403 56.928 19.435 58.422 19.512 59.869 19.657 61.212 19.854 62.443 20.125 62.993 20.299 63.496 20.473 63.961 20.696 64.354 20.923 62.699 21.574 58.184 23.419 55.103 24.758 51.607 26.344 47.764 28.152 43.707 30.175 39.504 32.385 37.362 33.559 35.239 34.755 33.123 36.019 31.031 37.302 28.965 38.633 26.943 39.981 24.99 41.37 23.106 42.781 21.318 44.229 19.618 45.692 18.009 47.175 16.537 48.674 15.857 49.434 15.201 50.189 14.567 50.968 13.974 51.72 14.695 51.278 23.493 51.339 25.284 49.434 26.555 48.047 27.364 46.892 28.865 46.199 29.905 45.102 30.83 44.351 31.812 43.369 33.254 42.163 34.558 41.685 35.867 41.252 37.169 40.819 38.5 40.433 39.829 40.07 41.142 39.751 42.457 39.474 43.77 39.225 42.199 40.167 40.392 41.3 38.022 42.869 35.199 44.824 31.995 47.185 30.309 48.492 28.54 49.894 26.751 51.388 24.923 52.949 23.075 54.605 21.232 56.348 19.392 58.139 17.559 60.04 15.773 61.982 14.014 64.013 12.326 66.111 11.508 67.167 10.709 68.271 9.912 69.374 9.163 70.471 8.414 71.614 7.688 72.76 7.009 73.922 6.349 75.108 5.717 76.291 5.108 77.497 4.543 78.721 4.002 79.944 3.504 81.188 3.032 82.427 2.607 83.69 2.224 84.973 1.868 86.275 1.578 87.575 1.893 87.175 2.824 86.067 3.53 85.33 4.338 84.474 5.301 83.544 6.372 82.541 7.555 81.507 8.821 80.854 10.554 80.681 12.46 80.623 13.83 79.826 14.541 76.956 15.028 76.484 15.888 76.078 16.787 75.687 17.691 75.324 18.62 74.981 18.377 75.468 17.732 76.898 17.34 77.956 16.89 79.243 16.433 80.754 15.963 82.469 15.527 84.407 15.127 86.568 14.94 87.704 14.781 88.907 14.625 90.155 14.514 91.464 14.407 92.801 14.35 94.2 14.313 95.645 14.305 97.132 14.322 98.682 14.382 100.254 14.498 101.893 14.633 103.574 14.732 103.323 15.056 102.65 15.322 102.163 15.674 101.628 16.093 101.018 16.621 100.361 17.234 99.654 17.939 98.934 18.779 98.194 19.729 97.444 20.79 96.71 21.99 95.993 23.306 95.311 24.805 94.667 24.713 95.529 24.571 97.877 24.526 99.525 24.514 101.395 24.541 103.51 24.639 105.779 24.817 108.204 25.111 110.708 25.495 113.275 25.747 114.547 26.021 115.839 26.339 117.127 26.7 118.392 27.104 119.652 27.553 120.868 28.048 122.078 28.586 123.243 29.164 124.383 29.811 125.472 29.808 125.046 29.921 123.799 30.05 122.872 30.24 121.779 30.486 120.506 30.837 119.092 31.289 117.489 31.872 115.77 32.557 113.883 33.398 111.904 34.386 109.779 35.548 107.552 36.883 105.206 38.419 102.78 38.346 103.481 38.279 104.342 38.23 105.49 38.217 106.934 38.263 108.642 38.414 110.55 38.643 112.698 39.017 115.019 39.533 117.491 39.876 118.78 40.238 120.111 40.673 121.46 41.132 122.855 41.678 124.244 42.253 125.676 42.917 127.104 43.626 128.552 44.404 130.018 45.247 131.481 46.184 132.96 47.188 134.44 47.278 134.027 47.622 132.863 47.913 132.034 48.291 131.091 48.728 130.009 49.295 128.828 49.947 127.556 50.706 126.227 51.599 124.83 52.605 123.403 53.763 121.942 55.034 120.5 55.739 119.786 56.489 119.071 57.264 118.353 58.057 117.657 58.048 118.334 58.025 119.142 58.058 120.2 58.107 121.481 58.212 122.963 58.366 124.595 58.621 126.341 58.966 128.17 59.406 130.06 59.96 131.943 60.303 132.87 60.67 133.819 61.079 134.718 61.53 135.618 62.009 136.493 62.549 137.32 63.111 138.146 63.742 138.922 64.411 139.652 65.123 140.333 65.73 139.061 66.442 137.67 67.408 135.931 68.584 133.973 69.249 132.97 69.961 131.963 70.695 130.954 71.496 129.987 72.305 129.066 73.16 128.208 73.134 129.45 73.067 131.072 72.898 133.377 72.615 136.415 72.187 140.175 71.532 144.713 70.652 150.056 71.949 149.061 73.439 147.877 75.398 146.216 77.761 144.128 80.42 141.64 81.852 140.236 83.324 138.736 84.837 137.146 86.389 135.462 87.959 133.687 89.546 131.799 91.132 129.843 92.708 127.822 94.261 125.686 95.807 123.487 97.302 121.201 98.753 118.844 100.152 116.403 100.826 115.153 101.505 113.9 102.762 111.309 103.941 108.677 104.48 107.322 105.012 105.959 105.523 104.581 106.011 103.182 106.453 101.762 106.87 100.343 107.264 98.901 107.636 97.442 108.011 96.475 108.539 96.672 109.182 96.863 110.002 97.065 111.027 97.234 112.177 97.329 112.81 97.34 113.462 97.327 114.156 97.269 114.853 97.183 115.568 97.054 116.297 96.857 117.049 96.615 117.799 96.327 118.547 95.971 119.311 95.522 120.049 95.032 120.806 94.452 121.537 93.779 122.262 93.046 122.96 92.194 123.629 91.259 124.293 90.228 124.929 89.092 125.513 87.844 126.094 86.461 126.23 86.094 126.324 85.729 126.413 85.297 126.411 84.867 126.357 84.667 126.304 84.494 126.182 84.341 126.04 84.232 125.832 84.155 125.562 84.126 125.809 83.301 126.008 82.434 126.178 81.39 126.302 80.35 126.345 79.466 126.326 79.106 126.288 78.839 126.212 78.664 126.165 78.599 126.116 78.577 126.049 78.606 125.985 78.674 125.82 78.932 125.616 79.325 125.327 79.815 124.949 80.332 124.738 80.614 124.46 80.874 124.181 81.114 123.86 81.358 123.488 81.582 123.066 81.763 122.834 81.593 122.574 81.384 122.243 81.064 121.885 80.677 121.495 80.181 121.103 79.593 120.749 78.891 120.459 78.097 120.324 77.678 120.23 77.206 120.16 76.716 120.107 76.202 120.076 75.64 120.091 75.075 120.148 74.485 120.226 73.852 120.373 73.19 120.536 72.504 120.767 71.794 121.044 71.035 121.385 70.274 121.771 69.467 122.93 67.192 124.074 65.016 125.267 62.946 125.867 61.943 126.489 61.011 127.14 60.098 127.81 59.226 128.489 58.402 129.211 57.62 129.96 56.882 130.733 56.207 131.557 55.6 132.405 55.036 132.536 55.006 132.607 55.073 132.618 55.25 132.607 55.454 132.541 55.909 132.552 56.086 132.58 56.2 132.647 56.216 132.738 56.213 133.004 56.086 133.393 55.839 133.848 55.498 134.883 54.63 135.397 54.13 135.907 53.607 138.723 54.04 138.749 54.511 138.737 55.143 138.613 56.546 138.498 57.768 138.498 58.173 138.525 58.285 138.553 58.351 138.643 58.347 138.797 58.272 139.256 57.998 139.859 57.491 140.561 56.779 140.943 56.329 141.324 55.834 141.697 55.275 142.07 54.669 142.436 53.998 142.759 53.282 143.057 52.497 143.303 51.673 143.404 51.487 143.647 50.958 144.006 50.06 144.431 48.775 144.656 47.997 144.881 47.11 145.095 46.105 145.285 45.034 145.467 43.834 145.622 42.542 145.747 41.137 145.847 39.625 145.815 39.466 145.836 38.992 145.914 38.381 146.009 38.059 146.149 37.717 146.515 37.02 146.651 36.628 146.74 36.221 146.73 35.996 146.696 35.795 146.639 35.573 146.513 35.354 146.369 35.112 146.173 34.901 145.937 34.664 145.611 34.434 145.262 34.226 144.891 34.044 144.015 33.709 143.057 33.47 142.035 33.3 140.945 33.154 139.814 33.081 137.556 32.979 137.351 32.903 136.751 32.662 135.766 32.357 134.441 32.001 133.665 31.841 132.804 31.684 131.871 31.555 130.873 31.45 129.792 31.396 128.662 31.367 127.469 31.389 126.214 31.479 124.926 30.964 123.568 30.428 121.912 29.797 120.12 29.199 118.336 28.664 117.49 28.466 116.716 28.301 116.014 28.203 115.405 28.172 115.111 27.782 115.277 27.502 115.507 27.172 115.842 26.73 116.352 26.183 117.019 25.56 117.883 24.884 118.967 24.124 120.273 23.31 121.018 22.912 121.852 22.482 122.728 22.054 123.696 21.64 124.731 21.201 125.836 20.777 127.026 20.355 128.312 19.927 129.661 19.492 131.103 19.098 132.658 18.677 134.283 18.293 136.014 17.908 137.844 17.513" fill-rule="evenodd"/><polygon points="107.725 92.505 103.924 91.764 103.547 94.308 103.082 96.967 102.487 100.109 102.148 101.726 101.762 103.37 101.353 104.92 100.916 106.386 100.466 107.718 99.992 108.871 99.748 109.355 99.501 109.776 99.25 110.15 98.994 110.434 99.307 95.079 98.843 96.026 98.311 97.022 97.712 98.026 97.07 99.03 95.687 100.997 94.278 102.851 92.995 104.474 91.938 105.747 90.965 106.903 90.644 106.405 90.363 105.788 90.121 105.059 89.897 104.262 89.715 103.415 89.533 102.522 89.277 100.716 89.073 99.036 88.951 97.6 88.877 96.277 88.243 97.01 87.564 97.811 86.744 98.826 85.854 99.955 85.022 101.147 84.273 102.337 83.969 102.891 83.703 103.427 83.627 102.846 83.4 101.189 83.134 98.729 82.984 97.248 82.876 95.655 82.762 93.998 82.712 92.244 82.684 90.488 82.701 88.707 82.765 86.969 82.919 85.271 83.148 83.684 83.45 82.181 82.261 82.696 80.986 83.261 79.493 83.997 77.918 84.821 76.435 85.714 75.783 86.179 75.198 86.638 74.705 87.093 74.348 87.514 74.549 86.671 75.167 84.365 75.666 82.759 76.265 80.928 76.988 78.904 77.835 76.695 78.839 74.411 79.948 72.03 81.213 69.62 81.893 68.431 82.614 67.246 83.363 66.057 84.156 64.91 84.971 63.784 85.836 62.678 86.745 61.618 87.707 60.596 88.686 59.621 89.717 58.685 88.757 58.398 87.707 58.142 86.34 57.9 85.593 57.785 84.801 57.691 83.985 57.644 83.128 57.625 82.275 57.669 81.423 57.762 80.576 57.897 79.733 58.126 79.878 57.916 80.272 57.285 80.987 56.364 81.452 55.798 82.027 55.183 82.669 54.541 83.418 53.847 84.259 53.125 85.209 52.4 86.252 51.669 87.403 50.929 88.669 50.183 90.051 49.476 87.924 49.323 85.712 49.198 83.115 49.091 80.411 49.034 79.107 49.059 77.892 49.105 76.79 49.186 75.831 49.303 75.072 49.481 74.785 49.587 74.546 49.714 75.017 49.282 76.33 48.128 78.288 46.493 79.453 45.551 80.708 44.579 82.029 43.607 83.372 42.634 84.766 41.728 86.139 40.886 87.472 40.162 88.13 39.829 88.766 39.549 89.387 39.314 89.983 39.122 90.559 38.958 91.098 38.86 88.981 38.522 86.759 38.195 84.127 37.863 81.362 37.588 80.008 37.481 78.743 37.413 77.569 37.389 76.537 37.422 75.684 37.535 75.328 37.599 75.041 37.705 75.544 37.408 76.9 36.659 77.887 36.156 79.026 35.577 80.3 34.989 81.708 34.35 83.249 33.724 84.859 33.094 86.539 32.53 88.269 32.009 90.045 31.555 91.851 31.206 92.747 31.067 93.64 30.973 94.537 30.904 95.413 30.853 89.575 27.882 91.445 27.895 93.476 27.943 96.004 28.052 98.785 28.24 101.639 28.51 103.044 28.706 104.385 28.925 105.66 29.196 106.803 29.494 106.862 29.332 106.919 29.126 106.968 28.785 106.988 28.334 106.978 27.77 106.917 27.053 106.78 26.16 106.752 26.05 106.798 26.048 107.036 26.306 107.492 26.844 108.165 27.595 108.569 28 109.067 28.423 109.605 28.844 110.214 29.261 110.889 29.652 111.607 29.999 112.411 30.316 113.278 30.561 112.738 30.544 114.007 30.635 115.41 30.781 117.247 31.043 118.272 31.259 119.367 31.491 120.509 31.81 121.677 32.152 122.872 32.581 124.093 33.081 125.294 33.644 126.504 34.299 126.951 34.276 128.19 34.231 129.967 34.27 130.986 34.325 132.051 34.448 133.163 34.616 134.261 34.849 135.334 35.172 136.323 35.569 136.809 35.792 137.25 36.056 137.675 36.354 138.051 36.668 138.405 37.009 138.72 37.375 138.989 37.79 139.197 38.226 138.396 38.093 137.56 37.978 136.495 37.904 135.345 37.897 134.741 37.932 134.16 38.006 133.604 38.105 133.071 38.268 132.587 38.475 132.124 38.727 131.887 38.491 131.605 38.236 131.184 37.918 130.667 37.567 130.039 37.196 129.297 36.827 128.447 36.491 127.484 36.207 126.437 35.995 125.894 35.934 125.305 35.874 124.694 35.861 124.067 35.874 123.393 35.91 122.722 36.017 122.029 36.144 121.295 36.295 120.543 36.516 119.789 36.783 118.993 37.098 118.184 37.48 118.609 37.434 119.796 37.325 121.51 37.297 122.499 37.31 123.562 37.389 124.65 37.509 125.764 37.696 126.86 37.974 127.917 38.347 128.401 38.567 128.889 38.812 129.353 39.077 129.798 39.369 130.196 39.707 130.578 40.071 130.916 40.478 131.228 40.89 132.215 40.769 133.314 40.663 134.639 40.613 135.384 40.641 136.131 40.693 136.899 40.763 137.673 40.9 138.425 41.109 139.162 41.361 139.853 41.661 140.484 42.054 140.526 42.434 140.547 42.816 140.508 43.313 140.399 43.837 140.184 44.39 140.014 44.644 139.827 44.904 139.593 45.143 139.334 45.358 139.137 45.461 138.916 45.54 138.69 45.574 138.446 45.589 137.877 45.529 137.219 45.429 135.739 45.105 134.876 44.97 133.968 44.863 133.312 44.832 132.661 44.842 132.012 44.922 131.387 45.026 130.765 45.196 130.17 45.386 129.572 45.617 129.001 45.877 128.431 46.176 127.886 46.521 126.8 47.258 125.789 48.075 124.843 48.963 123.928 49.912 123.101 50.881 122.321 51.847 121.606 52.808 120.979 53.723 120.399 54.585 119.488 56.078 118.602 57.611 117.54 59.628 116.951 60.809 116.348 62.127 115.725 63.554 115.093 65.121 114.44 66.801 113.794 68.592 113.153 70.495 112.544 72.532 111.919 74.707 111.344 76.971 110.799 79.367 110.303 81.893 110.251 82.142 110.154 82.823 110.132 83.297 110.116 83.816 110.145 84.355 110.246 84.935 110.411 85.51 110.646 86.086 110.969 86.632 111.161 86.87 111.399 87.127 111.659 87.337 111.961 87.545 112.288 87.729 112.633 87.893 113.025 88.026 113.46 88.138 113.937 88.228 114.437 88.291 115.219 88.246 115.988 88.248 116.848 88.295 117.275 88.358 117.664 88.451 118.009 88.566 118.288 88.709 118.5 88.901 118.602 89.12 118.634 89.254 118.618 89.389 118.397 89.898 118.061 90.39 117.812 90.72 117.468 91.05 117.059 91.412 116.54 91.779 115.927 92.102 115.222 92.409 114.403 92.661 113.468 92.869 112.413 92.97 111.224 92.99 109.911 92.904 108.434 92.669 107.725 92.505" fill="#fcfdff" fill-rule="evenodd"/><path d="M112.82758,27.28231a19.50265,19.50265,0,0,1,7.22888-6.2498s-6.97339,2.2038-7.955,2.4153c0,0,3.48492-7.21651,2.54584-10.76939a47.76325,47.76325,0,0,1-4.34814,4.92209,25.79124,25.79124,0,0,0-6.93884-11.19989s1.77264,6.93188,1.40918,8.52661c0,0-13.7113-2.78992-36.41833,2.06918,0,0,7.64154,2.26529,9.85883,4.0361,0,0-20.3996,5.1386-29.52881,11.625,0,0,14.95392-2.9304,18.91888-1.2532,0,0-25.72778,8.53661-47.77518,37.6364,0,0,10.74689-6.97589,18.8855-8.52409,0,0-13.54431,12.6727-17.94839,25.3688,0,0,11.5415-11.866,21.23831-16.17911,0,0-9.13971,7.524-9.12473,28.96429,0,0,5.97083-7.9115,10.92441-10.3658,0,0-3.861,23.046,5.30722,33.42731,0,0,5.58777-9.5392,13.29828-14.33031,0,0-.97217,14.02031,5.42218,21.8018a67.9,67.9,0,0,1,8.9621-9.11319s2.2948,9.4688,1.12671,16.62669c0,0,19.87463-15.6071,20.93823-33.34041,0,0-4.53461,7.29251-9.0011,10.0383a21.54736,21.54736,0,0,1-2.66089-8.301,20.981,20.981,0,0,0-3.75751,8.334s-4.85211-8.8136-4.20251-23.8476c0,0-6.57941,3.691-9.07672,9.54779A77.41423,77.41423,0,0,1,81.05786,62.3149s-3.37738-.8521-9.03668,2.3613a60.41243,60.41243,0,0,1,7.13-11.377s-10.914,1.0186-19.107,7.7265c0,0,4.92957-8.73659,19.51349-19.302,0,0-11.875-1.36269-15.29352.403,0,0,11.337-9.8268,23.28412-12.053l-7.34-2.5049s12.66364-3.1674,24.6637-.8251a15.33722,15.33722,0,0,0-1.30969-7.0894,54.33272,54.33272,0,0,1,6.47137,5.93181,4.54554,4.54554,0,0,0,2.79395,1.6962" transform="translate(-0.48447 -0.27332)" fill="#e30326"/><polygon points="125.369 81.004 125.338 81.233 125.232 81.827 125.012 82.692 124.833 83.175 124.635 83.659 124.369 84.169 124.057 84.658 123.701 85.107 123.274 85.511 122.773 85.877 122.227 86.155 121.916 86.262 121.583 86.326 121.226 86.388 120.866 86.408 119.425 86.419 118.161 86.398 116.198 86.302 114.976 86.187 114.564 86.118 115.149 85.663 115.775 85.131 116.543 84.39 117.35 83.493 117.751 82.974 118.148 82.41 118.52 81.827 118.85 81.226 119.151 80.579 119.407 79.887 119.517 80.243 119.605 80.622 119.7 81.133 119.754 81.74 119.749 82.414 119.673 83.139 119.468 83.869 121.589 83.983 122.03 83.801 122.49 83.571 123.08 83.245 123.713 82.83 124.339 82.324 124.614 82.016 124.912 81.705 125.141 81.355 125.369 81.004" fill="#fcfdff" fill-rule="evenodd"/><polygon points="117.681 46.063 116.516 46.599 115.29 47.251 113.785 48.121 112.958 48.638 112.132 49.225 111.29 49.855 110.47 50.551 109.677 51.292 108.953 52.076 108.257 52.904 107.674 53.791 111.278 54.204 110.644 54.575 109.97 55.017 109.145 55.602 108.241 56.349 107.319 57.21 106.895 57.685 106.471 58.18 106.096 58.718 105.741 59.256 108.043 59.784 107.701 60.14 107.321 60.588 106.816 61.223 106.207 62.022 105.539 62.981 104.809 64.104 104.069 65.358 103.333 66.772 102.61 68.344 102.271 69.173 101.958 70.047 101.646 70.943 101.335 71.858 101.074 72.843 100.836 73.825 100.62 74.851 100.452 75.918 100.309 77.006 100.191 78.115 100.141 79.266 100.111 80.422 100.025 80.109 99.796 79.175 99.539 77.746 99.423 76.851 99.301 75.87 99.221 74.811 99.181 73.643 99.18 72.429 99.248 71.161 99.38 69.848 99.576 68.486 99.859 67.096 100.256 65.703 96.599 68.4 96.737 68.056 97.158 67.111 97.846 65.676 98.832 63.909 99.411 62.958 100.055 61.972 100.789 60.944 101.565 59.931 102.435 58.94 103.35 57.989 104.359 57.078 105.42 56.235 105.103 56.206 104.745 56.226 104.251 56.252 103.669 56.351 103 56.501 102.227 56.743 101.413 57.103 101.707 56.728 102.533 55.736 103.147 55.05 103.893 54.267 104.748 53.43 105.735 52.522 106.834 51.608 108.067 50.661 109.413 49.753 110.854 48.865 111.617 48.443 112.404 48.016 113.216 47.635 114.053 47.274 114.938 46.934 115.819 46.611 116.729 46.318 117.681 46.063" fill-rule="evenodd"/><polygon points="122.367 34.908 121.564 35.065 120.607 35.251 119.409 35.565 117.989 36.004 116.446 36.579 115.609 36.939 114.799 37.325 113.942 37.776 113.111 38.25 112.991 38.099 112.611 37.691 111.947 37.119 111.523 36.778 111.055 36.423 110.494 36.073 109.89 35.722 109.218 35.376 108.483 35.076 107.654 34.805 106.787 34.56 105.876 34.385 104.878 34.282 106.853 31.631 107.451 31.46 108.144 31.356 108.996 31.311 109.492 31.329 110.035 31.368 110.58 31.45 111.15 31.577 111.726 31.748 112.299 31.985 112.902 32.314 113.486 32.687 113.837 32.916 114.252 33.097 114.801 33.293 115.416 33.417 115.779 33.439 116.117 33.45 116.497 33.379 116.874 33.293 117.25 33.135 117.621 32.938 118.142 32.998 118.715 33.125 119.421 33.287 120.177 33.54 120.964 33.904 121.356 34.106 121.733 34.359 122.059 34.611 122.367 34.908" fill-rule="evenodd"/><polygon points="101.944 48.246 102.616 47.332 103.393 46.32 104.451 45.071 105.75 43.669 106.477 42.956 107.27 42.214 108.109 41.492 108.994 40.814 109.905 40.135 110.881 39.521 103.476 40.326 106.049 37.595 105.734 37.57 104.83 37.551 104.179 37.563 103.416 37.605 102.564 37.673 101.604 37.792 100.573 37.962 99.482 38.201 98.333 38.511 97.133 38.892 95.921 39.384 94.69 39.946 93.423 40.625 92.181 41.434 93.339 41.169 95.987 40.597 97.525 40.29 98.976 40.032 100.231 39.873 100.745 39.845 101.129 39.845 100.427 40.647 99.646 41.593 98.698 42.816 99.599 42.79 103.75 42.52 103.517 42.824 103.268 43.222 102.988 43.822 102.669 44.604 102.386 45.588 102.136 46.797 102.038 47.498 101.944 48.246" fill-rule="evenodd"/><polygon points="110.783 26.485 110.41 26.213 110.077 25.915 109.551 25.382 109.213 24.948 109.094 24.796 109.542 24.344 110.12 23.819 110.897 23.144 111.888 22.372 113.057 21.474 114.424 20.544 115.951 19.584 115.671 19.439 115.327 19.322 114.828 19.238 114.15 19.231 113.769 19.273 113.325 19.365 112.857 19.48 112.329 19.643 111.755 19.857 111.159 20.139 111.283 19.927 111.611 19.323 112.036 18.422 112.51 17.225 112.723 16.56 112.932 15.83 113.07 15.078 113.188 14.306 113.253 13.491 113.231 12.659 113.162 11.808 112.983 10.983 111.045 13.096 109.3 14.924 108.425 15.824 107.634 16.589 107.6 16.365 107.454 15.763 107.156 14.812 106.896 14.242 106.592 13.607 106.197 12.928 105.729 12.189 105.145 11.432 104.471 10.611 103.684 9.8 102.782 8.97 101.747 8.127 100.573 7.266 100.782 7.774 100.99 8.325 101.228 8.988 101.45 9.741 101.607 10.521 101.646 10.879 101.667 11.261 101.64 11.602 101.615 11.917 100.888 11.819 98.825 11.617 97.311 11.496 95.506 11.392 93.428 11.327 91.039 11.3 88.405 11.303 85.527 11.392 82.404 11.565 79.064 11.836 75.503 12.212 71.768 12.706 67.815 13.349 63.691 14.135 64.934 14.609 67.815 15.803 69.477 16.546 71.096 17.314 72.51 18.091 73.095 18.466 73.587 18.8 70.24 19.791 66.63 20.958 62.233 22.477 59.846 23.375 57.398 24.318 54.93 25.332 52.512 26.384 50.162 27.507 47.927 28.662 45.874 29.829 44.939 30.443 44.047 31.036 46.501 30.586 49.11 30.128 50.632 29.91 52.239 29.688 53.894 29.463 55.572 29.283 57.234 29.146 58.829 29.062 60.336 29.023 61.712 29.083 62.891 29.221 63.414 29.307 63.894 29.44 62.701 29.885 61.292 30.458 59.375 31.281 57.027 32.401 54.287 33.788 51.205 35.486 47.803 37.518 46.017 38.673 44.146 39.902 42.236 41.22 40.285 42.611 38.292 44.113 36.267 45.735 34.193 47.424 32.107 49.224 30.003 51.119 27.884 53.127 25.743 55.225 23.611 57.435 21.486 59.778 19.366 62.216 17.275 64.758 16.219 66.077 15.193 67.441 15.669 67.121 16.998 66.31 19.031 65.14 20.255 64.464 21.591 63.739 23.011 63.007 24.527 62.272 26.089 61.559 27.696 60.883 29.305 60.257 30.943 59.716 32.518 59.249 33.316 59.045 34.074 58.892 33.583 59.371 32.235 60.729 31.302 61.703 30.235 62.884 29.071 64.211 27.845 65.717 26.54 67.366 25.217 69.15 23.923 71.04 22.636 73.072 21.996 74.122 21.4 75.19 20.806 76.28 20.26 77.416 19.714 78.547 19.214 79.702 18.758 80.854 18.327 82.05 18.734 81.621 19.933 80.471 21.797 78.773 22.937 77.763 24.209 76.68 25.587 75.573 27.079 74.406 28.661 73.24 30.31 72.092 32.009 70.985 33.774 69.944 35.566 68.968 36.464 68.515 37.367 68.105 36.834 68.65 36.217 69.317 35.412 70.263 34.486 71.46 33.44 72.915 32.878 73.757 32.318 74.643 31.737 75.598 31.185 76.618 30.616 77.707 30.047 78.865 29.483 80.09 28.944 81.358 28.43 82.715 27.947 84.116 27.484 85.58 27.049 87.116 26.664 88.714 26.324 90.373 26.035 92.1 25.795 93.869 25.623 95.725 25.501 97.625 25.45 99.587 25.47 101.614 26.745 99.765 28.214 97.748 30.106 95.304 31.182 93.963 32.347 92.593 33.557 91.217 34.831 89.841 36.134 88.536 37.486 87.288 38.843 86.114 40.225 85.069 40.038 86.183 39.86 87.454 39.615 89.156 39.367 91.195 39.135 93.552 38.913 96.132 38.75 98.91 38.715 100.331 38.682 101.795 38.669 103.262 38.682 104.745 38.718 106.23 38.798 107.713 38.9 109.173 39.069 110.603 39.259 112.012 39.491 113.397 39.767 114.731 40.086 116.02 40.467 117.263 40.915 118.429 41.4 119.532 41.952 120.537 43.327 118.905 44.92 117.131 45.899 116.09 46.963 114.947 48.139 113.781 49.378 112.566 50.686 111.321 52.037 110.124 53.46 108.922 54.883 107.783 56.337 106.737 57.773 105.779 57.715 106.416 57.607 108.13 57.582 109.304 57.565 110.678 57.626 112.209 57.713 113.847 57.899 115.593 58.178 117.377 58.549 119.207 59.033 121.049 59.327 121.956 59.645 122.837 60.007 123.721 60.414 124.581 60.869 125.429 61.359 126.238 61.879 127.021 62.458 127.753 63.373 126.779 64.417 125.691 65.787 124.373 67.42 122.912 68.303 122.167 69.252 121.416 70.206 120.689 71.201 119.982 72.203 119.32 73.228 118.719 73.638 120.502 74.015 122.484 74.447 124.963 74.633 126.325 74.822 127.733 74.969 129.212 75.073 130.694 75.13 132.177 75.119 133.618 75.06 135.017 74.93 136.354 75.942 135.531 77.148 134.523 78.675 133.158 80.494 131.438 82.545 129.387 83.61 128.247 84.717 127.039 85.84 125.74 86.981 124.372 88.118 122.959 89.233 121.456 90.343 119.911 91.449 118.296 92.483 116.621 93.494 114.898 94.455 113.111 95.346 111.263 96.168 109.394 96.919 107.461 97.602 105.485 97.886 104.502 98.165 103.473 98.406 102.47 98.619 101.444 98.81 100.396 98.976 99.354 99.097 98.286 99.2 97.224 99.277 96.161 99.512 95.209 104.236 91.208 104.056 92.884 103.829 94.539 103.579 96.151 103.285 97.769 102.943 99.342 102.554 100.914 102.142 102.446 101.681 103.956 101.204 105.472 100.676 106.939 100.122 108.387 99.547 109.815 98.948 111.225 98.302 112.61 96.983 115.294 95.549 117.913 94.063 120.405 92.483 122.837 90.874 125.15 89.237 127.36 87.552 129.476 85.858 131.482 84.16 133.397 82.48 135.202 80.815 136.889 79.188 138.465 77.604 139.948 76.076 141.338 74.615 142.586 73.236 143.72 71.964 144.759 69.714 146.479 68 147.697 66.893 148.455 66.523 148.705 67.058 147.322 67.544 145.965 68.423 143.419 69.106 141.085 69.663 138.916 70.076 136.958 70.358 135.16 70.544 133.554 70.646 132.15 70.692 130.888 70.655 129.83 70.585 128.934 70.498 128.197 70.336 127.234 70.228 126.927 69.431 127.555 68.632 128.251 67.845 129.062 67.076 129.89 66.361 130.785 65.643 131.678 64.993 132.571 64.366 133.46 63.308 135.117 62.479 136.468 61.759 137.724 61.027 137.042 60.354 136.314 59.705 135.559 59.1 134.759 58.54 133.958 58.019 133.104 57.518 132.257 57.067 131.378 56.66 130.502 56.271 129.598 55.909 128.717 55.592 127.833 55.001 126.064 54.544 124.334 54.166 122.709 53.88 121.195 53.646 119.811 53.493 118.625 53.33 116.901 53.296 116.27 52.416 117.104 51.586 117.963 50.799 118.793 50.079 119.642 49.356 120.469 48.703 121.295 47.51 122.934 46.446 124.504 45.517 126.038 44.716 127.48 44.045 128.821 43.483 130.067 43.028 131.219 42.651 132.208 42.384 133.056 42.042 134.247 41.955 134.656 40.889 133.318 39.915 131.952 39.007 130.583 38.167 129.21 37.393 127.832 36.688 126.452 36.027 125.07 35.456 123.701 34.912 122.359 34.434 121.033 34.025 119.729 33.641 118.441 33.301 117.179 33.01 115.955 32.764 114.752 32.564 113.592 32.22 111.402 32.022 109.433 31.903 107.66 31.846 106.154 31.845 104.939 31.886 104.035 31.936 103.267 31.098 104.415 30.327 105.562 29.576 106.682 28.892 107.799 28.279 108.89 27.683 109.96 27.133 111.023 26.624 112.045 26.184 113.059 25.741 114.029 25.011 115.917 24.409 117.684 23.935 119.308 23.563 120.79 23.297 122.111 23.091 123.273 22.964 124.244 22.853 125.581 22.835 126.057 22.489 125.466 22.166 124.875 21.576 123.605 21.051 122.256 20.595 120.841 20.201 119.375 19.87 117.861 19.603 116.3 19.383 114.714 19.206 113.102 19.07 111.465 18.98 109.826 18.935 108.161 18.912 106.517 18.938 104.895 19.059 101.713 19.275 98.659 19.548 95.81 19.859 93.249 20.164 91.002 20.686 87.731 20.913 86.547 20.048 87.202 19.208 87.901 18.436 88.596 17.708 89.31 17.05 90.044 16.392 90.78 15.801 91.508 15.253 92.258 14.735 93.01 14.278 93.754 13.434 95.218 12.724 96.653 12.148 98.035 11.676 99.321 11.288 100.512 11.01 101.565 10.812 102.498 10.673 103.251 10.591 103.814 10.525 104.296 10.479 102.587 10.48 100.918 10.502 99.272 10.572 97.649 10.806 94.505 11.16 91.47 11.589 88.586 12.092 85.876 12.653 83.347 13.247 80.995 13.853 78.867 14.447 76.964 14.988 75.336 15.499 73.935 16.252 72.023 16.529 71.354 15.607 71.741 14.704 72.176 13.831 72.647 12.955 73.148 12.131 73.709 11.306 74.272 10.527 74.882 9.751 75.507 8.292 76.826 6.923 78.183 5.67 79.558 4.527 80.903 3.516 82.223 2.615 83.467 1.844 84.588 1.2 85.589 0.308 87.035 0 87.57 0.263 86.202 0.575 84.859 0.909 83.537 1.286 82.209 1.712 80.901 2.159 79.594 2.629 78.329 3.147 77.06 3.707 75.789 4.271 74.565 5.512 72.112 6.846 69.742 8.278 67.434 9.777 65.19 11.325 63.014 12.944 60.917 14.613 58.872 16.286 56.93 18.009 55.058 19.736 53.254 21.442 51.539 23.137 49.917 24.809 48.382 26.442 46.923 28.036 45.572 29.565 44.297 31.012 43.138 33.647 41.1 35.86 39.495 37.551 38.323 39.031 37.365 37.713 37.594 36.4 37.888 35.092 38.23 33.784 38.596 32.474 38.984 31.172 39.437 28.61 40.385 26.097 41.424 23.676 42.498 21.375 43.616 19.226 44.746 17.216 45.846 15.405 46.891 12.437 48.672 10.522 49.928 9.851 50.39 10.418 49.616 11.05 48.839 12.41 47.322 13.135 46.565 13.882 45.804 15.488 44.296 17.21 42.805 19.021 41.334 20.9 39.879 22.874 38.446 24.914 37.051 26.978 35.678 29.092 34.344 31.227 33.039 33.388 31.771 35.53 30.527 37.671 29.352 39.796 28.201 41.875 27.12 43.892 26.086 45.865 25.103 47.774 24.164 51.307 22.486 54.431 21.056 57.027 19.901 58.981 19.053 60.68 18.351 60.169 18.135 59.642 17.937 59.067 17.74 58.453 17.595 57.133 17.328 55.703 17.135 54.206 16.993 52.672 16.918 51.137 16.866 49.606 16.879 48.168 16.892 46.796 16.944 44.459 17.072 42.285 17.257 44.175 16.367 46.158 15.537 48.23 14.75 50.331 14.027 52.525 13.368 54.742 12.751 57.012 12.2 59.302 11.671 61.618 11.205 63.938 10.788 66.261 10.393 68.563 10.063 70.866 9.758 73.124 9.476 75.344 9.245 77.514 9.039 81.687 8.72 85.548 8.486 89.009 8.348 92.022 8.27 96.369 8.239 97.968 8.243 97.758 7.713 97.506 7.208 97.254 6.727 96.962 6.268 96.327 5.38 95.606 4.56 94.823 3.814 94.018 3.135 93.197 2.529 92.382 2.009 91.587 1.534 90.825 1.125 89.529 0.498 88.631 0.143 88.306 0 89.323 0.037 90.316 0.096 91.315 0.22 92.316 0.39 93.297 0.608 94.279 0.871 95.24 1.157 96.184 1.49 97.126 1.842 98.024 2.22 99.803 3.047 101.472 3.927 103.029 4.835 104.454 5.748 105.764 6.644 106.887 7.463 107.854 8.222 109.199 9.322 109.671 9.745 109.907 9.529 110.162 9.225 110.663 8.475 111.129 7.57 111.6 6.646 112.319 4.981 112.596 4.268 113.019 4.631 113.4 5.015 113.763 5.424 114.097 5.834 114.687 6.682 115.184 7.552 115.592 8.434 115.908 9.316 116.16 10.179 116.341 11.027 116.474 11.81 116.558 12.547 116.625 13.781 116.605 14.592 116.595 14.91 117.616 14.628 118.618 14.394 119.598 14.181 120.555 13.995 121.518 13.852 122.457 13.734 124.271 13.567 125.981 13.519 127.604 13.521 129.138 13.596 130.543 13.723 131.811 13.881 132.948 14.064 134.769 14.44 135.912 14.738 136.328 14.873 134.498 15.262 132.766 15.698 131.123 16.125 129.572 16.592 128.107 17.052 126.739 17.535 125.413 18.009 124.203 18.506 123.06 19.018 121.983 19.525 120.034 20.534 118.375 21.523 116.942 22.48 115.775 23.375 114.78 24.216 114.013 24.979 113.441 25.643 113.001 26.207 112.706 26.605 112.499 26.952 112.387 26.983 112.027 26.98 111.775 26.926 111.48 26.852 111.156 26.69 110.783 26.485" fill="#fcfdff" fill-rule="evenodd"/><polygon points="133.605 54.364 134.332 53.627 135.053 52.823 135.432 52.326 135.832 51.788 136.208 51.225 136.557 50.623 136.863 50.021 137.098 49.401 137.245 48.784 137.324 48.172 137.27 47.588 137.186 47.298 137.103 47.013 136.737 46.919 135.826 46.699 135.189 46.597 134.509 46.522 133.789 46.494 133.044 46.533 133.122 46.689 133.323 47.082 133.586 47.765 133.861 48.677 133.957 49.209 134.057 49.812 134.092 50.44 134.106 51.137 134.079 51.884 133.99 52.677 133.831 53.496 133.605 54.364" fill="#fcfdff" fill-rule="evenodd"/><polygon points="139.475 56.679 139.943 56.183 140.431 55.637 140.979 54.933 141.52 54.115 141.766 53.649 141.967 53.189 142.142 52.704 142.253 52.227 142.316 51.752 142.313 51.255 142.101 51.087 141.864 50.898 141.559 50.688 141.167 50.486 140.707 50.283 140.156 50.136 139.587 50.03 139.657 50.478 139.731 51.014 139.795 51.776 139.801 52.722 139.772 53.849 139.664 55.16 139.475 56.679" fill="#fcfdff" fill-rule="evenodd"/></svg>