<?xml version="1.0" encoding="UTF-8" standalone="no"?>
<svg xmlns:rdf="http://www.w3.org/1999/02/22-rdf-syntax-ns#" xmlns="http://www.w3.org/2000/svg" height="111.96802" width="111.96799" version="1.1" xmlns:cc="http://creativecommons.org/ns#" xmlns:dc="http://purl.org/dc/elements/1.1/" viewBox="0 0 111.96799 111.96802"><path d="M55.984,0a55.984,55.984,0,1,0,55.984,55.984A55.98414,55.98414,0,0,0,55.984,0"/><path d="M108.2851,54.06427H88.4381a32.37836,32.37836,0,0,0-8.149-19.67l14.035-14.035a52.14185,52.14185,0,0,1,13.961,33.705" fill="#e60005"/><path d="M57.9038,3.68317a52.142,52.142,0,0,1,33.705,13.96106l-14.035,14.035a32.37794,32.37794,0,0,0-19.67-8.149Z" fill="#e60005"/><path d="M54.0644,3.68317v19.847a32.37794,32.37794,0,0,0-19.67,8.149l-14.035-14.035A52.13976,52.13976,0,0,1,54.0644,3.68317" fill="#e60005"/><path d="M17.6445,20.35956l14.034,14.03406a32.38242,32.38242,0,0,0-8.148,19.671H3.68349a52.1346,52.1346,0,0,1,13.961-33.705" fill="#e60005"/><path d="M3.6832,57.90387h19.847a32.37843,32.37843,0,0,0,8.149,19.67l-14.035,14.035a52.14182,52.14182,0,0,1-13.961-33.705" fill="#e60005"/><path d="M54.0644,108.28491a52.13939,52.13939,0,0,1-33.705-13.961l14.035-14.035a32.37794,32.37794,0,0,0,19.67,8.149Z" fill="#e60005"/><path d="M27.2294,55.98407a28.75527,28.75527,0,0,1,57.219-4.084,33.45756,33.45756,0,0,0-6.73-2.032,7.13691,7.13691,0,0,0-9.962-8.928,9.31471,9.31471,0,0,0-3.025,2.804s-4.428.369-7.97.664-5.313,1.771-5.608,2.804c-.885.074-11.587.488-13.061.553-2.472.111-3.284.812-2.73,3.358l1.906,7.184c-.836-.322-1.418-.941-2.16-2.775-.002-.005-1.624-3.912-1.624-3.912-.805-1.968-2.36-2.12-4.469-2.12h-.677l.272.62,3.616,8.265c.848,1.951,2.186,2.472,4.679,2.841l1.19.246c.632,3.684,1.228,4.771,4.277,6.402,3.173,1.697,10.921,5.387,14.242,7.084a26.86053,26.86053,0,0,1,9.592,7.908,28.76666,28.76666,0,0,1-38.977-26.882" fill="#ffe500"/><path d="M38.3096,59.49237l.498.106c1.972.438,14.708,3.147,14.836,3.174a3.64508,3.64508,0,0,1,.401,1.103l-16.969-3.519-.013-.003-.013-.002c-2.518-.37-3.381-.869-4.012-2.321,0-.001-2.497-5.707-3.34-7.635,1.724.056,2.482.373,2.967,1.56l1.625,3.914c1.178,2.911,2.136,3.229,4.02,3.623" fill="#e60005"/><path d="M38.129,58.53918c.922-2.17694,13.91,1.07,14.944,3.20605Z" fill="#ffe500"/><path d="M54.1003,64.7915c.079.75806-.18,1.053-1.166.821l-12.333-2.535a1.84317,1.84317,0,0,1-1.584-1.414Z" fill="#ffe500"/><path d="M53.4558,49.86859a1.461,1.461,0,1,1,1.461,1.46106,1.46088,1.46088,0,0,1-1.461-1.46106" fill="#ffe500"/><path d="M57.9038,108.28491v-19.847a32.37794,32.37794,0,0,0,19.67-8.149l14.035,14.035a52.14161,52.14161,0,0,1-33.705,13.961" fill="#e60005"/><path d="M94.32369,91.60876l-14.035-14.035a32.37253,32.37253,0,0,0,8.149-19.67h19.847a52.13662,52.13662,0,0,1-13.961,33.705" fill="#e60005"/><path d="M7.19419,67.68353l13.733-5.687,3.543,8.55505c1.374,3.371,1.382,6.67-1.034,7.671-1.693.701-3.488-.728-4.603-2.613l-.038.016c.736,2.476.374,4.885-1.585,5.696-3.994,1.655-6.473-5.082-6.545-5.255Zm5.909,6.736c.512,1.236,1.462,1.915,2.318,1.56a1.85269,1.85269,0,0,0,.793-2.443l-1.342-3.239-2.967,1.229Zm4.413-5.217,1.064,2.514c.553,1.335,1.311,2.035,2.357,1.602.78-.323.973-1.417.492-2.579l-1.117-2.695Z"/><polygon points="30.402 99.23 36.09 85.497 49.689 91.13 48.586 93.793 39.932 90.208 38.758 93.042 46.72 96.34 45.617 99.003 37.655 95.705 36.45 98.616 45.105 102.2 44.002 104.863 30.402 99.23"/><path d="M76.4621,15.77789c.389-1.287-.532-2.493-2.559-3.33295-2.844-1.178-4.427,1.174-5.278,3.228-.827,1.997-1.236,4.591,1.558,5.748,2.077.861,3.556.649,4.198-.62195l5.193,2.151c-1.36,3.49194-6.167,2.927-10.494,1.134-5.564-2.305-7.492-6.113-5.585-10.715,1.908-4.602,5.932-5.85394,11.511-3.587,4.327,1.793,8.157,4.717,6.648,8.148Z"/><path d="M41.014,13.12689a1.39587,1.39587,0,0,0-1.147-.951,3.7165,3.7165,0,0,0-2.085.351c-1.138.471-1.891,1.451-1.608,2.136.418,1.008,2.134.676,3.555.399,3.237-.649,7.684-2.222,9.219,1.487,1.197,2.891-1.946,5.796-6.076,7.506-4.154,1.72-8.2,2.303-9.818-1.394l4.947-2.048c.51,1.304,2.038,1.496,3.819.759,1.137-.471,2.407-1.532,2.029-2.445-.771-1.864-4.266.051-8.692.346a3.78922,3.78922,0,0,1-4.081-2.23206c-1.149-3.335,2.191-5.764,5.925-7.31,3.684-1.526,7.885-2.084,8.959,1.348Z"/><path d="M72.91819,102.75024l-4.945,2.048-5.688-13.733,8.259-3.421c3.017-1.25,7.184-2.24,8.389.67.851,2.054-.753,3.989-3.156,5.251l.032.076c3.188-1.254,4.294-.263,5.498,1.734a14.311,14.311,0,0,0,2.194,2.991l-5.365,2.222a21.21868,21.21868,0,0,1-1.75-2.684c-.883-1.573-1.265-2.217-3.787-1.172l-1.855.768Zm-1.348-8.712c1.582-.655,3.044-1.462,2.462-2.869-.583-1.408-2.187-.944-3.77-.288l-1.929.798,1.308,3.158Z"/><rect x="13.29329" y="38.7019" width="7.60052" height="2.47038" transform="translate(-26.34495 40.44418) rotate(-67.49734)"/><rect x="93.55238" y="36.13636" width="2.47105" height="7.60119" transform="translate(-8.06794 39.31847) rotate(-22.50261)"/><polygon points="89.523 65.433 99.484 69.56 87.636 69.988 84.936 76.505 98.668 82.195 100.512 77.744 90.263 73.498 102.478 72.999 105.099 66.673 91.367 60.983 89.523 65.433"/></svg>