<?xml version="1.0" encoding="UTF-8" standalone="no"?>
<!-- Created with Inkscape (http://www.inkscape.org/) -->

<svg
   xmlns:dc="http://purl.org/dc/elements/1.1/"
   xmlns:cc="http://creativecommons.org/ns#"
   xmlns:rdf="http://www.w3.org/1999/02/22-rdf-syntax-ns#"
   xmlns:svg="http://www.w3.org/2000/svg"
   xmlns="http://www.w3.org/2000/svg"
   xmlns:sodipodi="http://sodipodi.sourceforge.net/DTD/sodipodi-0.dtd"
   xmlns:inkscape="http://www.inkscape.org/namespaces/inkscape"
   width="338.061701891"
   height="295.803989155"
   viewBox="0 0 352 308.00001"
   id="svg7529"
   version="1.1"
   inkscape:version="0.91 r13725"
   sodipodi:docname="hc sierre.svg">
  <defs
     id="defs7531" />
  <sodipodi:namedview
     id="base"
     pagecolor="#ffffff"
     bordercolor="#666666"
     borderopacity="1.0"
     inkscape:pageopacity="0.0"
     inkscape:pageshadow="2"
     inkscape:zoom="0.35"
     inkscape:cx="22.142857"
     inkscape:cy="520"
     inkscape:document-units="px"
     inkscape:current-layer="layer1"
     showgrid="false"
     units="px"
     inkscape:window-width="1280"
     inkscape:window-height="744"
     inkscape:window-x="-4"
     inkscape:window-y="-4"
     inkscape:window-maximized="1" />
  <metadata
     id="metadata7534">
    <rdf:RDF>
      <cc:Work
         rdf:about="">
        <dc:format>image/svg+xml</dc:format>
        <dc:type
           rdf:resource="http://purl.org/dc/dcmitype/StillImage" />
        <dc:title></dc:title>
      </cc:Work>
    </rdf:RDF>
  </metadata>
  <g
     inkscape:label="Layer 1"
     inkscape:groupmode="layer"
     id="layer1"
     transform="translate(0,-744.36216)">
    <g
       style="overflow:visible"
       id="g7610"
       transform="matrix(0.42909983,0,0,0.42909983,1.0000018,745.14327)">
      <g
         id="g7538">
	<g
   id="g7540">
		<circle
   id="circle7542"
   r="188.44901"
   cy="356.86801"
   cx="432.961" />

		<path
   id="path7544"
   d="m 642.362,442.968 c -6.271,-6.271 -10.011,-12.522 -14.34,-19.761 -5.564,-9.308 -11.85,-19.673 -24.593,-31.957 19.865,-3.463 190.394,-33.174 190.394,-33.174 0,0 -178.797,-31.949 -209.548,-37.443 3.489,-1.083 6.97,-1.999 10.425,-2.582 51.964,-8.791 85.006,-30.608 101.023,-66.699 l 12.698,-28.62 -24.146,24.684 c -8.225,8.493 -21.991,22.705 -42.269,22.705 -8.868,0 -15.93,-1.776 -24.11,-3.835 -10.102,-2.543 -21.334,-5.352 -37.953,-5.272 11.421,-16.306 110.985,-158.457 110.985,-158.457 0,0 -154.02,108.089 -178.267,125.105 2.114,-4.517 4.537,-8.771 7.313,-12.678 20.771,-29.229 31.083,-56.528 31.083,-82.597 0,-12.248 -2.274,-24.223 -6.813,-36 l -11.256,-29.216 0.382,34.526 c 0.023,1.441 0.049,3 0.049,4.654 0,11.91 -1.292,28.7 -13.882,41.291 -6.271,6.272 -12.522,10.01 -19.763,14.341 -9.13,5.46 -19.294,11.624 -31.293,23.907 C 465.061,166.228 436.14,0 436.14,0 c 0,0 -32.816,181.527 -38.248,211.58 -1.597,-4.697 -2.843,-9.394 -3.633,-14.06 C 385.467,145.556 363.65,112.511 327.561,96.499 L 298.94,83.8 l 24.685,24.145 c 8.492,8.226 22.706,21.991 22.706,42.267 0,8.871 -1.776,15.935 -3.834,24.116 -2.507,9.972 -5.282,21.004 -5.282,37.235 0,0.596 0.033,1.254 0.042,1.865 -16.382,-11.523 -155.464,-109.363 -155.464,-109.363 0,0 106.52,152.535 123.106,176.284 -4.206,-1.93 -8.127,-4.131 -11.665,-6.659 -42.881,-30.639 -81.653,-38.678 -118.532,-24.579 L 145.458,260.292 179.985,260 c 11.823,-0.158 31.607,-0.422 45.906,13.952 6.256,6.287 9.978,12.549 14.289,19.8 5.442,9.152 11.584,19.344 23.86,31.387 -19.645,3.424 -188.204,32.794 -188.204,32.794 0,0 179.62,32.133 209.365,37.455 -3.338,1.049 -6.696,1.921 -10.083,2.442 -52.089,8.021 -85.453,29.346 -102,65.191 l -13.121,28.426 24.508,-24.322 c 8.35,-8.368 22.326,-22.373 42.599,-22.073 8.869,0.132 15.906,2.013 24.054,4.193 10.621,2.84 22.462,5.976 40.569,5.827 -11.495,16.319 -110.25,156.515 -110.25,156.515 0,0 146.632,-101.934 172.105,-119.642 -1.335,2.389 -2.75,4.714 -4.335,6.89 -21.401,29.406 -32.025,56.949 -32.025,83.359 0,11.857 2.143,23.488 6.412,34.954 l 10.928,29.346 0.006,-34.53 c -0.003,-0.756 -0.007,-1.542 -0.007,-2.36 0,-11.97 0.787,-30.156 14.359,-43.426 6.342,-6.199 12.635,-9.864 19.921,-14.108 9.717,-5.66 20.55,-12.053 33.568,-25.593 3.531,19.712 33.615,187.664 33.615,187.664 0,0 30.476,-169.596 36.339,-202.223 0.396,1.716 0.764,3.434 1.032,5.15 8.205,52.061 29.647,85.348 65.552,101.77 l 28.479,13.024 -24.413,-24.422 c -8.332,-8.253 -22.23,-22.024 -22.23,-42.033 0,-0.163 0,-0.326 0,-0.489 0.102,-8.868 1.958,-15.914 4.109,-24.07 2.711,-10.282 5.715,-21.678 5.715,-38.807 0,-0.434 -0.023,-0.914 -0.028,-1.356 16.332,11.405 158.221,110.492 158.221,110.492 0,0 -100.41,-144.092 -119.502,-171.488 1.977,1.181 3.891,2.418 5.721,3.72 41.368,29.396 78.835,37.81 114.545,25.723 l 3.833,-1.298 0,-11.11 -5.73,0.09 c -10.827,0.166 -30.982,0.478 -45.305,-13.846 z"
   inkscape:connector-curvature="0" />

	</g>

	<g
   id="g7546">
		<g
   id="g7548">
			<path
   id="path7550"
   d="m 368.296,149.944 c 27.501,-8.933 51.728,-10.808 67.208,-10.808 53.773,0 106.536,28.101 137.981,54.4 l 18.68,15.622 0,-114.176 -5.632,-3.296 c -46.264,-27.084 -95.666,-40.25 -151.029,-40.25 -101.837,0 -198.921,52.905 -257.449,137.554 0,-18.904 0,-49.248 0,-49.248 l -74.954,0 c 0,0 0,167.757 0,187.841 l -28.146,0 c 0,-20.084 0,-187.841 0,-187.841 l -74.955,0 0,440.623 74.955,0 c 0,0 0,-166.56 0,-186.627 l 28.147,0 c 0,20.067 0,186.627 0,186.627 l 74.954,0 c 0,0 0,-29.934 0,-48.373 23.579,34.036 53.929,63.032 89.345,85.078 49.449,30.781 107.579,47.05 168.104,47.05 62.689,0 100.891,-10.845 151.389,-42.972 l 5.271,-3.355 0,-116.335 -19.425,19.426 c -15.786,15.784 -71.212,56.752 -137.234,56.752 -79.465,0 -129.799,-37.089 -158.03,-68.202 -36.833,-40.592 -57.959,-95.91 -57.959,-151.767 -0.002,-117.651 80.146,-185.429 148.779,-207.723 z"
   inkscape:connector-curvature="0" />

			<path
   id="path7552"
   d="m 815.661,228.153 0,-16.339 c 0,-40.827 -40.021,-74.043 -89.216,-74.043 -49.942,0 -89.064,32.524 -89.064,74.043 l 0,127.15 c 0,37.633 32.956,54.774 63.574,54.774 0,0 25.998,0 39.754,0 l 0,120.17 -28.374,0 c 0,-16.49 0,-87.324 0,-87.324 l -74.954,54.038 0,28.278 c 0,51.16 52.965,74.994 88.76,74.994 20.802,0 42.04,-6.381 58.273,-17.507 20.148,-13.81 31.247,-34.226 31.247,-57.487 l 0,-126.542 c 0,-16.619 -7.425,-31.321 -20.906,-41.395 -11.542,-8.627 -26.695,-13.379 -42.665,-13.379 0,0 -26,0 -39.755,0 l 0,-120.929 28.374,0 c 0,15.588 0,77.276 0,77.276 l 74.952,-55.778 z"
   inkscape:connector-curvature="0" />

		</g>

		<g
   id="g7554">
			<path
   id="path7556"
   d="m 364.78,139.122 c 25.277,-8.211 50.048,-11.365 70.724,-11.365 56.215,0 111.9,29.132 145.281,57.05 l 0,-83.3 C 536.866,75.796 490.122,62.816 435.504,62.816 317.693,62.816 215.9,133.837 166.675,229.997 l 0,-78.874 -52.194,0 0,187.842 -50.907,0 0,-187.843 -52.195,0 0,417.865 52.195,0 0,-186.629 50.907,0 0,186.629 52.194,0 0,-78.308 c 48.041,95.199 146.984,162.063 268.829,162.063 61.525,0 97.942,-11.075 145.279,-41.194 l 0,-82.618 c -20.711,20.711 -79.201,60.086 -145.279,60.086 -140.729,0 -227.369,-114.708 -227.369,-231.35 0.001,-124.154 84.059,-194.968 156.645,-218.544 z"
   inkscape:connector-curvature="0"
   style="fill:#fd1812" />

			<path
   id="path7558"
   d="m 752.089,261.278 0,-66.003 -51.135,0 0,143.689 51.135,0 c 26.023,0 52.191,15.171 52.191,43.394 0,28.223 0,74.899 0,126.543 0,43.45 -44.093,63.613 -78.141,63.613 -32.411,0 -77.38,-21.49 -77.38,-63.613 0,-12.686 0,-22.454 0,-22.454 l 52.194,-37.631 0,76.473 51.135,0 0,-142.931 c 0,0 -27.522,0 -51.135,0 -23.613,0 -52.194,-11.892 -52.194,-43.394 0,-31.502 0,-127.15 0,-127.15 0,-37.571 36.663,-62.664 77.685,-62.664 41.022,0 77.836,27.102 77.836,62.664 0,6.127 0,10.622 0,10.622 l -52.191,38.842 z"
   inkscape:connector-curvature="0"
   style="fill:#fd1812" />

		</g>

	</g>

	<g
   id="g7560">
		<path
   id="path7562"
   d="m 691.586,462.409 c -10.729,0 -35.619,2.147 -53.216,-15.448 -16.903,-16.905 -16.851,-33.839 -47.323,-59.283 L 761.341,358.007 564.487,322.832 c 8.046,-4.324 18.053,-8.448 29.27,-10.345 29.586,-5.005 76.472,-17.601 96.805,-63.422 -7.588,7.587 -23.67,26.704 -48.556,26.704 -23.467,0 -35.392,-11.583 -73.232,-8.642 L 667.877,125.633 501.348,242.5 c 2.402,-9.225 6.621,-20.362 14.025,-30.783 17.383,-24.461 41.629,-66.52 23.604,-113.297 0,10.729 2.146,35.619 -15.45,53.216 -16.761,16.759 -33.549,16.852 -58.634,46.552 L 436.033,32.317 400.153,230.8 c -4.598,-8.5 -9.312,-19.649 -11.459,-32.338 -5.006,-29.588 -17.6,-76.473 -63.422,-96.804 7.586,7.586 26.704,23.669 26.704,48.553 0,23.721 -11.823,35.658 -8.537,74.467 L 204.797,127.149 319.468,291.354 c -9.3,-2.284 -19.945,-6.234 -29.515,-13.072 -24.416,-17.446 -66.411,-41.802 -113.234,-23.9 10.728,0.028 35.625,-2.053 53.175,15.588 16.716,16.806 16.764,33.595 46.404,58.763 l -168.001,29.272 195.939,35.053 c -7.527,4.459 -17.086,8.63 -28.259,10.351 -29.659,4.566 -76.725,16.464 -97.733,61.979 7.697,-7.472 24.062,-26.351 48.943,-25.979 24.006,0.356 35.755,12.649 75.758,9.539 L 204.494,588.713 365.969,476.46 c -2.219,8.083 -5.934,17.144 -12.158,25.698 -17.659,24.26 -42.38,66.043 -24.888,113.021 0.121,-10.727 -1.742,-35.64 16.051,-53.037 17.348,-16.958 34.522,-16.44 60.962,-47.991 L 436.033,682.178 470.48,490.48 c 3.662,7.213 6.948,15.911 8.491,25.709 4.672,29.641 16.734,76.667 62.321,97.517 -7.499,-7.672 -26.434,-23.97 -26.152,-48.852 0.271,-23.915 12.428,-35.714 9.309,-75.332 l 141.606,98.887 -113.31,-162.606 c 8.039,2.82 17.029,6.952 25.546,13.003 24.458,17.383 66.517,41.627 113.295,23.603 z"
   inkscape:connector-curvature="0"
   style="fill:#ffff01" />

	</g>

	<g
   id="g7564">
		<g
   id="g7566">
			<g
   id="g7568">
				<path
   id="path7570"
   d="m 505.371,410.474 c -4.563,-6.217 -6.301,-8.213 -7.146,-8.213 -0.479,0 -0.608,0.536 -0.79,1.276 -0.261,1.081 -0.655,2.712 -2.24,4.297 l -0.919,0.998 c -19.978,22.27 -44.184,26.942 -60.974,26.942 -16.788,0 -40.993,-4.673 -60.972,-26.942 l -0.917,-0.998 c -1.587,-1.585 -1.981,-3.216 -2.243,-4.297 -0.18,-0.74 -0.31,-1.276 -0.789,-1.276 -0.848,0 -2.584,1.996 -7.145,8.213 -6.212,8.461 -4.425,12.963 -4.346,13.15 0.031,0.073 0.107,0.117 0.187,0.109 0.079,-0.009 0.144,-0.068 0.159,-0.147 0.615,-3.227 2.478,-5.97 5.697,-8.384 3.235,-2.427 7.854,1.968 18.917,13.031 l 3.33,3.398 c 10.589,10.913 22.59,23.283 48.12,23.283 25.533,0 37.534,-12.37 48.122,-23.283 l 3.33,-3.398 c 11.065,-11.063 15.683,-15.457 18.919,-13.031 3.218,2.415 5.082,5.158 5.695,8.384 0.016,0.079 0.08,0.139 0.158,0.147 0.082,0.008 0.158,-0.036 0.188,-0.109 0.081,-0.187 1.87,-4.689 -4.341,-13.15 z"
   inkscape:connector-curvature="0" />

				<path
   id="path7572"
   d="m 422.401,447.122 c 3.184,0.846 6.334,1.369 9.309,1.516 l 0,-9.815 c -3.17,-0.081 -6.3,-0.386 -9.309,-0.841 l 0,9.14 z m -21.925,-10.848 c 2.11,1.722 4.602,3.373 7.313,4.891 l 0,-6.571 c -3.199,-0.988 -5.747,-1.929 -7.313,-2.546 l 0,4.226 z m 9.181,5.897 c 3.429,1.766 7.142,3.282 10.878,4.411 l 0,-8.894 c -3.987,-0.691 -7.689,-1.609 -10.878,-2.534 l 0,7.017 z m 25.239,6.466 c 2.975,-0.146 6.125,-0.67 9.309,-1.516 l 0,-9.141 c -3.009,0.455 -6.139,0.76 -9.309,0.841 l 0,9.816 z m 23.92,-14.044 0,6.571 c 2.712,-1.518 5.202,-3.169 7.313,-4.891 l 0,-4.227 c -1.565,0.619 -4.114,1.559 -7.313,2.547 z m -12.745,11.99 c 3.736,-1.129 7.448,-2.646 10.879,-4.411 l 0,-7.017 c -3.19,0.925 -6.893,1.843 -10.879,2.534 l 0,8.894 z"
   inkscape:connector-curvature="0"
   style="fill:#ffff01" />

				<path
   id="path7574"
   d="m 431.715,438.639 c -2.985,-0.075 -6.11,-0.357 -9.288,-0.839 -0.051,-0.007 -0.104,0.007 -0.146,0.043 -0.038,0.034 -0.063,0.083 -0.063,0.138 l 0,9.141 c 0,0.083 0.058,0.154 0.136,0.177 3.261,0.864 6.403,1.376 9.347,1.52 0.05,0.004 0.098,-0.017 0.136,-0.05 0.035,-0.033 0.054,-0.081 0.054,-0.131 l 0,-9.815 c -0.001,-0.1 -0.078,-0.181 -0.176,-0.184 z m -0.187,9.795 c -2.821,-0.152 -5.828,-0.641 -8.946,-1.46 0,-0.276 0,-8.42 0,-8.795 3.058,0.454 6.064,0.727 8.946,0.809 0,0.314 0,9.065 0,9.446 z m -30.985,-16.557 c -0.056,-0.019 -0.12,-0.012 -0.168,0.023 -0.049,0.034 -0.08,0.088 -0.08,0.146 l 0,4.227 c 0,0.055 0.024,0.106 0.067,0.141 2.079,1.696 4.548,3.349 7.338,4.908 0.057,0.031 0.126,0.03 0.182,-0.002 0.055,-0.032 0.088,-0.092 0.088,-0.156 l 0,-6.571 c 0,-0.078 -0.056,-0.148 -0.128,-0.175 l -7.299,-2.541 z m 7.064,8.961 c -2.627,-1.486 -4.971,-3.05 -6.949,-4.656 0,-0.165 0,-3.438 0,-3.879 0.455,0.158 6.708,2.336 6.949,2.419 0,0.236 0,5.544 0,6.116 z m 2.101,-5.858 c -0.055,-0.016 -0.115,-0.005 -0.161,0.029 -0.045,0.034 -0.071,0.088 -0.071,0.146 l 0,7.017 c 0,0.069 0.037,0.131 0.098,0.162 3.469,1.784 7.239,3.314 10.908,4.425 0.055,0.015 0.116,0.004 0.161,-0.029 0.047,-0.033 0.074,-0.09 0.074,-0.146 l 0,-8.894 c 0,-0.088 -0.063,-0.163 -0.149,-0.179 -3.524,-0.612 -7.178,-1.464 -10.86,-2.531 z m 10.645,11.346 c -3.541,-1.085 -7.165,-2.554 -10.516,-4.271 0,-0.216 0,-6.248 0,-6.67 3.566,1.024 7.1,1.851 10.516,2.449 0,0.271 0,8.014 0,8.492 z m 23.824,-8.526 c -3.178,0.481 -6.302,0.764 -9.287,0.839 -0.098,0.003 -0.175,0.084 -0.175,0.183 l 0,9.815 c 0,0.05 0.019,0.098 0.055,0.131 0.037,0.033 0.085,0.054 0.135,0.05 2.942,-0.144 6.086,-0.655 9.346,-1.52 0.08,-0.022 0.135,-0.094 0.135,-0.177 l 0,-9.141 c 0,-0.055 -0.022,-0.104 -0.062,-0.138 -0.041,-0.035 -0.094,-0.049 -0.147,-0.042 z m -0.154,9.174 c -3.117,0.819 -6.124,1.308 -8.946,1.46 0,-0.381 0,-9.132 0,-9.446 2.882,-0.082 5.889,-0.354 8.946,-0.809 0,0.375 0,8.519 0,8.795 z m 22.207,-15.073 c -0.05,-0.035 -0.113,-0.042 -0.17,-0.023 l -7.298,2.541 c -0.072,0.026 -0.128,0.097 -0.128,0.175 l 0,6.571 c 0,0.064 0.034,0.124 0.09,0.156 0.057,0.032 0.125,0.033 0.181,0.002 2.792,-1.56 5.26,-3.213 7.339,-4.908 l 0.065,-4.367 c 0,-0.059 -0.031,-0.113 -0.079,-0.147 z m -0.283,4.373 c -1.928,1.488 -4.294,3.064 -6.948,4.565 0,-0.571 0,-5.881 0,-6.117 0.24,-0.083 6.491,-2.26 6.948,-2.419 0,0.452 0,3.971 0,3.971 z m -9.049,-1.294 c -3.683,1.067 -7.337,1.919 -10.858,2.53 -0.088,0.016 -0.149,0.091 -0.149,0.179 l 0,8.894 c 0,0.057 0.025,0.113 0.072,0.146 0.047,0.035 0.105,0.044 0.162,0.029 3.669,-1.11 7.438,-2.641 10.909,-4.425 l 0.098,-7.179 c 0,-0.058 -0.028,-0.111 -0.074,-0.146 -0.045,-0.033 -0.105,-0.044 -0.16,-0.028 z m -0.13,7.191 c -3.279,1.579 -6.941,3.06 -10.516,4.156 0,-0.478 0,-8.223 0,-8.494 3.416,-0.599 6.949,-1.425 10.516,-2.449 0,0.429 0,6.787 0,6.787 z"
   inkscape:connector-curvature="0" />

			</g>

			<g
   id="g7576">
				<path
   id="path7578"
   d="m 355.501,389.162 c -14.796,-2.989 -24.549,-11.854 -24.645,-11.945 -0.069,-0.063 -0.176,-0.063 -0.246,0 -0.039,0.036 -0.06,0.085 -0.06,0.134 0,0.039 0.012,0.079 0.037,0.112 8.211,10.811 13.495,12.988 14.577,13.342 -5.56,7.243 -6.459,17.333 -6.459,23.028 0,2.616 0.187,4.303 0.192,4.354 0.01,0.09 0.086,0.16 0.177,0.162 0.089,0.002 0.168,-0.063 0.184,-0.151 4.029,-23.578 16.151,-28.641 16.274,-28.69 0.076,-0.029 0.122,-0.104 0.115,-0.185 -0.007,-0.081 -0.067,-0.147 -0.146,-0.161 z"
   inkscape:connector-curvature="0" />

				<path
   id="path7580"
   d="m 535.994,377.216 c -0.07,-0.063 -0.176,-0.063 -0.245,0 -0.099,0.092 -9.851,8.956 -24.644,11.945 -0.08,0.015 -0.139,0.08 -0.146,0.161 -0.008,0.081 0.038,0.155 0.112,0.185 0.124,0.05 12.246,5.112 16.276,28.69 0.016,0.089 0.094,0.153 0.184,0.151 0.092,-0.002 0.166,-0.072 0.177,-0.162 0.005,-0.052 0.191,-1.737 0.191,-4.353 0,-5.694 -0.899,-15.787 -6.458,-23.03 1.08,-0.354 6.363,-2.531 14.575,-13.342 0.023,-0.033 0.035,-0.073 0.035,-0.112 10e-4,-0.048 -0.017,-0.097 -0.057,-0.133 z"
   inkscape:connector-curvature="0" />

			</g>

		</g>

		<g
   id="g7582">
			<g
   id="g7584">
				<path
   id="path7586"
   d="m 416.517,338.12 c -0.035,-0.051 -0.095,-0.082 -0.156,-0.079 -6.396,0.251 -20.133,-3.406 -35.175,-12.031 -0.049,-0.026 -0.109,-0.03 -0.161,-0.008 -0.053,0.021 -0.092,0.066 -0.106,0.121 -2.383,9.038 2.909,18.703 12.048,22.001 9.46,3.411 19.813,-0.906 23.566,-9.831 0.028,-0.056 0.02,-0.122 -0.016,-0.173 z"
   inkscape:connector-curvature="0" />

				<path
   id="path7588"
   d="m 384.984,336.998 c 3.772,-2.89 8.489,-5.418 14.147,-5.959 l -14.72,-5.313 c -1.371,3.802 -1.046,7.813 0.573,11.272 z"
   inkscape:connector-curvature="0"
   style="fill:#ffff01" />

				<path
   id="path7590"
   d="m 384.334,325.562 c -0.043,0.021 -0.077,0.057 -0.095,0.103 -1.336,3.705 -1.13,7.758 0.581,11.411 0.022,0.049 0.067,0.086 0.121,0.1 0.054,0.013 0.111,-10e-4 0.155,-0.031 4.531,-3.473 9.259,-5.466 14.054,-5.924 0.084,-0.009 0.152,-0.074 0.162,-0.159 0.011,-0.084 -0.038,-0.166 -0.119,-0.195 l -14.721,-5.312 c -0.044,-0.016 -0.094,-0.013 -0.138,0.007 z m -0.601,5.08 c 0,-1.58 0.292,-3.152 0.818,-4.672 0.374,0.135 12.719,4.59 13.876,5.008 -4.554,0.574 -9.041,2.482 -13.349,5.736 -0.88,-1.953 -1.345,-4.012 -1.345,-6.072 z"
   inkscape:connector-curvature="0" />

				<path
   id="path7592"
   d="m 423.626,320.577 c -0.091,-0.018 -0.18,0.035 -0.209,0.123 -0.03,0.1 -3.153,9.911 -5.759,11.254 -4.851,2.5 -28.904,-10.013 -40.705,-17.271 l -8.553,-5.804 c -6.14,-4.391 -11.441,-8.182 -17.487,-8.182 -12.008,0 -23.542,13.281 -23.657,13.415 -0.062,0.071 -0.059,0.176 0.006,0.243 0.064,0.068 0.17,0.076 0.243,0.02 6.375,-4.96 12.296,-9.066 20.22,-9.066 6.961,0 11.418,4.081 16.578,8.807 2.782,2.547 5.935,5.434 9.837,8.006 22.097,14.558 41.515,17.961 45.299,15.629 3.172,-1.954 4.287,-16.37 4.333,-16.983 0.01,-0.091 -0.055,-0.174 -0.146,-0.191 z"
   inkscape:connector-curvature="0" />

			</g>

			<g
   id="g7594">
				<path
   id="path7596"
   d="m 485.685,326.123 c -0.014,-0.055 -0.053,-0.1 -0.106,-0.121 -0.052,-0.023 -0.11,-0.018 -0.16,0.008 -15.041,8.625 -28.777,12.283 -35.174,12.031 -0.063,-0.003 -0.12,0.027 -0.157,0.079 -0.035,0.052 -0.042,0.117 -0.018,0.174 3.755,8.924 14.107,13.241 23.567,9.831 9.139,-3.299 14.433,-12.964 12.048,-22.002 z"
   inkscape:connector-curvature="0" />

				<path
   id="path7598"
   d="m 481.621,336.998 c -3.771,-2.89 -8.489,-5.418 -14.146,-5.959 l 14.719,-5.313 c 1.371,3.802 1.047,7.813 -0.573,11.272 z"
   inkscape:connector-curvature="0"
   style="fill:#ffff01" />

				<path
   id="path7600"
   d="m 482.13,325.555 -14.72,5.312 c -0.079,0.029 -0.129,0.111 -0.117,0.195 0.01,0.085 0.079,0.15 0.162,0.159 4.795,0.458 9.524,2.451 14.055,5.924 0.042,0.032 0.1,0.044 0.152,0.031 0.055,-0.013 0.1,-0.05 0.123,-0.1 1.71,-3.653 1.917,-7.706 0.577,-11.412 -0.031,-0.093 -0.137,-0.143 -0.232,-0.109 z m -0.076,0.415 c 0.526,1.521 0.817,3.092 0.817,4.673 0,2.06 -0.466,4.119 -1.345,6.071 -4.308,-3.254 -8.795,-5.162 -13.349,-5.736 1.157,-0.417 13.502,-4.873 13.877,-5.008 z"
   inkscape:connector-curvature="0" />

				<path
   id="path7602"
   d="m 515.691,300.698 c -6.046,0 -11.347,3.791 -17.485,8.182 l -8.556,5.804 c -11.8,7.258 -35.854,19.771 -40.704,17.271 -2.604,-1.344 -5.729,-11.154 -5.76,-11.254 -0.027,-0.088 -0.117,-0.141 -0.208,-0.123 -0.091,0.017 -0.154,0.1 -0.146,0.192 0.045,0.613 1.161,15.029 4.332,16.983 3.785,2.332 23.203,-1.071 45.299,-15.629 3.903,-2.573 7.056,-5.459 9.839,-8.006 5.159,-4.726 9.616,-8.807 16.575,-8.807 7.925,0 13.848,4.105 20.221,9.066 0.075,0.056 0.181,0.048 0.244,-0.02 0.064,-0.067 0.068,-0.172 0.008,-0.243 -0.116,-0.135 -11.65,-13.416 -23.659,-13.416 z"
   inkscape:connector-curvature="0" />

			</g>

		</g>

	</g>

</g>
    </g>
  </g>
</svg>
